<svg width="24" height="24" viewBox="0 0 24 24" fill="none" xmlns="http://www.w3.org/2000/svg">
<path d="M2.65543 18.8958H21.3531C23.112 18.8958 24 18.0168 24 16.2828V8.15624C24 6.4141 23.112 5.53467 21.3531 5.53467H2.65543C0.888 5.53467 0 6.4141 0 8.15581V16.2828C0 18.0245 0.888 18.8958 2.65543 18.8958ZM2.68114 17.5347C1.83514 17.5347 1.36114 17.0864 1.36114 16.207V8.2321C1.36114 7.35267 1.83514 6.89624 2.68114 6.89624H21.3279C22.1649 6.89624 22.6384 7.35267 22.6384 8.2321V16.207C22.6384 17.0864 22.1649 17.5347 21.3279 17.5347H2.68114ZM19.848 10.1435H20.448C20.6936 10.1435 20.8037 10.0334 20.8037 9.78824V9.18824C20.8037 8.95124 20.6936 8.83253 20.448 8.83253H19.848C19.6029 8.83253 19.4923 8.95124 19.4923 9.18824V9.78824C19.4923 10.0334 19.6029 10.1435 19.848 10.1435ZM17.1249 10.1435H17.7249C17.9704 10.1435 18.0891 10.0334 18.0891 9.78824V9.18824C18.0891 8.95124 17.9704 8.83253 17.7249 8.83253H17.1249C16.8877 8.83253 16.7691 8.9511 16.7691 9.18824V9.78824C16.7691 10.0334 16.8879 10.1435 17.1249 10.1435ZM14.4017 10.1435H15.0103C15.2473 10.1435 15.366 10.0334 15.366 9.78824V9.18824C15.366 8.9511 15.2474 8.83253 15.0103 8.83253H14.4017C14.1646 8.83253 14.0461 8.9511 14.0464 9.18824V9.78824C14.0464 10.0334 14.1647 10.1435 14.4017 10.1435ZM11.6871 10.1435H12.2876C12.5327 10.1435 12.6429 10.0334 12.6429 9.78824V9.18824C12.6429 8.95124 12.5327 8.83253 12.2876 8.83253H11.6871C11.442 8.83253 11.3319 8.95124 11.3319 9.18824V9.78824C11.3319 10.0334 11.442 10.1435 11.6871 10.1435ZM8.964 10.1435H9.57257C9.80957 10.1435 9.92829 10.0334 9.92829 9.78824V9.18824C9.92829 8.9511 9.80971 8.83253 9.57257 8.83253H8.964C8.72743 8.83253 8.609 8.9511 8.60871 9.18824V9.78824C8.60871 10.0334 8.727 10.1435 8.964 10.1435ZM6.24129 10.1435H6.85029C7.08729 10.1435 7.20557 10.0334 7.20557 9.78824V9.18824C7.20557 8.9511 7.08714 8.83253 6.85029 8.83253H6.24171C6.00457 8.83253 5.886 8.9511 5.886 9.18824V9.78824C5.886 10.0334 6.00471 10.1435 6.24171 10.1435M3.52714 10.1435H4.12714C4.37271 10.1435 4.48286 10.0334 4.48286 9.78824V9.18824C4.48286 8.95124 4.37271 8.83253 4.12714 8.83253H3.52714C3.28157 8.83253 3.17143 8.95124 3.17143 9.18824V9.78824C3.17143 10.0334 3.28157 10.1435 3.52714 10.1435ZM8.96486 12.8667H9.57343C9.81057 12.8667 9.92914 12.7481 9.92914 12.511V11.911C9.92914 11.6658 9.81043 11.5557 9.57343 11.5557H8.96486C8.72829 11.5557 8.60957 11.6658 8.60957 11.911V12.511C8.60957 12.7481 8.72814 12.8667 8.96529 12.8667M11.6884 12.8667H12.2889C12.534 12.8667 12.6441 12.748 12.6441 12.511V11.911C12.6441 11.6658 12.534 11.5557 12.2889 11.5557H11.6871C11.442 11.5557 11.3319 11.6658 11.3319 11.911V12.511C11.3319 12.748 11.442 12.8667 11.6871 12.8667M14.4017 12.8667H15.0103C15.2474 12.8667 15.366 12.7481 15.366 12.511V11.911C15.366 11.6658 15.2473 11.5557 15.0103 11.5557H14.4017C14.1647 11.5557 14.0464 11.6658 14.0464 11.911V12.511C14.0464 12.7481 14.1649 12.8667 14.4017 12.8667ZM17.1249 12.8667H17.7249C17.9704 12.8667 18.0891 12.748 18.0891 12.511V11.911C18.0891 11.6658 17.9704 11.5557 17.7249 11.5557H17.1249C16.8879 11.5557 16.7691 11.6658 16.7691 11.911V12.511C16.7691 12.7481 16.8877 12.8667 17.1249 12.8667ZM6.24086 12.8667H6.84986C7.087 12.8667 7.20543 12.7481 7.20514 12.511V11.911C7.20514 11.6658 7.08686 11.5557 6.84986 11.5557H6.24129C6.00429 11.5557 5.88557 11.6658 5.88557 11.911V12.511C5.88557 12.7481 6.00371 12.8667 6.24086 12.8667ZM19.8484 12.8667H20.4484C20.694 12.8667 20.8041 12.748 20.8041 12.511V11.911C20.8041 11.6658 20.694 11.5557 20.4484 11.5557H19.8484C19.6033 11.5557 19.4927 11.6658 19.4927 11.911V12.511C19.4927 12.748 19.6033 12.8667 19.8484 12.8667ZM3.52671 12.8667H4.12714C4.37271 12.8667 4.48286 12.748 4.48286 12.511V11.911C4.48286 11.6658 4.37271 11.5557 4.12714 11.5557H3.52714C3.28157 11.5557 3.17143 11.6658 3.17143 11.911V12.511C3.17143 12.748 3.28114 12.8667 3.52671 12.8667ZM6.24171 15.5894H17.7257C17.9709 15.5894 18.0896 15.4711 18.0896 15.2345V14.6255C18.0896 14.389 17.9709 14.2702 17.7253 14.2702H6.24129C6.00471 14.2702 5.88643 14.3887 5.88643 14.6255V15.2341C5.88643 15.4712 6.00471 15.5898 6.24129 15.5898M19.8484 15.5898H20.4484C20.694 15.5898 20.8041 15.4715 20.8041 15.235V14.626C20.8041 14.3894 20.694 14.2707 20.4484 14.2707H19.8484C19.6033 14.2707 19.4927 14.3894 19.4927 14.626V15.2345C19.4927 15.4715 19.6033 15.5898 19.8484 15.5898ZM3.52671 15.5902H4.12714C4.37271 15.5902 4.48286 15.472 4.48286 15.2354V14.6264C4.48286 14.3898 4.37271 14.2711 4.12714 14.2711H3.52714C3.28157 14.2711 3.17143 14.3898 3.17143 14.6264V15.235C3.17143 15.472 3.28157 15.5907 3.52714 15.5907" fill="#257FA4"/>
</svg>
