<svg width="24" height="24" viewBox="0 0 24 24" fill="none" xmlns="http://www.w3.org/2000/svg">
<path fill-rule="evenodd" clip-rule="evenodd" d="M1.2002 11.7948C1.2002 5.89085 6.08753 1.2 12.0002 1.2C17.9129 1.2 22.8002 5.89085 22.8002 11.7948C22.8002 17.6988 17.9129 22.3897 12.0002 22.3897C11.0077 22.3897 10.0452 22.2582 9.13039 22.0115C8.88154 21.9444 8.58461 21.9706 8.28484 22.0925C7.14066 22.5578 5.21078 22.9717 3.02157 22.7276C2.7323 22.6953 2.48658 22.4913 2.39025 22.2035C2.29393 21.9156 2.3642 21.5953 2.57081 21.3805C3.30143 20.6211 3.59074 19.7721 3.64837 18.9115C3.66258 18.6993 3.57243 18.4323 3.34197 18.1296C2.00005 16.367 1.2002 14.174 1.2002 11.7948ZM7.20019 13.1999C7.86294 13.1999 8.40019 12.6627 8.40019 11.9999C8.40019 11.3372 7.86294 10.7999 7.20019 10.7999C6.53745 10.7999 6.0002 11.3372 6.0002 11.9999C6.0002 12.6627 6.53745 13.1999 7.20019 13.1999ZM12.0002 13.1999C12.6629 13.1999 13.2002 12.6627 13.2002 11.9999C13.2002 11.3372 12.6629 10.7999 12.0002 10.7999C11.3375 10.7999 10.8002 11.3372 10.8002 11.9999C10.8002 12.6627 11.3375 13.1999 12.0002 13.1999ZM18.0002 11.9999C18.0002 12.6627 17.4629 13.1999 16.8002 13.1999C16.1375 13.1999 15.6002 12.6627 15.6002 11.9999C15.6002 11.3372 16.1375 10.7999 16.8002 10.7999C17.4629 10.7999 18.0002 11.3372 18.0002 11.9999Z" fill="white"/>
</svg>
