<svg width="40" height="40" viewBox="0 0 40 40" fill="none" xmlns="http://www.w3.org/2000/svg">
<path d="M19.9998 10.8334C20.9944 10.8334 21.9482 10.4383 22.6515 9.73502C23.3547 9.03176 23.7498 8.07794 23.7498 7.08337C23.7498 6.08881 23.3547 5.13498 22.6515 4.43172C21.9482 3.72846 20.9944 3.33337 19.9998 3.33337C19.0053 3.33337 18.0514 3.72846 17.3482 4.43172C16.6449 5.13498 16.2498 6.08881 16.2498 7.08337C16.2498 8.07794 16.6449 9.03176 17.3482 9.73502C18.0514 10.4383 19.0053 10.8334 19.9998 10.8334ZM10.2498 6.96337C9.33338 6.5762 8.30118 6.56628 7.37746 6.93577C6.45374 7.30526 5.71312 8.02431 5.3165 8.93671C5.12026 9.38883 5.01548 9.87534 5.00822 10.3682C5.00096 10.861 5.09135 11.3504 5.27419 11.8081C5.45702 12.2658 5.72868 12.6828 6.07349 13.0349C6.4183 13.3871 6.82943 13.6676 7.28317 13.86L12.3232 16C12.6244 16.1276 12.8814 16.3411 13.0622 16.6137C13.243 16.8864 13.3396 17.2062 13.3398 17.5334V22.6L10.2065 31.695C10.0462 32.1608 9.97916 32.6536 10.0093 33.1452C10.0394 33.6369 10.1661 34.1178 10.382 34.5605C10.8182 35.4546 11.5917 36.1388 12.5323 36.4625C13.473 36.7863 14.5037 36.7232 15.3978 36.287C16.2919 35.8508 16.976 35.0773 17.2998 34.1367L17.5415 33.4334C16.863 31.8499 16.572 30.1274 16.6925 28.4089C16.813 26.6904 17.3416 25.0255 18.2345 23.5522C19.1273 22.0789 20.3586 20.8398 21.8262 19.9377C23.2939 19.0355 24.9555 18.4964 26.6732 18.365V17.5317C26.673 17.2045 26.7691 16.8844 26.9496 16.6114C27.1301 16.3385 27.387 16.1247 27.6882 15.9967L32.7198 13.86C33.1736 13.6676 33.5847 13.3871 33.9295 13.0349C34.2743 12.6828 34.546 12.2658 34.7288 11.8081C34.9117 11.3504 35.002 10.861 34.9948 10.3682C34.9875 9.87534 34.8827 9.38883 34.6865 8.93671C34.2899 8.02431 33.5493 7.30526 32.6255 6.93577C31.7018 6.56628 30.6696 6.5762 29.7532 6.96337L27.0748 8.10004C26.5082 8.34004 26.1115 8.80504 25.9182 9.31671C25.4644 10.5187 24.6552 11.554 23.5984 12.2847C22.5415 13.0154 21.2872 13.4068 20.0023 13.4068C18.7175 13.4068 17.4631 13.0154 16.4063 12.2847C15.3495 11.554 14.5403 10.5187 14.0865 9.31671C13.9858 9.04607 13.8312 8.79869 13.6321 8.58956C13.433 8.38043 13.1935 8.21389 12.9282 8.10004L10.2498 6.96337ZM36.6665 29.1667C36.6665 31.5979 35.7007 33.9294 33.9816 35.6485C32.2626 37.3676 29.931 38.3334 27.4998 38.3334C25.0687 38.3334 22.7371 37.3676 21.018 35.6485C19.2989 33.9294 18.3332 31.5979 18.3332 29.1667C18.3332 26.7356 19.2989 24.404 21.018 22.6849C22.7371 20.9658 25.0687 20 27.4998 20C29.931 20 32.2626 20.9658 33.9816 22.6849C35.7007 24.404 36.6665 26.7356 36.6665 29.1667ZM27.4998 23.3334C27.2788 23.3334 27.0669 23.4212 26.9106 23.5775C26.7543 23.7337 26.6665 23.9457 26.6665 24.1667V30.8334C26.6665 31.0544 26.7543 31.2663 26.9106 31.4226C27.0669 31.5789 27.2788 31.6667 27.4998 31.6667C27.7208 31.6667 27.9328 31.5789 28.0891 31.4226C28.2454 31.2663 28.3332 31.0544 28.3332 30.8334V24.1667C28.3332 23.9457 28.2454 23.7337 28.0891 23.5775C27.9328 23.4212 27.7208 23.3334 27.4998 23.3334ZM27.4998 35.2084C27.7761 35.2084 28.0411 35.0986 28.2364 34.9033C28.4318 34.7079 28.5415 34.443 28.5415 34.1667C28.5415 33.8904 28.4318 33.6255 28.2364 33.4301C28.0411 33.2348 27.7761 33.125 27.4998 33.125C27.2236 33.125 26.9586 33.2348 26.7633 33.4301C26.5679 33.6255 26.4582 33.8904 26.4582 34.1667C26.4582 34.443 26.5679 34.7079 26.7633 34.9033C26.9586 35.0986 27.2236 35.2084 27.4998 35.2084Z" fill="#FF293F"/>
</svg>
