<svg width="24" height="24" viewBox="0 0 24 24" fill="none" xmlns="http://www.w3.org/2000/svg">
    <path
      fill-rule="evenodd"
      clip-rule="evenodd"
      d="M12.0008 1.79999C11.1128 1.79999 10.313 2.15995 9.16672 2.67588L9.01965 2.74204C7.9859 3.20669 7.08091 3.62267 6.00988 4.11497L5.50797 4.34563C4.54156 4.78963 3.73308 5.16107 3.10747 5.57247C2.43548 6.01437 1.9264 6.53094 1.58098 7.28395C0.920961 8.72274 1.23171 9.85257 1.66149 11.4151L1.69803 11.5481C3.22287 17.1027 7.21005 20.6675 9.60606 22.3856L9.68815 22.4446C10.4179 22.9689 11.0201 23.4015 12.0002 23.4001C12.9802 23.3987 13.5819 22.964 14.311 22.4371L14.3932 22.3777C16.7848 20.6526 20.7689 17.0795 22.2983 11.5487L22.3349 11.4166C22.7671 9.85637 23.0797 8.72813 22.4201 7.28663C21.7596 5.84322 20.4661 5.2501 18.6543 4.41933L17.9918 4.11504C16.9207 3.62271 16.0157 3.20671 14.9819 2.74204L14.8348 2.67588C13.6885 2.15995 12.8888 1.79999 12.0008 1.79999ZM16.3126 10.1497C16.6162 9.75616 16.5432 9.191 16.1497 8.88739C15.7561 8.58379 15.191 8.65671 14.8873 9.05027L10.9028 14.2153L9.05478 12.2553C8.7138 11.8937 8.14419 11.8769 7.78254 12.2179C7.42089 12.5589 7.40414 13.1285 7.74512 13.4901L9.57327 15.4291C9.72691 15.5922 9.90062 15.7767 10.0689 15.9111C10.2674 16.0697 10.5803 16.2608 11.0031 16.2398C11.4258 16.2189 11.7183 15.9978 11.9002 15.8205C12.0544 15.67 12.209 15.4694 12.3458 15.2919L16.3126 10.1497Z"
      fill="#13C1AC"
    />
</svg>