<svg
    xmlns="http://www.w3.org/2000/svg"
    width="32"
    height="32"
    fill="#29363d"
    viewBox="0 0 24 24"
    part="inner-svg"
  >
    <path
      d="M4.26 6.95a.75.75 0 1 0-1.02 1.1l.02.018.056.052.211.193a82.542 82.542 0 0 0 3.208 2.768c.53.433 1.085.87 1.63 1.274L4 16.72a.75.75 0 1 0 1.06 1.06l4.551-4.55c.422.274.83.514 1.204.69.368.174.79.33 1.185.33.396 0 .817-.156 1.185-.33.384-.181.806-.43 1.24-.714L19 17.78a.75.75 0 1 0 1.06-1.06l-4.39-4.39a47.106 47.106 0 0 0 1.595-1.249 79.348 79.348 0 0 0 3.42-2.961l.055-.052.02-.018a.75.75 0 0 0-1.02-1.1l-.017.016-.053.049-.206.188a81.543 81.543 0 0 1-3.146 2.716c-.913.743-1.866 1.475-2.69 2.017a9.48 9.48 0 0 1-1.084.628c-.326.154-.495.186-.544.186-.049 0-.218-.032-.544-.186a9.342 9.342 0 0 1-1.083-.628c-.826-.542-1.778-1.274-2.69-2.017A77.857 77.857 0 0 1 4.33 7.015l-.053-.049-.017-.016Z"
    ></path>
    <path
      fill-rule="evenodd"
      d="M12 1.5C-.123 1.5-.074 4.563.014 10.097c.008.49.016 1 .016 1.528l-.002.884C0 18.514-.018 22.5 12 22.5c12.018 0 12-3.986 11.973-9.99a92.658 92.658 0 0 1 .013-2.413C24.074 4.563 24.123 1.5 12 1.5ZM1.53 11.625c0-.595-.009-1.137-.017-1.64-.016-.97-.029-1.793.028-2.573.082-1.131.303-1.844.707-2.362.397-.507 1.133-1.034 2.683-1.427C6.495 3.226 8.75 3 12 3s5.505.226 7.069.623c1.55.393 2.286.92 2.683 1.427.404.518.625 1.23.707 2.362.057.78.044 1.604.028 2.573-.008.503-.017 1.045-.017 1.64l.002.925c.006 1.278.01 2.367-.093 3.359-.124 1.194-.392 2.046-.873 2.694C20.563 19.871 18.283 21 12 21s-8.563-1.129-9.505-2.397c-.482-.648-.75-1.5-.874-2.694-.104-.992-.099-2.08-.093-3.358l.002-.926Z"
      clip-rule="evenodd"
    ></path>
  </svg>