<svg width="63" height="39" viewBox="0 0 63 39" fill="none" xmlns="http://www.w3.org/2000/svg">
<g clip-path="url(#clip0_598_476)">
<path fill-rule="evenodd" clip-rule="evenodd" d="M53.0003 12.7405C53.0003 19.7769 47.1852 25.481 40.0118 25.481C32.8385 25.481 27.0234 19.7769 27.0234 12.7405C27.0234 5.70411 32.8385 0 40.0118 0C47.1852 0 53.0003 5.70411 53.0003 12.7405Z" fill="#F79F1A"/>
<path fill-rule="evenodd" clip-rule="evenodd" d="M36.9768 12.7405C36.9768 19.7769 31.1617 25.481 23.9884 25.481C16.8151 25.481 11 19.7769 11 12.7405C11 5.70411 16.8151 0 23.9884 0C31.1617 0 36.9768 5.70411 36.9768 12.7405Z" fill="#EA001B"/>
<path fill-rule="evenodd" clip-rule="evenodd" d="M32.0003 2.71094C28.9697 5.04331 27.0244 8.66767 27.0244 12.7392C27.0244 16.8106 28.9697 20.4378 32.0003 22.7701C35.0308 20.4378 36.9761 16.8106 36.9761 12.7392C36.9761 8.66767 35.0308 5.04331 32.0003 2.71094Z" fill="#FF5F01"/>
<path d="M52.9759 19.5006V19.0459H52.8547L52.7152 19.3586L52.5757 19.0459H52.4544V19.5006H52.54V19.1576L52.6708 19.4533H52.7596L52.8903 19.1569V19.5006H52.9759ZM52.2079 19.5006V19.1235H52.3633V19.0467H51.9678V19.1235H52.1231V19.5006H52.2079Z" fill="#F79F1A"/>
</g>
<path d="M7.68 28.664C8.36 28.664 8.888 28.864 9.264 29.264C9.648 29.664 9.84 30.212 9.84 30.908V35H8.328V31.148C8.328 30.364 7.972 29.972 7.26 29.972C6.876 29.972 6.564 30.112 6.324 30.392C6.092 30.664 5.976 31.064 5.976 31.592V35H4.476V31.148C4.476 30.364 4.116 29.972 3.396 29.972C3.02 29.972 2.712 30.112 2.472 30.392C2.24 30.664 2.124 31.064 2.124 31.592V35H0.612V28.808H2.076V29.696C2.5 29.008 3.088 28.664 3.84 28.664C4.784 28.664 5.424 29.048 5.76 29.816C6.224 29.048 6.864 28.664 7.68 28.664ZM16.6331 35H15.1211C15.0491 34.872 14.9931 34.62 14.9531 34.244C14.5371 34.844 13.8731 35.144 12.9611 35.144C12.2811 35.144 11.7371 34.98 11.3291 34.652C10.9291 34.324 10.7291 33.868 10.7291 33.284C10.7291 32.156 11.5211 31.512 13.1051 31.352L14.0411 31.268C14.3531 31.228 14.5771 31.156 14.7131 31.052C14.8491 30.94 14.9171 30.776 14.9171 30.56C14.9171 30.296 14.8291 30.104 14.6531 29.984C14.4851 29.856 14.1971 29.792 13.7891 29.792C13.3491 29.792 13.0331 29.868 12.8411 30.02C12.6491 30.164 12.5371 30.416 12.5051 30.776H11.0171C11.1051 29.368 12.0331 28.664 13.8011 28.664C15.5211 28.664 16.3811 29.284 16.3811 30.524V33.824C16.3811 34.368 16.4651 34.76 16.6331 35ZM13.3211 34.064C13.7931 34.064 14.1771 33.936 14.4731 33.68C14.7691 33.416 14.9171 33.04 14.9171 32.552V31.988C14.7731 32.116 14.5371 32.2 14.2091 32.24L13.3931 32.336C12.9931 32.384 12.7051 32.48 12.5291 32.624C12.3611 32.76 12.2771 32.96 12.2771 33.224C12.2771 33.488 12.3651 33.696 12.5411 33.848C12.7251 33.992 12.9851 34.064 13.3211 34.064ZM20.0168 35.168C18.2088 35.168 17.2648 34.456 17.1848 33.032H18.6608C18.7008 33.416 18.8248 33.688 19.0328 33.848C19.2488 34.008 19.5848 34.088 20.0408 34.088C20.8568 34.088 21.2648 33.84 21.2648 33.344C21.2648 33.12 21.1768 32.948 21.0008 32.828C20.8248 32.708 20.5088 32.608 20.0527 32.528L19.3448 32.408C17.9928 32.184 17.3168 31.56 17.3168 30.536C17.3168 29.952 17.5408 29.496 17.9888 29.168C18.4368 28.832 19.0688 28.664 19.8848 28.664C21.6528 28.664 22.5648 29.364 22.6208 30.764H21.1928C21.1768 30.396 21.0608 30.136 20.8448 29.984C20.6288 29.824 20.3088 29.744 19.8848 29.744C19.1648 29.744 18.8048 29.984 18.8048 30.464C18.8048 30.672 18.8848 30.836 19.0448 30.956C19.2048 31.068 19.4688 31.156 19.8368 31.22L20.6168 31.34C21.3688 31.476 21.9128 31.692 22.2488 31.988C22.5928 32.284 22.7648 32.696 22.7648 33.224C22.7648 33.848 22.5248 34.328 22.0448 34.664C21.5648 35 20.8888 35.168 20.0168 35.168ZM26.7033 28.808V29.96H25.4793V33.308C25.4793 33.508 25.5313 33.648 25.6353 33.728C25.7473 33.808 25.9313 33.848 26.1873 33.848H26.7033V35C26.3753 35.032 26.1113 35.048 25.9113 35.048C25.2393 35.048 24.7473 34.924 24.4353 34.676C24.1313 34.42 23.9793 34.016 23.9793 33.464V29.96H23.0193V28.808H23.9793V27.008H25.4793V28.808H26.7033ZM33.3154 32.012V32.372H28.6834C28.7394 32.9 28.9034 33.3 29.1754 33.572C29.4554 33.836 29.8274 33.968 30.2914 33.968C30.9794 33.968 31.4514 33.672 31.7074 33.08H33.1594C32.9994 33.712 32.6634 34.216 32.1514 34.592C31.6394 34.96 31.0154 35.144 30.2794 35.144C29.3594 35.144 28.6154 34.848 28.0474 34.256C27.4794 33.664 27.1954 32.88 27.1954 31.904C27.1954 30.928 27.4754 30.144 28.0354 29.552C28.6034 28.96 29.3434 28.664 30.2554 28.664C31.1914 28.664 31.9354 28.972 32.4874 29.588C33.0394 30.204 33.3154 31.012 33.3154 32.012ZM30.2434 29.84C29.3554 29.84 28.8394 30.332 28.6954 31.316H31.8034C31.7394 30.86 31.5714 30.5 31.2994 30.236C31.0274 29.972 30.6754 29.84 30.2434 29.84ZM37.6037 28.712C37.7397 28.712 37.8637 28.72 37.9757 28.736V30.128H37.5917C37.0157 30.128 36.5717 30.276 36.2597 30.572C35.9557 30.86 35.8037 31.288 35.8037 31.856V35H34.2917V28.808H35.7557V29.912C36.0997 29.112 36.7157 28.712 37.6037 28.712ZM41.2944 35.144C40.3824 35.144 39.6424 34.848 39.0744 34.256C38.5144 33.672 38.2344 32.888 38.2344 31.904C38.2344 30.912 38.5144 30.124 39.0744 29.54C39.6264 28.956 40.3664 28.664 41.2944 28.664C42.1024 28.664 42.7624 28.88 43.2744 29.312C43.7864 29.736 44.0864 30.312 44.1744 31.04H42.6624C42.5904 30.68 42.4344 30.404 42.1944 30.212C41.9544 30.02 41.6544 29.924 41.2944 29.924C40.8224 29.924 40.4504 30.096 40.1784 30.44C39.9144 30.776 39.7824 31.264 39.7824 31.904C39.7824 32.544 39.9184 33.036 40.1904 33.38C40.4624 33.716 40.8304 33.884 41.2944 33.884C41.6624 33.884 41.9704 33.784 42.2184 33.584C42.4744 33.376 42.6304 33.08 42.6864 32.696H44.1984C44.1184 33.44 43.8144 34.036 43.2864 34.484C42.7584 34.924 42.0944 35.144 41.2944 35.144ZM50.6409 35H49.1289C49.0569 34.872 49.0009 34.62 48.9609 34.244C48.5449 34.844 47.8809 35.144 46.9689 35.144C46.2889 35.144 45.7449 34.98 45.3369 34.652C44.9369 34.324 44.7369 33.868 44.7369 33.284C44.7369 32.156 45.5289 31.512 47.1129 31.352L48.0489 31.268C48.3609 31.228 48.5849 31.156 48.7209 31.052C48.8569 30.94 48.9249 30.776 48.9249 30.56C48.9249 30.296 48.8369 30.104 48.6609 29.984C48.4929 29.856 48.2049 29.792 47.7969 29.792C47.3569 29.792 47.0409 29.868 46.8489 30.02C46.6569 30.164 46.5449 30.416 46.5129 30.776H45.0249C45.1129 29.368 46.0409 28.664 47.8089 28.664C49.5289 28.664 50.3889 29.284 50.3889 30.524V33.824C50.3889 34.368 50.4729 34.76 50.6409 35ZM47.3289 34.064C47.8009 34.064 48.1849 33.936 48.4809 33.68C48.7769 33.416 48.9249 33.04 48.9249 32.552V31.988C48.7809 32.116 48.5449 32.2 48.2169 32.24L47.4009 32.336C47.0009 32.384 46.7129 32.48 46.5369 32.624C46.3689 32.76 46.2849 32.96 46.2849 33.224C46.2849 33.488 46.3729 33.696 46.5489 33.848C46.7329 33.992 46.9929 34.064 47.3289 34.064ZM54.8537 28.712C54.9897 28.712 55.1137 28.72 55.2257 28.736V30.128H54.8417C54.2657 30.128 53.8217 30.276 53.5097 30.572C53.2057 30.86 53.0537 31.288 53.0537 31.856V35H51.5417V28.808H53.0057V29.912C53.3497 29.112 53.9657 28.712 54.8537 28.712ZM60.1764 29.612V26.456H61.6884V35H60.2244V34.136C59.7684 34.808 59.1164 35.144 58.2684 35.144C57.4124 35.144 56.7364 34.848 56.2404 34.256C55.7364 33.664 55.4844 32.88 55.4844 31.904C55.4844 30.912 55.7364 30.124 56.2404 29.54C56.7284 28.956 57.4044 28.664 58.2684 28.664C59.1004 28.664 59.7364 28.98 60.1764 29.612ZM57.0324 31.952C57.0324 32.592 57.1724 33.076 57.4524 33.404C57.7324 33.732 58.1204 33.896 58.6164 33.896C59.1124 33.896 59.5044 33.724 59.7924 33.38C60.0724 33.036 60.2124 32.544 60.2124 31.904C60.2124 31.264 60.0724 30.772 59.7924 30.428C59.5124 30.084 59.1204 29.912 58.6164 29.912C58.1284 29.912 57.7404 30.092 57.4524 30.452C57.1724 30.812 57.0324 31.312 57.0324 31.952Z" fill="black"/>
<defs>
<clipPath id="clip0_598_476">
<rect width="42" height="26" fill="white" transform="translate(11)"/>
</clipPath>
</defs>
</svg>
