<svg xmlns="http://www.w3.org/2000/svg" viewBox="0 0 24 24">
	<path d="m20 18.9-.2 2.5c-.1 1.2-1.4 2-2.5 1.4l-2.2-1.1H15c-4.5 1.1-9.3-.8-11.6-4.9C.3 11.3 2.5 4.4 8.3 1.9 12.7 0 18 1.3 20.9 5.2c3.1 4.2 2.7 9.9-.9 13.7 0-.1 0 0 0 0zM9.1 3.7c-4.7 2.1-6.5 7.7-4 12.1 1.9 3.3 5.8 4.9 9.4 4 .5-.1 1-.1 1.5.1l1.8.9.1-2c0-.5.2-.9.5-1.3l.1-.1c2.9-2.9 3.3-7.6.7-11C17 3.3 12.7 2.1 9.1 3.7zM18.2 21zm-.7-7.5c-.8 0-1.5-.7-1.5-1.5s.7-1.5 1.5-1.5 1.5.7 1.5 1.5-.7 1.5-1.5 1.5zm-5 0c-.8 0-1.5-.7-1.5-1.5s.7-1.5 1.5-1.5 1.5.7 1.5 1.5-.7 1.5-1.5 1.5zm-5 0c-.8 0-1.5-.7-1.5-1.5s.7-1.5 1.5-1.5S9 11.2 9 12s-.7 1.5-1.5 1.5z">
	</path>
</svg>