<svg width="28" height="28" viewBox="0 0 28 28" fill="none" xmlns="http://www.w3.org/2000/svg">
<g clip-path="url(#clip0_598_471)">
<path d="M17.5 5.25C17.9641 5.25 18.4092 5.43437 18.7374 5.76256C19.0656 6.09075 19.25 6.53587 19.25 7V21C19.25 21.4641 19.0656 21.9092 18.7374 22.2374C18.4092 22.5656 17.9641 22.75 17.5 22.75H10.5C10.0359 22.75 9.59075 22.5656 9.26256 22.2374C8.93437 21.9092 8.75 21.4641 8.75 21V7C8.75 6.53587 8.93437 6.09075 9.26256 5.76256C9.59075 5.43437 10.0359 5.25 10.5 5.25H17.5ZM10.5 3.5C9.57174 3.5 8.6815 3.86875 8.02513 4.52513C7.36875 5.1815 7 6.07174 7 7V21C7 21.9283 7.36875 22.8185 8.02513 23.4749C8.6815 24.1313 9.57174 24.5 10.5 24.5H17.5C18.4283 24.5 19.3185 24.1313 19.9749 23.4749C20.6313 22.8185 21 21.9283 21 21V7C21 6.07174 20.6313 5.1815 19.9749 4.52513C19.3185 3.86875 18.4283 3.5 17.5 3.5H10.5Z" fill="#474747"/>
<path d="M14 20.9998C14.4641 20.9998 14.9092 20.8154 15.2374 20.4872C15.5656 20.159 15.75 19.7139 15.75 19.2498C15.75 18.7857 15.5656 18.3405 15.2374 18.0124C14.9092 17.6842 14.4641 17.4998 14 17.4998C13.5359 17.4998 13.0908 17.6842 12.7626 18.0124C12.4344 18.3405 12.25 18.7857 12.25 19.2498C12.25 19.7139 12.4344 20.159 12.7626 20.4872C13.0908 20.8154 13.5359 20.9998 14 20.9998ZM2.79825 7.1013C2.89985 7.15505 2.98986 7.2283 3.06314 7.31685C3.13642 7.4054 3.19154 7.50752 3.22534 7.61738C3.25914 7.72724 3.27097 7.84269 3.26015 7.95712C3.24932 8.07155 3.21606 8.18272 3.16225 8.2843C2.23388 10.0463 1.74913 12.0082 1.75 13.9998C1.75 16.0648 2.261 18.0108 3.16225 19.7153C3.27086 19.9204 3.29352 20.1603 3.22526 20.3822C3.157 20.604 3.0034 20.7897 2.79825 20.8983C2.59311 21.0069 2.35322 21.0296 2.13136 20.9613C1.90951 20.893 1.72386 20.7394 1.61525 20.5343C0.553425 18.5199 -0.00101575 16.2769 1.39696e-06 13.9998C1.39696e-06 11.6425 0.584501 9.41654 1.61525 7.46529C1.66901 7.3637 1.74225 7.27369 1.83081 7.20041C1.91936 7.12712 2.02148 7.07201 2.13134 7.0382C2.2412 7.0044 2.35664 6.99258 2.47107 7.0034C2.5855 7.01423 2.69668 7.04749 2.79825 7.1013ZM25.2018 7.1013C25.3033 7.04749 25.4145 7.01423 25.5289 7.0034C25.6434 6.99258 25.7588 7.0044 25.8687 7.0382C25.9785 7.07201 26.0806 7.12712 26.1692 7.20041C26.2578 7.27369 26.331 7.3637 26.3848 7.46529C27.4466 9.47969 28.001 11.7227 28 13.9998C28.001 16.2769 27.4466 18.5199 26.3848 20.5343C26.2761 20.7394 26.0905 20.893 25.8686 20.9613C25.6468 21.0296 25.4069 21.0069 25.2018 20.8983C24.9966 20.7897 24.843 20.604 24.7747 20.3822C24.7065 20.1603 24.7291 19.9204 24.8378 19.7153C25.7661 17.9533 26.2509 15.9914 26.25 13.9998C26.25 11.9348 25.739 9.9888 24.8378 8.2843C24.7839 8.18272 24.7507 8.07155 24.7399 7.95712C24.729 7.84269 24.7409 7.72724 24.7747 7.61738C24.8085 7.50752 24.8636 7.4054 24.9369 7.31685C25.0101 7.2283 25.1002 7.15505 25.2018 7.1013ZM5.34975 9.6843C5.45688 9.72607 5.55473 9.78855 5.6377 9.86816C5.72067 9.94778 5.78714 10.043 5.8333 10.1483C5.87945 10.2536 5.9044 10.367 5.90671 10.4819C5.90902 10.5969 5.88864 10.7112 5.84675 10.8183C5.4517 11.8325 5.24932 12.9114 5.25 13.9998C5.25 15.1233 5.46 16.196 5.845 17.1813C5.89383 17.2894 5.92016 17.4064 5.92237 17.525C5.92459 17.6437 5.90264 17.7616 5.85788 17.8715C5.81312 17.9814 5.74646 18.081 5.66198 18.1643C5.5775 18.2477 5.47694 18.3129 5.36644 18.3562C5.25594 18.3994 5.13779 18.4198 5.01919 18.4159C4.90058 18.4121 4.784 18.3841 4.67653 18.3338C4.56906 18.2835 4.47294 18.2119 4.39403 18.1232C4.31512 18.0346 4.25506 17.9309 4.2175 17.8183C3.74287 16.6012 3.49954 15.3062 3.5 13.9998C3.5 12.654 3.75375 11.366 4.2175 10.1813C4.30188 9.96535 4.46851 9.79173 4.6808 9.69854C4.89309 9.60536 5.13369 9.60023 5.34975 9.6843ZM22.6503 9.6843C22.7573 9.6424 22.8716 9.62203 22.9866 9.62434C23.1016 9.62665 23.2149 9.65159 23.3203 9.69775C23.4256 9.74391 23.5208 9.81037 23.6004 9.89334C23.68 9.97631 23.7425 10.0742 23.7843 10.1813C24.2463 11.366 24.5 12.654 24.5 13.9998C24.5 15.3455 24.2463 16.6335 23.7825 17.8183C23.6902 18.0228 23.5229 18.1839 23.3151 18.2686C23.1073 18.3532 22.875 18.3548 22.6661 18.273C22.4572 18.1913 22.2877 18.0324 22.1926 17.8292C22.0975 17.626 22.084 17.3941 22.155 17.1813C22.54 16.196 22.75 15.1233 22.75 13.9998C22.75 12.8763 22.54 11.8035 22.155 10.8183C22.0703 10.6022 22.0749 10.3614 22.1678 10.1487C22.2606 9.93606 22.4342 9.769 22.6503 9.6843Z" fill="#474747"/>
</g>
<defs>
<clipPath id="clip0_598_471">
<rect width="28" height="28" fill="white"/>
</clipPath>
</defs>
</svg>
