<svg viewBox="0 0 24 24" xmlns="http://www.w3.org/2000/svg">
	<path fill-rule="evenodd" clip-rule="evenodd" d="m13.956 2.535 5.058 2.978C20.242 6.236 21 7.583 21 9.04v5.92c0 1.458-.758 2.804-1.986 3.527l-5.058 2.978a3.842 3.842 0 0 1-3.912 0l-5.058-2.978C3.758 17.764 3 16.417 3 14.96V9.04c0-1.458.758-2.804 1.986-3.527l5.058-2.978a3.842 3.842 0 0 1 3.912 0ZM12.978 4.3a1.92 1.92 0 0 0-1.956 0l-.34.2 5.276 3.138 1.344-.792L12.978 4.3Zm-6.28 2.546L8.7 5.665l5.275 3.138-1.487.876a.96.96 0 0 1-.978 0L6.698 6.845ZM4.97 9.04c0-.273.054-.538.152-.782l5.41 3.185c.114.067.232.126.352.176v8.002l-4.92-2.898a2.043 2.043 0 0 1-.994-1.763V9.04Zm7.885 10.727c.041-.02.082-.042.122-.066l5.057-2.978a2.043 2.043 0 0 0 .994-1.763V9.04c0-.273-.053-.538-.152-.782L16.799 9.48v3.535c0 .56-.441 1.015-.986 1.015-.544 0-.986-.455-.986-1.015v-2.374l-1.36.8c-.195.116-.4.206-.61.272v8.053Z">
	</path>
</svg>