<svg
    viewBox="0 0 36 36"
    fill="none"
    xmlns="http://www.w3.org/2000/svg"
  >
    <path
      fill-rule="evenodd"
      clip-rule="evenodd"
      d="M13.9514 3.30583L13.7128 3.41316C12.1736 4.10498 10.8259 4.72444 9.23184 5.45715L8.4771 5.804C7.04503 6.46193 5.83457 7.01805 4.89547 7.63559C3.88036 8.30312 3.10448 9.08863 2.57846 10.2353C1.57708 12.4182 2.05057 14.1397 2.68708 16.4538L2.74576 16.6673C5.02635 24.9749 10.9876 30.302 14.564 32.8666L14.6956 32.9611C15.7761 33.7374 16.7014 34.4021 18.2005 34.4C19.6997 34.3979 20.6241 33.7299 21.7035 32.9498L21.8353 32.8546C25.405 30.2798 31.3615 24.9404 33.6489 16.6684L33.7076 16.4564C34.3478 14.1456 34.8241 12.4264 33.8233 10.2394C32.8209 8.04871 30.8564 7.14797 28.1835 5.92241L27.1707 5.45719C25.5765 4.72442 24.229 4.10503 22.6897 3.41316L22.4511 3.30584C20.762 2.54561 19.5498 2 18.2012 2C16.8527 2 15.6404 2.5456 13.9514 3.30583ZM14.8245 5.97194C16.8482 5.06236 17.5037 4.79749 18.2012 4.79749C18.8987 4.79749 19.5543 5.06237 21.5779 5.97194C23.1059 6.6587 24.4425 7.27309 26.0375 8.00623L26.7039 8.31247C28.2887 9.04063 29.3145 9.53004 30.0131 9.98503C30.7052 10.4358 31.0679 10.8476 31.3298 11.4199C31.6011 12.0129 31.6937 12.4928 31.6343 13.1395C31.574 13.7962 31.3574 14.6228 31.0012 15.911C28.9623 23.2842 23.5999 28.1523 20.2443 30.5727C19.624 31.0201 19.2531 31.2767 18.9634 31.4232C18.6828 31.5651 18.4814 31.6021 18.1967 31.6025C17.912 31.6029 17.7105 31.5665 17.4299 31.4257C17.1402 31.2803 16.7693 31.0252 16.1489 30.5802C12.7913 28.1725 7.42743 23.3191 5.39486 15.915C5.04042 14.6238 4.82494 13.7951 4.76533 13.1375C4.70662 12.4897 4.79953 12.0098 5.07093 11.4182C5.32976 10.854 5.70015 10.4377 6.3888 9.98485C7.13422 9.49467 8.1543 9.02202 9.69858 8.31247L10.3648 8.0063C11.9598 7.27314 13.2965 6.65873 14.8245 5.97194Z"
      fill="#3DD2BA"
    />
    <path
      fill-rule="evenodd"
      clip-rule="evenodd"
      d="M24.3765 12.6741C24.9623 13.126 25.0709 13.9672 24.619 14.553L18.7522 22.158C18.7398 22.174 18.7273 22.1903 18.7147 22.2066C18.5111 22.4708 18.2809 22.7695 18.0514 22.9934C17.7808 23.2574 17.3453 23.5865 16.7162 23.6176C16.087 23.6488 15.6211 23.3643 15.3257 23.1283C15.0753 22.9282 14.8167 22.6537 14.588 22.4109C14.5739 22.3959 14.5598 22.381 14.5459 22.3662L11.867 19.5249C11.3594 18.9866 11.3844 18.1388 11.9226 17.6313C12.4609 17.1237 13.3088 17.1487 13.8163 17.687L16.4952 20.5282C16.5202 20.5548 16.5441 20.5801 16.567 20.6043C16.5874 20.5779 16.6086 20.5504 16.6309 20.5215L22.4976 12.9165C22.9495 12.3307 23.7907 12.2222 24.3765 12.6741Z"
      fill="#3DD2BA"
    />
  </svg>