<svg width="24" height="24" viewBox="0 0 24 24" fill="none" xmlns="http://www.w3.org/2000/svg">
<path fill-rule="evenodd" clip-rule="evenodd" d="M12.001 1.80005C11.113 1.80005 10.3133 2.16001 9.16697 2.67594L9.0199 2.7421C7.98614 3.20675 7.08116 3.62273 6.01012 4.11503L5.50822 4.34569C4.54181 4.78969 3.73333 5.16113 3.10771 5.57254C2.43572 6.01443 1.92665 6.531 1.58122 7.28401C0.921206 8.7228 1.23196 9.85263 1.66173 11.4152L1.69828 11.5481C3.22311 17.1027 7.21029 20.6675 9.60631 22.3857L9.68839 22.4446C10.4182 22.9689 11.0204 23.4015 12.0004 23.4002C12.9805 23.3988 13.5821 22.964 14.3112 22.4372L14.3934 22.3778C16.7851 20.6527 20.7691 17.0796 22.2986 11.5487L22.3351 11.4167C22.7674 9.85644 23.08 8.7282 22.4203 7.28669C21.7598 5.84328 20.4663 5.25016 18.6545 4.4194L17.9921 4.1151C16.921 3.62277 16.0159 3.20677 14.9821 2.7421L14.8351 2.67594C13.6888 2.16001 12.889 1.80005 12.001 1.80005ZM16.3128 10.1498C16.6164 9.75622 16.5435 9.19106 16.1499 8.88745C15.7564 8.58385 15.1912 8.65677 14.8876 9.05033L10.9031 14.2154L9.05503 12.2554C8.71404 11.8937 8.14444 11.877 7.78279 12.218C7.42113 12.5589 7.40438 13.1285 7.74537 13.4902L9.57352 15.4292C9.72716 15.5923 9.90086 15.7767 10.0692 15.9112C10.2676 16.0697 10.5806 16.2608 11.0033 16.2399C11.426 16.219 11.7186 15.9979 11.9004 15.8205C12.0546 15.6701 12.2092 15.4694 12.346 15.2919L16.3128 10.1498Z" fill="#29965A"/>
</svg>
