<svg viewBox="0 0 24 24" xmlns="http://www.w3.org/2000/svg">
	<path d="M7 8a1 1 0 1 0 0-2 1 1 0 0 0 0 2Z"></path>
	<path fill-rule="evenodd" clip-rule="evenodd" d="M2 5a3 3 0 0 1 3-3h5.342c1.06 0 2.08.418 2.827 1.186a1612.95 1612.95 0 0 1 7.7 8.006 3.995 3.995 0 0 1-.064 5.589l-4.025 4.025a3.994 3.994 0 0 1-5.581.07c-2.304-2.197-5.941-5.674-8.014-7.703A3.956 3.956 0 0 1 2 10.343V5Zm3-1a1 1 0 0 0-1 1v5.342c0 .532.21 1.036.584 1.402 2.062 2.017 5.69 5.486 7.995 7.684a1.994 1.994 0 0 0 2.787-.037l4.025-4.024c.77-.77.784-2.009.034-2.792-2.27-2.37-5.864-6.12-7.689-7.994A1.935 1.935 0 0 0 10.342 4H5Z">
	</path>
</svg>