<svg width="18" height="18" viewBox="0 0 18 18" fill="none" xmlns="http://www.w3.org/2000/svg">
<g clip-path="url(#clip0_885_259)">
<path d="M9 1.25C13.41 1.25 17 4.39 17 8.25C17 12.11 13.41 15.25 9 15.25C8.17493 15.249 7.3539 15.1346 6.56 14.91L3.795 16.67C3.71952 16.7184 3.6324 16.7457 3.54277 16.7489C3.45314 16.752 3.36431 16.7311 3.28557 16.6881C3.20684 16.6452 3.14111 16.5818 3.09526 16.5048C3.04942 16.4277 3.02515 16.3397 3.025 16.25V12.885C2.39938 12.2848 1.90014 11.5656 1.55666 10.7696C1.21319 9.97358 1.03242 9.11691 1.025 8.25C1 4.39 4.59 1.25 9 1.25ZM3.855 12.305C3.90527 12.3516 3.94541 12.4081 3.97294 12.4709C4.00046 12.5337 4.01478 12.6014 4.015 12.67V15.34L6.205 13.945C6.26609 13.9064 6.33482 13.8815 6.40647 13.872C6.47811 13.8625 6.55096 13.8686 6.62 13.89C7.39064 14.1293 8.19305 14.2507 9 14.25C12.86 14.25 16 11.56 16 8.25C16 4.94 12.86 2.25 9 2.25C5.14 2.25 2 4.94 2 8.25C2.0114 9.01754 2.18218 9.77433 2.5015 10.4724C2.82083 11.1704 3.28174 11.7945 3.855 12.305Z" fill="white"/>
<path d="M9.00002 10.315C8.86741 10.315 8.74024 10.2623 8.64647 10.1685C8.5527 10.0748 8.50002 9.9476 8.50002 9.81499V4.23999C8.50002 4.10738 8.5527 3.98021 8.64647 3.88644C8.74024 3.79267 8.86741 3.73999 9.00002 3.73999C9.13263 3.73999 9.25981 3.79267 9.35358 3.88644C9.44734 3.98021 9.50002 4.10738 9.50002 4.23999V9.80499C9.50135 9.87149 9.4894 9.93758 9.46487 9.9994C9.44034 10.0612 9.40372 10.1175 9.35716 10.165C9.3106 10.2125 9.25503 10.2502 9.1937 10.276C9.13238 10.3017 9.06653 10.315 9.00002 10.315Z" fill="white"/>
<path d="M9.00004 12.685C8.63277 12.685 8.33504 12.3873 8.33504 12.02C8.33504 11.6527 8.63277 11.355 9.00004 11.355C9.36731 11.355 9.66504 11.6527 9.66504 12.02C9.66504 12.3873 9.36731 12.685 9.00004 12.685Z" fill="white"/>
</g>
<defs>
<clipPath id="clip0_885_259">
<rect width="18" height="18" fill="white" transform="matrix(-1 0 0 1 18 0)"/>
</clipPath>
</defs>
</svg>
