<svg width="208" height="208" viewBox="0 0 208 208" fill="none" xmlns="http://www.w3.org/2000/svg" aria-hidden="true" class="nbe-web-view-new-login__img" style="" focusable="false" role="presentation" tabindex="-1"><path fill-rule="evenodd" clip-rule="evenodd" d="M45.2619 168.673C45.2619 168.673 72.0047 181.564 78.3572 164.03C84.7092 146.496 65.064 134.787 72.575 114.585C76.4693 99.7875 58.4197 93.9733 45.5311 100.928C36.4173 105.847 29.1446 117.352 26.6414 128.948C24.1381 140.545 29.0103 163.364 45.2619 168.673Z" fill="#C5F7E0"></path><path fill-rule="evenodd" clip-rule="evenodd" d="M109.601 20.3781C109.601 20.3781 120.5 27.0337 147.652 29.4902C174.806 31.9479 177.881 53.4457 173.87 65.5551C169.859 77.6651 170.914 85.6973 177.112 99.5415C183.311 113.384 182.687 125.639 170.933 132.026C159.178 138.414 132.469 148.955 124.162 88.5947C119.452 72.6176 93.6883 72.7165 93.6883 72.7165C93.6883 72.7165 60.3586 72.2916 60.8716 41.5617C61.3845 10.8312 86.0382 8.68823 109.601 20.3781Z" fill="#C5F7E0"></path><path fill-rule="evenodd" clip-rule="evenodd" d="M67.5599 37.043H144.19C145.678 37.043 148.682 39.9107 148.851 43.5547L154.886 173.812C155.043 177.209 152.33 180.05 148.93 180.05H54.6447C51.377 180.05 48.7909 177.288 49.0051 174.028L57.5113 44.431C57.7846 40.2752 61.2352 37.043 67.5599 37.043Z" fill="#B6FF00"></path><path fill-rule="evenodd" clip-rule="evenodd" d="M149.1 43.485C148.931 39.8416 145.928 36.9739 142.28 36.9739H136.206C139.854 36.9739 142.857 39.8416 143.026 43.485L149.062 173.742C149.219 177.14 146.507 179.98 143.106 179.98H149.18C152.58 179.98 155.293 177.14 155.135 173.742L149.1 43.485Z" fill="#82BB2E"></path><path fill-rule="evenodd" clip-rule="evenodd" d="M59.1003 53.6077H140.266L145.788 168.455H51.9224C51.9224 168.455 59.1003 54.1603 59.1003 53.6077Z" fill="#29A48D"></path><path fill-rule="evenodd" clip-rule="evenodd" d="M104.929 44.2218H90.573C90.2683 44.2218 90.021 43.9745 90.021 43.6692C90.021 43.3645 90.2683 43.1172 90.573 43.1172H104.929C105.234 43.1172 105.482 43.3645 105.482 43.6692C105.482 43.9745 105.234 44.2218 104.929 44.2218Z" fill="#29A48D"></path><path fill-rule="evenodd" clip-rule="evenodd" d="M112.63 84.5957L111.951 83.7248L127.042 71.9456L127.722 72.8165L112.63 84.5957Z" fill="#66D8B3"></path><path fill-rule="evenodd" clip-rule="evenodd" d="M95.3572 113.653L94.6235 112.827L134.01 77.8579L134.744 78.6839L95.3572 113.653Z" fill="#66D8B3"></path><path fill-rule="evenodd" clip-rule="evenodd" d="M166.39 54.6109C166.39 56.5255 164.838 58.078 162.923 58.078C161.008 58.078 159.456 56.5255 159.456 54.6109C159.456 52.6957 161.008 51.1438 162.923 51.1438C164.838 51.1438 166.39 52.6957 166.39 54.6109Z" fill="#66D8B3"></path><path fill-rule="evenodd" clip-rule="evenodd" d="M40.5908 138.477C40.5908 140.392 39.0383 141.945 37.1237 141.945C35.2085 141.945 33.656 140.392 33.656 138.477C33.656 136.562 35.2085 135.01 37.1237 135.01C39.0383 135.01 40.5908 136.562 40.5908 138.477Z" fill="#66D8B3"></path><path fill-rule="evenodd" clip-rule="evenodd" d="M164.95 117.961C164.95 119.875 163.398 121.428 161.483 121.428C159.568 121.428 158.016 119.875 158.016 117.961C158.016 116.046 159.568 114.493 161.483 114.493C163.398 114.493 164.95 116.046 164.95 117.961Z" fill="#29A48D"></path><path fill-rule="evenodd" clip-rule="evenodd" d="M179.84 34.1072C179.771 34.1072 179.701 34.0948 179.633 34.067L172.934 31.3667C172.652 31.2531 172.515 30.9306 172.629 30.6478C172.743 30.3656 173.065 30.2277 173.348 30.3419L180.047 33.0416C180.33 33.1564 180.466 33.4783 180.352 33.7611C180.266 33.9764 180.058 34.1072 179.84 34.1072Z" fill="#29A48D"></path><path fill-rule="evenodd" clip-rule="evenodd" d="M175.929 36.2569C175.888 36.2569 175.846 36.2522 175.804 36.2433C175.507 36.1741 175.322 35.8777 175.39 35.5807L177.059 28.3311C177.127 28.0335 177.424 27.8489 177.721 27.9158C178.018 27.985 178.204 28.2814 178.136 28.5778L176.467 35.828C176.409 36.0842 176.181 36.2569 175.929 36.2569Z" fill="#29A48D"></path><path fill-rule="evenodd" clip-rule="evenodd" d="M170.434 148.037C170.365 148.037 170.295 148.025 170.227 147.998L163.528 145.297C163.245 145.183 163.108 144.861 163.222 144.578C163.336 144.295 163.659 144.158 163.941 144.272L170.641 146.972C170.923 147.086 171.06 147.408 170.946 147.691C170.86 147.906 170.652 148.037 170.434 148.037Z" fill="#29A48D"></path><path fill-rule="evenodd" clip-rule="evenodd" d="M166.523 150.187C166.482 150.187 166.44 150.182 166.399 150.174C166.101 150.105 165.916 149.808 165.984 149.511L167.652 142.261C167.72 141.964 168.019 141.78 168.314 141.846C168.612 141.915 168.798 142.212 168.73 142.509L167.061 149.759C167.003 150.014 166.775 150.187 166.523 150.187Z" fill="#29A48D"></path><path fill-rule="evenodd" clip-rule="evenodd" d="M46.3019 63.0824C46.2332 63.0824 46.1634 63.0694 46.0954 63.0421L39.3961 60.3418C39.1138 60.2282 38.9766 59.9064 39.0908 59.623C39.205 59.3402 39.5262 59.2029 39.8096 59.3171L46.5089 62.0168C46.7917 62.1316 46.929 62.4534 46.8148 62.7363C46.7284 62.951 46.5208 63.0824 46.3019 63.0824Z" fill="#29A48D"></path><path fill-rule="evenodd" clip-rule="evenodd" d="M42.3912 65.2322C42.3504 65.2322 42.3084 65.2275 42.267 65.2186C41.9694 65.1494 41.7842 64.8529 41.8522 64.5559L43.5207 57.3058C43.5887 57.0088 43.8869 56.8236 44.1827 56.8911C44.4803 56.9597 44.6661 57.2561 44.5975 57.5531L42.929 64.8032C42.8704 65.0594 42.6433 65.2322 42.3912 65.2322Z" fill="#29A48D"></path><path fill-rule="evenodd" clip-rule="evenodd" d="M73.2497 191.23C73.1811 191.23 73.1113 191.218 73.0426 191.19L66.3439 188.49C66.0611 188.376 65.9238 188.054 66.038 187.771C66.1522 187.488 66.4747 187.351 66.7569 187.465L73.4568 190.165C73.739 190.28 73.8763 190.601 73.7621 190.884C73.6757 191.1 73.468 191.23 73.2497 191.23Z" fill="#29A48D"></path><path fill-rule="evenodd" clip-rule="evenodd" d="M69.3389 193.38C69.2981 193.38 69.2561 193.376 69.2146 193.367C68.917 193.298 68.7324 193.001 68.8005 192.704L70.4684 185.455C70.537 185.157 70.8352 184.972 71.1304 185.039C71.428 185.108 71.6138 185.405 71.5452 185.701L69.8767 192.951C69.8181 193.208 69.5909 193.38 69.3389 193.38Z" fill="#29A48D"></path><path fill-rule="evenodd" clip-rule="evenodd" d="M44.6824 121.74C44.6824 122.933 43.7156 123.899 42.5234 123.899C41.33 123.899 40.3633 122.933 40.3633 121.74C40.3633 120.547 41.33 119.581 42.5234 119.581C43.7156 119.581 44.6824 120.547 44.6824 121.74Z" fill="white"></path><path fill-rule="evenodd" clip-rule="evenodd" d="M170.121 101.403C170.121 102.597 169.155 103.563 167.962 103.563C166.769 103.563 165.802 102.597 165.802 101.403C165.802 100.21 166.769 99.2437 167.962 99.2437C169.155 99.2437 170.121 100.21 170.121 101.403Z" fill="#345959"></path><path fill-rule="evenodd" clip-rule="evenodd" d="M44.1424 157.554C44.1424 158.747 43.1751 159.713 41.9829 159.713C40.7901 159.713 39.8228 158.747 39.8228 157.554C39.8228 156.361 40.7901 155.395 41.9829 155.395C43.1751 155.395 44.1424 156.361 44.1424 157.554Z" fill="#345959"></path></svg>