<svg width="208" height="208" viewBox="0 0 208 208" fill="none" xmlns="http://www.w3.org/2000/svg" aria-hidden="true" class="nbe-web-view-new-login__img" style="" focusable="false" role="presentation" tabindex="-1"><path d="M31.3262 16H176.706V185.489H31.3262V16Z" fill="var(--background-default, 'white')"></path><path fill-rule="evenodd" clip-rule="evenodd" d="M134.033 161.621C134.033 161.621 157.657 181.763 168.739 165.716C179.822 149.669 163.062 132.607 176.025 114.17C183.895 100.238 167.184 89.5635 152.3 93.1745C141.776 95.7278 131.364 105.432 125.752 116.497C120.139 127.561 119.006 151.935 134.033 161.621Z" fill="#C5F7E0"></path><path fill-rule="evenodd" clip-rule="evenodd" d="M35.5291 126.532C35.5291 126.532 41.9285 111.247 39.7542 75.9358C37.5798 40.6246 64.5523 32.4621 80.8721 35.2321C97.1924 38.0026 107.289 35.0738 123.83 24.4071C140.371 13.741 156.213 12.1363 166.712 25.961C177.211 39.7864 195.972 71.9787 120.175 94.4737C100.605 103.649 105.786 136.677 105.786 136.677C105.786 136.677 111.779 179.514 72.2607 184.884C32.7418 190.253 25.1576 159.05 35.5291 126.532Z" fill="#C5F7E0"></path><path fill-rule="evenodd" clip-rule="evenodd" d="M146.529 167.935H65.4179C61.7018 167.935 58.7903 164.741 59.134 161.04L64.2297 106.185C64.6057 102.144 67.9966 99.054 72.0553 99.054H140.043C144.151 99.054 147.566 102.217 147.879 106.313L152.131 161.888C152.38 165.15 149.801 167.935 146.529 167.935Z" fill="white"></path><path fill-rule="evenodd" clip-rule="evenodd" d="M152.252 161.874L148 106.299C147.687 102.204 144.272 99.0403 140.164 99.0403H123.388C127.496 99.0403 130.911 102.204 131.225 106.299L135.476 161.874C135.726 165.137 133.146 167.921 129.874 167.921H146.65C149.922 167.921 152.501 165.137 152.252 161.874Z" fill="#96D434"></path><path fill-rule="evenodd" clip-rule="evenodd" d="M87.9055 99.2418H83.2842V78.4307C82.7106 69.8864 85.1593 62.2178 90.1844 56.8316C94.7064 51.985 100.963 49.3162 107.802 49.3162C121.944 49.3162 133.45 60.8216 133.45 74.9641V99.0535H128.828V74.9641C128.828 63.3697 119.396 53.9375 107.802 53.9375C102.259 53.9375 97.202 56.0853 93.5638 59.984C89.4063 64.4407 87.3943 70.9065 87.8998 78.1915L87.9055 78.3515V99.2418Z" fill="#345959"></path><path fill-rule="evenodd" clip-rule="evenodd" d="M102.156 114.863C108.184 114.863 113.071 119.75 113.071 125.778C113.071 130.47 110.108 134.461 105.953 136.004C105.694 136.207 105.544 136.318 105.544 136.318L108.179 152.126L91.9935 152.126L96.8862 135.565C96.3068 135.139 95.7864 134.707 95.3192 134.273C93.3176 132.665 91.8947 130.368 91.4163 127.739C91.2764 127.066 91.2381 126.53 91.2314 126.19L91.231 125.984C91.2333 125.85 91.2401 125.778 91.2401 125.778C91.2401 123.939 91.695 122.206 92.4984 120.686L92.6356 120.434C92.8226 120.102 93.0266 119.78 93.2464 119.47L93.414 119.24C93.7553 118.785 94.1314 118.357 94.5383 117.96L94.7444 117.764C94.9217 117.6 95.1045 117.442 95.2924 117.29C95.3995 117.203 95.5078 117.119 95.6176 117.037L95.8478 116.869C97.6291 115.605 99.8057 114.863 102.156 114.863Z" fill="#345959"></path><path fill-rule="evenodd" clip-rule="evenodd" d="M145.304 39.2068C145.304 41.2096 143.681 42.8323 141.678 42.8323C139.676 42.8323 138.052 41.2096 138.052 39.2068C138.052 37.2041 139.676 35.5808 141.678 35.5808C143.681 35.5808 145.304 37.2041 145.304 39.2068Z" fill="#345959"></path><path fill-rule="evenodd" clip-rule="evenodd" d="M25.033 103.889C24.8042 103.889 24.5876 103.753 24.4969 103.527L21.6779 96.5197C21.5589 96.2234 21.7021 95.8872 21.9985 95.7682C22.2942 95.6498 22.6316 95.7925 22.75 96.0888L25.569 103.096C25.688 103.392 25.5448 103.728 25.2484 103.847C25.178 103.876 25.1046 103.889 25.033 103.889Z" fill="#29A48D"></path><path fill-rule="evenodd" clip-rule="evenodd" d="M20.5784 102.498C20.3814 102.498 20.1902 102.398 20.0821 102.217C19.9181 101.944 20.0076 101.589 20.2809 101.425L26.9564 97.4292C27.2308 97.2657 27.5849 97.3552 27.7484 97.6279C27.9124 97.9017 27.8235 98.2564 27.5497 98.4204L20.8747 102.416C20.7817 102.472 20.6794 102.498 20.5784 102.498Z" fill="#29A48D"></path><path fill-rule="evenodd" clip-rule="evenodd" d="M67.714 76.156C67.6418 76.156 67.569 76.1427 67.4979 76.1144L60.4925 73.2907C60.1968 73.1711 60.0535 72.8349 60.1725 72.5386C60.2921 72.2434 60.6294 72.1013 60.9246 72.2191L67.93 75.0422C68.2264 75.1618 68.369 75.498 68.25 75.7943C68.1593 76.0196 67.9427 76.156 67.714 76.156Z" fill="white"></path><path fill-rule="evenodd" clip-rule="evenodd" d="M63.6254 78.4049C63.5826 78.4049 63.5393 78.4003 63.4954 78.3905C63.184 78.3189 62.9905 78.0087 63.0616 77.6973L64.8067 70.1154C64.8783 69.8052 65.1885 69.6111 65.4987 69.6821C65.8101 69.7538 66.0036 70.064 65.9326 70.3753L64.188 77.9572C64.1262 78.2241 63.8888 78.4049 63.6254 78.4049Z" fill="white"></path><path fill-rule="evenodd" clip-rule="evenodd" d="M138.606 184.206C138.377 184.206 138.161 184.07 138.07 183.844L135.251 176.837C135.132 176.541 135.275 176.205 135.572 176.086C135.868 175.967 136.204 176.11 136.323 176.406L139.142 183.413C139.261 183.71 139.117 184.046 138.821 184.165C138.751 184.193 138.678 184.206 138.606 184.206Z" fill="#29A48D"></path><path fill-rule="evenodd" clip-rule="evenodd" d="M134.15 182.816C133.954 182.816 133.763 182.716 133.655 182.535C133.49 182.262 133.58 181.907 133.853 181.743L140.528 177.747C140.803 177.584 141.158 177.673 141.321 177.946C141.485 178.22 141.396 178.574 141.122 178.738L134.447 182.734C134.354 182.79 134.252 182.816 134.15 182.816Z" fill="#29A48D"></path><path fill-rule="evenodd" clip-rule="evenodd" d="M185.148 134.869C184.92 134.869 184.703 134.732 184.612 134.506L181.794 127.499C181.675 127.203 181.818 126.867 182.114 126.748C182.41 126.629 182.747 126.772 182.866 127.068L185.684 134.075C185.803 134.372 185.66 134.708 185.364 134.827C185.293 134.855 185.22 134.869 185.148 134.869Z" fill="#29A48D"></path><path fill-rule="evenodd" clip-rule="evenodd" d="M180.693 133.478C180.496 133.478 180.305 133.377 180.197 133.197C180.033 132.923 180.122 132.568 180.395 132.404L187.071 128.409C187.346 128.245 187.699 128.335 187.863 128.607C188.027 128.881 187.938 129.236 187.664 129.4L180.989 133.396C180.896 133.451 180.794 133.478 180.693 133.478Z" fill="#29A48D"></path><path fill-rule="evenodd" clip-rule="evenodd" d="M157.516 51.3198C157.316 51.3198 157.122 51.2164 157.015 51.0315C156.855 50.7548 156.95 50.4019 157.226 50.2424L163.763 46.4587C164.039 46.2981 164.392 46.3934 164.553 46.669C164.712 46.9457 164.618 47.2986 164.341 47.4581L157.804 51.2418C157.714 51.295 157.614 51.3198 157.516 51.3198Z" fill="#29A48D"></path><path fill-rule="evenodd" clip-rule="evenodd" d="M163.162 52.7534C162.994 52.7534 162.827 52.6806 162.713 52.5396L157.811 46.4978C157.611 46.25 157.648 45.886 157.896 45.6856C158.144 45.4846 158.508 45.5215 158.709 45.7699L163.61 51.8118C163.811 52.0596 163.773 52.4235 163.526 52.624C163.418 52.7112 163.29 52.7534 163.162 52.7534Z" fill="#29A48D"></path><path fill-rule="evenodd" clip-rule="evenodd" d="M101.404 88.1387C101.404 89.5938 100.224 90.7734 98.7689 90.7734C97.3138 90.7734 96.1348 89.5938 96.1348 88.1387C96.1348 86.6829 97.3138 85.5039 98.7689 85.5039C100.224 85.5039 101.404 86.6829 101.404 88.1387Z" fill="#29A48D"></path><path fill-rule="evenodd" clip-rule="evenodd" d="M47.9547 141.211C47.9547 142.666 46.7751 143.846 45.32 143.846C43.8654 143.846 42.6858 142.666 42.6858 141.211C42.6858 139.756 43.8654 138.576 45.32 138.576C46.7751 138.576 47.9547 139.756 47.9547 141.211Z" fill="#29A48D"></path><path fill-rule="evenodd" clip-rule="evenodd" d="M60.6678 56.9796C61.246 55.0623 63.2685 53.9769 65.1857 54.5546C67.1036 55.1322 68.1896 57.1552 67.6114 59.0725C67.0337 60.9898 65.0107 62.0752 63.0934 61.4976C61.1761 60.9199 60.0901 58.8969 60.6678 56.9796Z" fill="#66D8B3"></path><path fill-rule="evenodd" clip-rule="evenodd" d="M103.076 180.438C103.653 178.521 105.676 177.435 107.593 178.013C109.511 178.59 110.597 180.613 110.019 182.531C109.441 184.448 107.418 185.534 105.501 184.956C103.583 184.378 102.497 182.355 103.076 180.438Z" fill="#66D8B3"></path><path fill-rule="evenodd" clip-rule="evenodd" d="M157.78 123.98C158.357 122.063 160.38 120.977 162.298 121.554C164.215 122.132 165.301 124.155 164.723 126.072C164.146 127.99 162.123 129.076 160.205 128.497C158.288 127.92 157.202 125.897 157.78 123.98Z" fill="#66D8B3"></path></svg>