<svg width="127" height="21" viewBox="0 0 127 21" fill="none" xmlns="http://www.w3.org/2000/svg">
<g clip-path="url(#clip0_796_554)">
<path d="M100.123 17.5121C96.3418 17.5121 93.3463 14.3089 93.3463 10.3312C93.3463 6.09549 96.2807 3.49448 100.001 3.49448C101.817 3.49448 104.311 4.1828 104.311 5.66532V7.10147H107.795V4.54678C107.795 1.08541 102.583 0 99.9132 0C93.8815 0 89.3682 4.46076 89.3682 10.3312C89.3682 16.3341 93.6988 21 100.055 21C103.064 21 105.328 19.9013 106.744 18.9417L104.901 16.0561C103.83 16.7643 102.19 17.5121 100.123 17.5121Z" fill="#5B87DA"/>
<path d="M33.1719 3.51457H31.2676V0.337769H40.2605C44.015 0.337769 46.7121 2.22399 46.7121 5.57948C46.7121 7.83633 45.4515 9.29898 44.1913 9.92773V9.9873C46.4479 10.6492 47.5323 12.7074 47.5323 14.7658C47.5323 18.8294 44.2181 20.6561 40.3486 20.6561H35.1643C33.7886 20.6561 33.1719 20.0803 33.1719 18.7103V3.51457ZM40.2876 8.63716C41.9004 8.63716 42.8085 7.49222 42.8085 6.03615C42.8085 4.5735 41.9276 3.51457 40.2267 3.51457H37.0076V8.63716H40.2876ZM37.6514 17.4859H40.6401C42.5171 17.4859 43.5677 16.2549 43.5677 14.5407C43.5677 12.8531 42.4833 11.622 40.6401 11.622H37.0076V16.8572C37.0076 17.2543 37.2448 17.4859 37.6514 17.4859Z" fill="#5B87DA"/>
<path d="M5.96289 20.6558H8.694L16.2503 0.344116H13.5191L5.96289 20.6558Z" fill="#5B87DA"/>
<path d="M0 20.6558H2.73788L10.2942 0.344116H7.56305L0 20.6558Z" fill="#5B87DA"/>
<path d="M30.5507 17.4856C30.056 17.4856 29.8187 17.3665 29.6426 16.8569L23.4959 0.344116H19.4772L11.9209 20.6624H14.2319C15.6956 20.6624 16.1971 20.2918 16.6648 19.0012L17.9524 15.4472H24.98L26.2744 19.0012C26.742 20.2852 27.2706 20.6624 28.7344 20.6624H31.5807V17.4856H30.5507ZM18.8334 12.363L20.6225 7.26691C21.002 6.15504 21.4425 4.2291 21.4425 4.2291H21.5035C21.5035 4.2291 21.944 6.15504 22.3235 7.26691L24.1126 12.363H18.8334Z" fill="#5B87DA"/>
<path d="M84.4745 0.344387C83.0718 0.344387 82.4824 0.946657 82.4824 2.29018V11.589C82.4824 12.7604 82.6855 14.4481 82.6855 14.4481H82.6314C82.6314 14.4481 81.7232 12.7604 80.903 11.589L73.0217 0.337769H69.5654V20.6561H71.4086C72.8117 20.6561 73.4011 20.0803 73.4011 18.7103V9.44461C73.4011 8.27317 73.191 6.5855 73.191 6.5855H73.2521C73.2521 6.5855 74.1602 8.29963 74.98 9.44461L82.8955 20.6627H86.318V4.14994C86.318 3.74622 86.5553 3.51457 86.9685 3.51457H88.2291V0.337769H84.4745V0.344387Z" fill="#5B87DA"/>
<path d="M66.5031 17.4856C66.0016 17.4856 65.7712 17.3665 65.5949 16.8569L59.4346 0.344116H55.4227L47.8662 20.6624H50.184C51.6477 20.6624 52.1427 20.2918 52.6169 19.0012L53.8979 15.4472H60.9322L62.2201 19.0012C62.6874 20.2852 63.2161 20.6624 64.6799 20.6624H67.5264V17.4856H66.5031ZM54.7788 12.363L56.5682 7.26691C56.9475 6.15504 57.388 4.2291 57.388 4.2291H57.449C57.449 4.2291 57.8894 6.15504 58.2688 7.26691L60.0582 12.363H54.7788Z" fill="#5B87DA"/>
<path d="M125.97 17.4856C125.468 17.4856 125.238 17.3665 125.062 16.8569L118.908 0.344116H114.89L107.333 20.6624H109.644C111.108 20.6624 111.609 20.2918 112.077 19.0012L113.365 15.4472H120.399L121.686 19.0012C122.154 20.2852 122.683 20.6624 124.147 20.6624H127V17.4856H125.97ZM114.246 12.363L116.035 7.26691C116.414 6.15504 116.855 4.2291 116.855 4.2291H116.909C116.909 4.2291 117.349 6.15504 117.729 7.26691L119.518 12.363H114.246Z" fill="#5B87DA"/>
</g>
<defs>
<clipPath id="clip0_796_554">
<rect width="127" height="21" fill="white"/>
</clipPath>
</defs>
</svg>
