<svg width="80" height="26" viewBox="0 0 80 26" fill="none" xmlns="http://www.w3.org/2000/svg">
<g clip-path="url(#clip0_761_1313)">
<path d="M57.6262 3.52837L50.7462 17.7286C50.5996 18.0323 50.1729 18.0323 50.0262 17.7286L43.1462 3.52837C43.0796 3.38376 42.9462 3.297 42.7996 3.297H39.4662C39.2396 3.297 39.0929 3.55729 39.1996 3.77419L50.0396 25.7831C50.1862 26.0868 50.5862 26.0868 50.7462 25.7831L61.5862 3.77419C61.6929 3.55729 61.5462 3.297 61.3196 3.297H57.9862C57.8262 3.297 57.6929 3.38376 57.6262 3.52837Z" fill="#0047FF"/>
<path d="M61.5336 22.4861L68.4136 8.28592C68.5603 7.98225 68.9869 7.98225 69.1336 8.28592L76.0136 22.4861C76.0803 22.6308 76.2136 22.7175 76.3603 22.7175H79.6936C79.9203 22.7175 80.0669 22.4572 79.9603 22.2403L69.1203 0.231415C68.9736 -0.0722556 68.5736 -0.0722556 68.4136 0.231415L57.5736 22.2403C57.4669 22.4572 57.6136 22.7175 57.8403 22.7175H61.1736C61.3203 22.7031 61.4669 22.6163 61.5336 22.4861Z" fill="#0047FF"/>
<path d="M14.5067 13.7665C15.9467 12.9856 16.84 11.2937 16.84 9.22586C16.84 5.68304 14.2933 3.28259 10.7067 3.28259H0.4C0.173333 3.28259 0 3.47058 0 3.71641V25.5662C0 25.8121 0.173333 26.0001 0.4 26.0001H10.2667C15.2 26.0001 17.8 23.7008 17.8 19.1892C17.8 14.7932 14.5067 13.7665 14.5067 13.7665ZM3.86667 6.57959H9.98667C12.24 6.57959 13.3867 7.62075 13.3867 9.55845C13.3867 11.4962 12.24 12.5373 9.98667 12.5373H3.86667C3.65333 12.5373 3.46667 12.3493 3.46667 12.1035V7.0134C3.46667 6.76758 3.64 6.57959 3.86667 6.57959ZM10.0667 22.7031H3.86667C3.64 22.7031 3.46667 22.5151 3.46667 22.2692V16.2392C3.46667 16.0078 3.64 15.8054 3.86667 15.8054H10.0667C13.0267 15.8054 14.3467 16.7164 14.3467 19.247C14.3333 21.8065 13.0533 22.7031 10.0667 22.7031Z" fill="#0047FF"/>
<path d="M35.6665 13.7665C37.1065 12.9856 37.9998 11.2937 37.9998 9.22586C37.9998 5.68304 35.4532 3.28259 31.8665 3.28259H21.5465C21.3198 3.28259 21.1465 3.47058 21.1465 3.71641V25.5662C21.1465 25.8121 21.3198 26.0001 21.5465 26.0001H31.4132C36.3465 26.0001 38.9465 23.7008 38.9465 19.1892C38.9598 14.7932 35.6665 13.7665 35.6665 13.7665ZM25.0265 6.57959H31.1465C33.3998 6.57959 34.5465 7.62075 34.5465 9.55845C34.5465 11.4962 33.3998 12.5373 31.1465 12.5373H25.0265C24.7998 12.5373 24.6265 12.3493 24.6265 12.1035V7.0134C24.6265 6.76758 24.7998 6.57959 25.0265 6.57959ZM31.2132 22.7031H25.0132C24.7998 22.7031 24.6132 22.5151 24.6132 22.2692V16.2392C24.6132 16.0078 24.7865 15.8054 25.0132 15.8054H31.2132C34.1732 15.8054 35.4932 16.7164 35.4932 19.247C35.4932 21.8065 34.1998 22.7031 31.2132 22.7031Z" fill="#0047FF"/>
</g>
<defs>
<clipPath id="clip0_761_1313">
<rect width="80" height="26" fill="white"/>
</clipPath>
</defs>
</svg>
