<svg width="130" height="27" viewBox="0 0 130 27" fill="none" xmlns="http://www.w3.org/2000/svg">
<g clip-path="url(#clip0_761_1321)">
<path d="M9.07393 13.9269C9.34602 14.1193 9.33434 14.5053 9.5795 14.6996L9.70342 15.5546L9.08829 16.4628C8.30614 16.8741 7.14234 17.0548 6.41586 16.3924C6.00458 16.02 5.89772 15.4823 6.00458 14.9455L6.29373 14.1619C6.45626 14.05 6.67538 14.0218 6.78673 13.8302C7.16928 13.5825 7.66048 13.636 8.0996 13.541C8.42827 13.6494 8.92217 13.4713 9.07393 13.9269Z" fill="#FFCC00"/>
<path d="M7.04781 18.9554C7.29297 18.9554 7.46987 19.1363 7.70155 19.0937C8.03201 19.2175 7.98981 19.6188 8.33284 19.7165C8.59326 20.237 8.7558 20.8055 8.89319 21.3676C8.798 21.6984 9.07369 21.8918 8.97581 22.1946L9.07369 22.2514C9.08896 22.5668 9.04495 22.9256 8.92283 23.2293C8.97581 23.8086 8.68755 24.2903 8.4415 24.7865C8.26639 24.8966 8.18288 25.214 7.93773 25.1588C7.49591 25.2972 7.4564 25.9559 6.92299 25.8764C6.58175 26.1367 6.1139 25.983 5.70262 25.9983C5.47093 25.8764 5.14227 25.9043 4.97973 25.6956C4.56575 25.5311 4.19847 25.2274 3.84377 24.9238C3.70458 24.6192 3.39118 24.4818 3.35077 24.1393C3.47201 23.7245 3.21158 23.3512 3.32022 22.94L3.24121 22.2514L3.49893 21.0647C3.93895 20.8288 3.81234 20.2947 4.25325 20.1284C4.52714 19.4958 5.18088 19.3548 5.68914 19.0376C5.884 18.9997 6.1139 19.108 6.26566 18.9292C6.54044 18.8867 6.80086 19.1788 7.04781 18.9554Z" fill="#E30613"/>
<path d="M29.3817 0.599503C29.2712 2.54347 27.6835 3.85214 26.8448 5.49246C26.4928 6.47031 25.6415 7.04872 25.0389 7.9326C24.4903 8.49653 23.956 9.11743 23.5061 9.75097C23.5896 10.2037 24.0655 10.3303 24.3403 10.6601C24.9563 11.0325 25.0237 11.7329 25.5598 12.1613C25.8732 12.1613 25.8732 12.6312 26.218 12.5761C26.9436 13.3624 27.5327 14.1739 28.1316 15.0289C28.2286 15.3326 28.3804 15.6335 28.6399 15.8549C29.1203 16.5581 29.5173 17.3027 30.0094 18.0194C30.0803 18.8184 30.7493 19.3543 30.9531 20.1017C31.2567 20.5003 31.3788 20.9693 31.6545 21.3688C32.0774 22.306 32.3666 23.282 32.8713 24.1812C32.9673 24.3865 32.8443 24.5934 32.7357 24.7452C32.5435 24.8971 32.3953 24.6196 32.1717 24.6601C31.0537 24.248 29.9815 23.6561 28.9425 23.0225C27.8721 22.1531 26.6949 21.5349 25.6415 20.624C25.2302 20.5138 25.0668 20.032 24.686 19.8377C23.6704 19.2042 22.8604 18.2959 21.8349 17.703C21.3706 17.3442 20.9037 17.0017 20.4376 16.6285C20.0811 16.5852 19.9608 16.172 19.6169 16.0491C18.8491 15.581 18.1531 14.9312 17.3728 14.4901C17.3027 14.6023 17.3728 14.7658 17.3027 14.877C16.7819 15.3876 16.9211 16.172 16.5466 16.7378C16.5358 17.5503 15.9728 18.1458 15.7429 18.8589C15.0981 20.0175 14.5351 21.2042 13.8652 22.3465C12.9735 23.5332 12.4967 24.9656 11.2368 25.9164C10.9629 26.2607 10.6486 26.4387 10.3064 26.661C10.1547 26.6185 9.93558 26.6431 9.89427 26.4541C9.7434 26.1658 9.93558 25.722 9.73083 25.459C9.90594 25.0614 9.79728 24.6077 9.8808 24.1657L9.81345 23.9741C9.82692 23.3668 10.1269 22.8571 10.0038 22.2362C10.1682 21.8512 10.2364 21.4228 10.275 20.9962C10.4717 20.472 10.636 19.9063 10.6899 19.3415C10.8659 19.0107 10.9341 18.585 10.8937 18.1982C11.0293 17.8421 11.0581 17.4119 11.4298 17.1507C11.4828 16.9148 11.4298 16.6826 11.4685 16.435C11.8393 15.3035 12.291 14.2144 12.5775 13.0594C12.5775 12.9762 12.4967 12.9493 12.4428 12.9329C11.6346 12.8922 10.8812 13.0594 10.1269 12.8524C8.89301 12.8371 7.64839 12.6718 6.47381 12.4241C5.99248 12.3275 5.41687 12.3826 4.97954 12.1069C4.69129 12.1197 4.35993 12.1755 4.09053 12.0246C3.52659 11.7471 2.84232 11.7897 2.28017 11.486C1.85632 11.5439 1.55639 11.2654 1.17025 11.2248C0.801175 11.2537 0.596435 10.9347 0.336914 10.7277V10.6058C1.02118 9.66675 2.11674 9.40648 3.10274 9.04769C4.07527 8.74401 5.15825 8.71781 6.17119 8.50905C6.81415 8.39966 7.51099 8.58052 8.15485 8.46652C9.31865 8.49623 10.442 8.68785 11.5933 8.71783C11.9776 8.77214 12.3314 8.95198 12.7158 8.93558L12.7014 8.77189L11.6184 7.2843C11.2125 6.31908 10.4582 5.5066 10.1951 4.48535C9.94996 4.18259 10.1816 3.72981 9.98857 3.39813C9.97688 3.24544 10.1008 3.13696 10.1682 3.01133C10.4025 2.91551 10.6612 3.081 10.8938 2.92908C11.5933 3.09457 12.2363 3.3421 12.934 3.47857C13.6596 3.76957 14.4004 4.0597 15.0434 4.5423C15.8507 5.11889 16.825 5.49214 17.4518 6.38686C17.6188 6.53955 17.8766 6.5667 18.0939 6.50881C18.2869 6.48319 18.33 6.24944 18.5087 6.18076C19.3556 5.64301 20.3146 5.34207 21.1524 4.74829C21.4892 4.40216 22.0415 4.36149 22.2435 3.89334C22.5066 3.76961 22.741 3.60416 23.014 3.53455C23.4944 3.19203 23.9721 2.81877 24.4903 2.54312C24.7669 2.51417 24.9842 2.36148 25.2042 2.21325C26.0528 1.74421 26.9436 1.35829 27.75 0.821458C27.9287 0.33886 28.4612 0.448232 28.8456 0.338867C29.0368 0.380369 29.2981 0.35203 29.3817 0.599503Z" fill="#00A0DF"/>
<path d="M39.1035 23.4055H129.664V23.0494H39.1035V23.4055Z" fill="black"/>
<path d="M39.1035 23.7445H129.664V23.3911H39.1035V23.7445Z" fill="black"/>
<path d="M105.725 17.6891C105.372 17.9097 104.937 18.0651 104.255 18.0651C103.337 18.0651 102.547 17.2923 102.547 16.2792C102.547 14.8685 103.598 14.3389 104.606 14.3389C105 14.3389 105.415 14.4032 105.657 14.4472L105.725 17.6891ZM101.91 12.3081C102.458 11.4929 103.007 11.1414 104.081 11.1414C105.57 11.1414 105.657 12.4618 105.657 13.6529C105.351 13.6529 104.979 13.5868 104.627 13.5868C102.633 13.5868 100.42 14.4924 100.42 16.8295C100.42 18.4608 101.888 19.388 103.379 19.388C104.342 19.388 105.045 18.8575 105.79 18.308C106.051 18.8575 106.709 19.2778 107.546 19.388L109.186 18.0649L108.857 17.735C108.703 17.7776 108.507 17.8237 108.397 17.8237C107.915 17.8237 107.742 17.5345 107.742 16.5214V15.7487C107.764 14.4925 107.826 13.3465 107.826 12.5521C107.826 10.3469 106.162 9.81641 104.212 9.81641C103.182 9.81641 102.307 9.95013 101.384 10.2132V12.3081L101.91 12.3081Z" fill="black"/>
<path d="M53.1947 6.73076H52.2527C51.5567 4.60331 49.3522 3.76643 47.4188 3.76643C43.508 3.76643 41.8898 6.93229 41.8898 10.7326C41.8898 17.1113 46.4759 18.1958 48.3401 18.1958C50.1631 18.1958 51.8001 17.405 52.7924 15.8216L53.4883 16.1163L52.7924 18.6269C50.9937 18.9667 49.8694 19.1466 48.4102 19.1466C41.7102 19.1466 38.7666 14.9857 38.7666 10.9134C38.7666 6.25449 42.3406 2.81567 47.3775 2.81567C50.2951 2.81567 51.4193 3.31366 53.0151 3.72214L53.1947 6.73076Z" fill="black"/>
<path d="M55.7436 12.2954V10.1968C56.6631 9.93295 57.5405 9.79919 58.575 9.79919C60.5272 9.79919 62.1957 10.3306 62.1957 12.5385C62.1957 13.3356 62.1301 14.4834 62.1068 15.7423V16.5159C62.1068 17.5327 62.2828 17.82 62.7686 17.82C62.8763 17.82 63.073 17.7757 63.2275 17.7296L63.557 18.0622L61.9119 19.388C61.075 19.2796 60.4176 18.8566 60.1518 18.3035C59.4083 18.8566 58.7043 19.388 57.7407 19.388C56.2483 19.388 54.7773 18.4589 54.7773 16.8222C54.7773 14.4833 56.9945 13.5786 58.9916 13.5786C59.341 13.5786 59.7154 13.6419 60.0207 13.6419C60.0207 12.4508 59.9336 11.1259 58.4421 11.1259C57.3654 11.1259 56.8176 11.4783 56.268 12.2953L55.7436 12.2954ZM60.0207 14.4382C59.7819 14.3921 59.3634 14.328 58.9665 14.328C57.959 14.328 56.9047 14.8603 56.9047 16.272C56.9047 17.2887 57.6985 18.0623 58.6181 18.0623C59.2979 18.0623 59.737 17.9079 60.0908 17.6882L60.0207 14.4382Z" fill="black"/>
<path d="M67.1311 9.82378C67.1311 10.7555 67.22 12.6977 67.22 14.5089V17.7353C67.22 18.4863 67.5729 18.5957 68.0758 18.7303V19.1722C67.4184 19.1722 66.7611 19.1036 66.0975 19.1036C65.5084 19.1036 64.9166 19.1479 64.3213 19.1722V18.7303C64.8493 18.5955 65.0899 18.4861 65.0899 17.7353V14.996C65.0899 13.4036 64.9615 12.5188 64.7828 12.0561C64.6077 11.6159 64.3877 11.4623 63.8633 11.371V10.93C64.8726 10.6887 66.0373 10.2684 66.6938 9.82378H67.1311ZM66.0571 6.09216C66.6938 6.09216 67.264 6.5558 67.264 7.22006C67.264 7.8816 66.6938 8.34432 66.0571 8.34432C65.4204 8.34432 64.8493 7.8816 64.8493 7.22006C64.8493 6.5558 65.4204 6.09216 66.0571 6.09216Z" fill="black"/>
<path d="M69.17 18.7283C69.8704 18.6181 70.332 18.0677 70.6194 17.6917L72.7485 14.9515L70.226 11.5055C69.8049 10.9524 69.6504 10.7987 69.0146 10.5095V10.0685C69.6747 10.089 70.3554 10.1364 71.0136 10.1364C71.6718 10.1364 72.3318 10.0903 72.9874 10.0685V10.5095C72.7252 10.6404 72.5276 10.6884 72.5276 11.0183C72.5276 11.1721 72.5932 11.4603 72.7898 11.726L73.9994 13.3817L75.0725 11.9447C75.2916 11.6374 75.4039 11.3717 75.4039 11.2172C75.4039 10.7987 75.139 10.6406 74.7888 10.5095V10.0685C75.3796 10.089 75.9508 10.1364 76.5434 10.1364C77.1146 10.1364 77.709 10.0903 78.2802 10.0685V10.5095C77.4217 10.7094 76.9619 11.2389 76.4806 11.8588L74.6127 14.2448L76.9844 17.5579C77.3121 17.9999 77.8159 18.5521 78.3655 18.7283V19.1711C77.709 19.1481 77.0697 19.1043 76.4132 19.1043C75.7532 19.1043 75.1156 19.1476 74.4592 19.1711V18.7283C74.6999 18.7053 74.8983 18.4653 74.8983 18.2412C74.8983 18.111 74.7232 17.7577 74.5454 17.4911L73.3609 15.7911L72.1747 17.4016C72.04 17.6022 71.8703 18.0234 71.8703 18.2213C71.8703 18.5719 72.04 18.6849 72.3318 18.7283V19.1711C71.7598 19.1481 71.1644 19.1043 70.5942 19.1043C70.1147 19.1043 69.6504 19.1476 69.17 19.1711V18.7283Z" fill="black"/>
<path d="M79.9212 12.2954V10.1968C80.8434 9.93295 81.719 9.79919 82.7534 9.79919C84.7075 9.79919 86.3769 10.3306 86.3769 12.5385C86.3769 13.3356 86.3086 14.4834 86.287 15.7423V16.5159C86.287 17.5327 86.463 17.82 86.9453 17.82C87.0557 17.82 87.2515 17.7757 87.4068 17.7296L87.7364 18.0622L86.0859 19.388C85.2561 19.2796 84.5988 18.8566 84.3339 18.3035C83.5868 18.8566 82.8836 19.388 81.9219 19.388C80.4276 19.388 78.9531 18.4589 78.9531 16.8222C78.9531 14.4833 81.1694 13.5786 83.1692 13.5786C83.5221 13.5786 83.8939 13.6419 84.2019 13.6419C84.2019 12.4508 84.1157 11.1259 82.6223 11.1259C81.5447 11.1259 80.9961 11.4783 80.4492 12.2953L79.9212 12.2954ZM84.2019 14.4382C83.9622 14.3921 83.5455 14.328 83.1486 14.328C82.1374 14.328 81.0859 14.8603 81.0859 16.272C81.0859 17.2887 81.8779 18.0623 82.7965 18.0623C83.4763 18.0623 83.9199 17.9079 84.2702 17.6882L84.2019 14.4382Z" fill="black"/>
<path d="M92.1405 5.00885C92.1405 4.5904 92.4018 4.56779 93.0152 4.56779C95.3832 4.56779 96.2812 5.84843 96.2812 7.78878C96.2812 9.70657 94.9647 10.9203 93.0152 10.9203C92.7305 10.9203 92.4207 10.8998 92.0319 10.876L92.1405 5.00885ZM89.6836 17.2927C89.6836 18.2417 89.4007 18.5715 88.4336 18.6818V19.0794H92.2043C92.5105 19.0794 92.8194 19.1025 93.105 19.1238C93.4121 19.1443 93.7183 19.1653 94.003 19.1653C96.3916 19.1653 99.2185 18.2416 99.2185 15.3975C99.2185 13.1029 97.8356 11.9334 95.7747 11.3604V11.3161C97.4207 10.7865 98.9536 9.57364 98.9536 7.69925C98.9536 4.83164 96.0145 3.77332 93.5629 3.77332C93.0376 3.77332 92.5338 3.86195 91.5478 3.86195C90.6714 3.86195 89.7734 3.77332 88.6769 3.77332V4.25956C89.2687 4.3482 89.6216 4.54516 89.6216 5.38382C89.6216 7.37029 89.6836 10.1701 89.6836 12.8163L89.6836 17.2927ZM92.0319 11.8241C92.4889 11.8241 92.8392 11.801 93.2118 11.801C95.314 11.801 96.5434 13.3013 96.5434 15.3085C96.5434 17.0057 95.4263 18.3731 93.5405 18.3731C92.1836 18.3731 92.0319 18.1526 92.0319 16.9624V11.8241Z" fill="black"/>
<path d="M109.543 11.3436C110.201 11.3436 110.507 11.7178 110.507 12.3576C110.507 13.0625 110.617 14.2555 110.617 15.5334V17.6952C110.617 18.4454 110.354 18.5312 109.806 18.73V19.1711C110.421 19.1711 111.053 19.106 111.668 19.106C112.303 19.106 112.919 19.1493 113.553 19.1711V18.73C112.963 18.6639 112.741 18.4879 112.741 17.6952V15.8868C112.741 14.166 112.787 12.9315 112.787 12.0937C112.787 11.2776 114.187 11.0571 114.626 11.0571C116.182 11.0571 116.423 12.6884 116.423 13.8795V17.6952C116.423 18.4454 116.246 18.5999 115.632 18.73V19.1711C116.337 19.1711 117.014 19.106 117.714 19.106C118.265 19.106 118.79 19.1493 119.338 19.1711V18.73C118.724 18.5566 118.548 18.4011 118.548 17.6952V13.0201C118.548 11.1457 117.693 9.84338 115.525 9.84338C114.603 9.84338 113.618 10.3956 112.851 10.9026C112.875 10.5275 112.875 10.176 112.894 9.8009H112.457C111.626 10.3278 110.837 10.6604 109.543 10.9026L109.543 11.3436Z" fill="black"/>
<path d="M129.653 18.7039C128.998 18.5069 128.208 17.801 127.925 17.4702L124.613 13.566L126.301 11.7793C126.826 11.228 127.55 10.721 128.339 10.4995V10.0603C127.793 10.1029 127.244 10.1264 126.695 10.1264C126.105 10.1264 125.488 10.1034 124.898 10.0603V10.4995C125.097 10.5907 125.294 10.8548 125.294 11.0744C125.294 11.3182 125.183 11.6482 124.722 12.111L122.926 13.8968V3.51172H122.444C121.656 4.10547 120.628 4.5682 119.529 4.85561V5.36169C120.077 5.36169 120.581 5.8922 120.628 6.79596C120.692 7.63465 120.804 9.28852 120.804 10.5682V17.7124C120.804 18.1969 120.628 18.5936 119.969 18.7039V19.1458C120.56 19.1025 121.13 19.0797 121.72 19.0797C122.379 19.0797 123.014 19.1458 123.671 19.1458V18.7039C123.146 18.5937 122.926 18.3315 122.926 17.6682V14.6451H122.971L125.227 17.1395C125.601 17.557 125.863 18.0676 125.863 18.3071C125.863 18.5277 125.708 18.7039 125.513 18.7039V19.1458C126.26 19.1458 127.002 19.0797 127.746 19.0797C128.383 19.0797 129.019 19.123 129.653 19.1458V18.7039Z" fill="black"/>
<path d="M39.1035 23.7445H129.664V23.3911H39.1035V23.7445Z" fill="black"/>
</g>
<defs>
<clipPath id="clip0_761_1321">
<rect width="130" height="27" fill="white"/>
</clipPath>
</defs>
</svg>
