<svg width="114" height="29" viewBox="0 0 114 29" fill="none" xmlns="http://www.w3.org/2000/svg">
<g clip-path="url(#clip0_795_387)">
<path fill-rule="evenodd" clip-rule="evenodd" d="M0.707867 8.02914C1.56442 8.02914 2.16131 8.21074 2.53196 8.58179C2.94672 8.99699 3.1324 9.68282 3.1324 10.8052V24.8245C3.1324 26.7644 2.72618 27.6297 0.328678 27.6297H0V28.49H10.7745V27.634L10.4494 27.6297C8.07467 27.6012 7.67414 26.7409 7.67414 24.8245V10.8045C7.67414 9.68567 7.8591 9.00269 8.27387 8.5882C8.64807 8.21146 9.25563 8.02842 10.13 8.02842H10.7738V7.15601H0V8.02842H0.707867V8.02914Z" fill="#091C5A"/>
<path fill-rule="evenodd" clip-rule="evenodd" d="M35.1677 21.3384C35.1677 21.3384 34.9806 20.4631 34.9536 19.9731V13.5699C34.9116 9.83596 35.4203 7.97717 32.1591 7.99141V7.15247H39.6611V7.99141C36.3025 7.97788 36.7251 9.83667 36.7058 13.5699V28.5214L35.638 28.51L19.4382 11.5388C19.4382 11.5388 19.6203 12.4126 19.6473 12.9033V23.3887C19.5555 27.2138 20.0286 27.676 22.4902 27.6312V28.505H14.6695V27.6312C17.1346 27.634 17.619 27.3057 17.6162 23.0768V23.3296V12.9959L17.5963 11.3557C17.688 9.23274 16.9048 8.00138 14.5137 8.02132V7.18167H21.714L35.1677 21.3384Z" fill="#091C5A"/>
<path fill-rule="evenodd" clip-rule="evenodd" d="M62.3244 6.74512H61.4978L61.4593 7.02856C61.4031 7.4516 61.2367 8.16022 60.755 8.16022C60.6177 8.16022 60.2755 8.09541 59.8899 7.91879C58.2152 7.19237 56.0454 6.74512 54.2185 6.74512C50.6635 6.74512 47.4386 8.01992 45.135 10.3359C43.0192 12.4639 41.8617 15.3603 41.8781 18.4904C41.893 21.4886 43.0704 23.9549 45.4808 26.0338C47.9088 28.1133 50.6293 29 54.5827 29C57.8759 29 59.7612 28.5264 62.6545 26.9717L63.1611 26.6968V21.1026C63.1611 18.7183 63.4528 18.3472 65.3907 18.2689L65.7058 18.2568V17.4257H56.2382V18.2568L56.5534 18.2689C58.7118 18.3529 59.1195 18.7403 59.1195 20.7117V25.8956C57.5181 26.9532 56.3542 27.3549 54.8865 27.3549C52.7145 27.3549 50.7816 26.5145 49.2975 25.0303C47.5595 23.289 46.7115 20.753 46.7115 17.8872C46.7115 14.7999 47.5325 12.1662 49.2243 10.4741C50.571 9.12593 52.3595 8.37743 54.3999 8.37743C56.2225 8.37743 58.3397 9.16012 59.7918 10.3131C60.9727 11.281 61.5853 12.2175 62.0477 13.7651L62.1181 13.9994H62.9263L62.3244 6.74512Z" fill="#091C5A"/>
<path fill-rule="evenodd" clip-rule="evenodd" d="M103.792 28.4324C104.319 28.3526 104.877 28.3647 105.297 27.9787C107.075 28.2522 108.878 27.8121 110.276 26.8314C111.012 26.2367 111.676 25.5466 112.213 24.7924C112.686 24.1287 113.058 23.5098 113.3 22.7663C113.48 22.3076 113.622 21.8305 113.729 21.3405C114.237 19.0302 113.97 16.4464 113.219 14.2493C113.081 13.8412 112.924 13.446 112.753 13.0692C111.816 11.1293 110.539 9.03618 108.574 7.80909C107.467 7.11828 106.449 6.0493 105.823 4.94257C105.483 4.63633 105.157 4.23039 104.718 4.15704C104.838 4.35574 104.97 4.55016 105.003 4.78233L104.977 4.81509C104.511 4.82862 104.145 4.5815 103.826 4.28238L104.178 3.96261C104.045 3.89496 103.892 3.86932 103.745 3.83513C102.401 3.68201 101.296 4.30303 100.103 4.60215L100.085 4.66838C100.817 4.99456 100.97 5.80217 101.396 6.34841C101.501 6.22165 101.681 6.31423 101.829 6.30283C102.041 6.31494 102.241 6.46877 102.448 6.41465C102.454 6.2366 102.354 6.09488 102.322 5.93535C102.448 5.87553 102.601 5.92823 102.741 5.93535C103.127 6.16111 103.745 5.89547 103.986 6.41465C103.546 6.44242 103.133 6.535 102.721 6.63542C102.748 6.80207 102.914 6.93454 102.901 7.1019C102.548 6.95519 102.174 6.86261 101.782 6.81631L101.762 6.87543C102.261 7.46155 102.947 7.80909 103.646 8.01491C104.652 8.24779 105.537 7.7685 106.508 7.93515C108.893 9.02834 110.93 11.5288 111.816 13.9018C111.859 14.0157 111.901 14.1311 111.94 14.2486C112.682 16.4158 112.823 19.0793 112.08 21.3398C111.684 22.2799 111.249 23.1672 110.551 23.9314C110.287 24.2569 109.995 24.5467 109.678 24.7917C108.678 25.5708 107.446 25.9148 106.175 25.5659C106.096 25.511 105.936 25.4975 105.963 25.3586C106.007 25.1727 106.048 24.9847 106.084 24.7917C106.294 23.7085 106.392 22.569 106.336 21.4295C106.334 21.3811 106.333 21.3319 106.331 21.2835C106.261 19.6291 105.931 18.1421 105.325 16.7113C104.935 15.8902 104.472 14.995 103.89 14.1916C103.194 13.2338 102.331 12.4062 101.223 11.9931C100.543 11.813 99.7043 11.7788 99.1921 12.345C98.8257 12.6662 98.6735 13.0984 98.7261 13.5728C98.1534 13.936 97.5096 14.1318 96.8088 14.1916C96.6374 14.2066 96.4616 14.27 96.2831 14.2678C96.1138 14.2757 95.9487 14.2686 95.7865 14.2486C94.9435 14.1446 94.0905 13.6888 93.4424 13.169C93.4288 12.8221 93.4089 12.4959 93.3954 12.1292C93.0241 11.9362 92.716 11.5694 92.6904 11.1357L92.7231 11.1029C92.9373 11.1692 93.1222 11.2753 93.3157 11.3885C93.2289 10.8686 93.1286 10.3558 92.8704 9.90219C92.6299 9.80177 92.3902 9.72201 92.1647 9.60165C91.905 9.43001 91.7378 9.11523 91.6994 8.82964C91.932 9.05612 92.3375 8.97635 92.5175 9.21565C92.2038 8.2891 92.1988 7.22938 91.6851 6.3826C91.4255 5.75659 90.7461 5.46958 90.2801 5.01023C90.1001 4.78945 90.0275 4.48322 89.7017 4.44903C89.4349 4.3828 89.415 4.08368 89.3687 3.88926C89.5345 3.9092 89.674 4.02244 89.8134 4.04879C89.4278 3.02396 89.0877 1.88305 88.0434 1.22998L87.8641 1.34393C87.4579 1.40375 87.0246 1.43082 86.6191 1.44435C86.7991 1.17799 87.1178 1.06404 87.3711 0.942973C87.078 0.723622 86.8368 0.670921 86.4704 0.611098C86.2577 0.823328 85.8728 0.930866 85.5996 0.99069L85.5655 0.963627C85.5584 0.723622 85.5043 0.430917 85.865 0.370382C85.5185 0.203732 84.9444 0.271389 84.5915 0.370382C84.4927 0.630327 84.2067 0.863922 84.2273 1.17158C84.0217 1.38452 83.8751 1.67153 83.661 1.82465C83.6546 1.31117 83.873 0.838283 83.9662 0.405278C83.6667 0.518515 83.3622 0.678755 83.0684 0.818342C82.5967 0.544865 82.0987 0.272101 81.5929 0.0648568C81.5474 0.0449158 81.4463 0.025687 81.4662 0.111861C81.8995 0.424507 81.7316 1.01205 81.7779 1.45717L81.5047 1.23141C81.3716 0.891697 80.9875 0.645283 80.9213 0.272101C80.4681 0.358987 80.1786 0.478633 79.7588 0.658814L79.7012 0.692286C80.0135 0.692286 80.2796 0.937988 80.4326 1.18583C79.9602 1.21146 79.5404 1.02559 79.0744 0.97787C79.0282 0.932291 78.9876 0.877453 78.9144 0.884575C78.6817 0.971461 78.4811 1.1374 78.2762 1.29764C77.8166 1.7513 77.3499 2.25125 77.1308 2.85161C77.2845 2.87725 77.4773 2.87084 77.5904 2.96414C77.3379 3.11726 77.118 3.37791 76.8719 3.52391C76.7851 3.87074 76.7986 4.26529 76.778 4.64417C76.5845 4.9383 76.3255 5.19682 76.1996 5.52513C75.7862 6.86261 75.6802 8.35035 75.74 9.86943C75.6062 9.99691 75.4327 10.0774 75.3074 10.1771L75.321 11.5359H75.3537C75.4135 11.2503 75.7535 11.0908 75.9598 10.8971H76.0267C75.9933 11.2033 75.9534 11.5103 75.947 11.8236L75.5614 12.1434C75.1744 12.4838 75.501 12.9966 75.4682 13.4239C75.4953 13.5357 75.5138 13.7031 75.5942 13.7301C75.6411 13.5635 75.7869 13.4439 75.8809 13.2964C76.0466 13.2573 76.1932 13.1227 76.3461 13.1041C76.2593 13.4374 76.1476 13.7636 76.0132 14.0834C75.9492 14.1254 75.8745 14.1817 75.8104 14.25C75.7421 14.3234 75.6873 14.4053 75.6731 14.4965C75.9741 16.0754 76.445 17.635 76.9836 19.1213C76.6186 19.7417 76.4109 20.4716 76.1064 21.1119C76.0623 21.2009 76.0231 21.2928 75.9869 21.3854C75.6809 22.1602 75.5878 23.0269 75.2071 23.7712C75.0528 23.6658 74.8863 23.5839 74.7148 23.5112C73.9949 23.2712 73.1625 23.4243 72.6375 23.9784C72.1708 23.8915 71.6913 23.9713 71.3249 24.2184C71.0624 24.4143 70.8596 24.6528 70.7429 24.9306C70.6633 25.1243 70.627 25.3351 70.6391 25.5651C70.3403 25.771 70.1802 26.09 70.0806 26.4112C69.9412 27.1305 70.1937 27.8797 70.6064 28.4338H103.792V28.4324Z" fill="white"/>
<path fill-rule="evenodd" clip-rule="evenodd" d="M99.3852 13.446C99.3781 13.6191 99.2522 13.8135 99.3653 13.9595C99.5254 13.7793 99.7922 13.7857 100.005 13.7067C100.597 13.6533 101.163 13.8391 101.715 13.9737C101.576 13.753 101.483 13.508 101.33 13.3071C101.022 13.2274 100.557 13.4403 100.504 12.9874C100.317 12.8271 100.023 12.9418 99.832 12.9532C99.6449 13.0878 99.4919 13.253 99.3852 13.446Z" fill="white"/>
<path fill-rule="evenodd" clip-rule="evenodd" d="M79.0374 7.69228C79.0342 7.68912 79.0295 7.68597 79.0264 7.68518C79.0264 7.68518 79.0264 7.68912 79.0279 7.69228H79.0374Z" fill="white"/>
<path fill-rule="evenodd" clip-rule="evenodd" d="M81.4572 13.6155L81.857 13.2295C81.8912 13.2295 81.9168 13.2366 81.9367 13.2637L81.9033 14.0029C82.0961 14.1831 82.3358 14.2429 82.5884 14.2564C82.609 14.0563 82.7619 13.9167 82.8487 13.743C82.922 13.6034 82.8758 13.3961 83.0216 13.2957L83.0671 13.3427C83.1148 13.5621 83.102 13.8092 83.2151 14.0022C83.2286 14.1083 83.2478 14.2422 83.2607 14.3355C83.5538 14.3497 83.8191 14.2685 84.0461 14.1624C84.0325 13.9096 84.1201 13.7024 84.1585 13.4688C84.2197 13.3883 84.0852 13.2423 84.2524 13.2494C84.3456 13.4488 84.512 13.6554 84.6052 13.8683C84.9908 13.4752 85.1509 12.9624 85.2441 12.4297C85.1317 12.2752 84.9581 12.2752 84.8244 12.1762C83.6932 11.8094 82.2405 11.7353 81.1484 12.3022C81.078 12.7566 81.1712 13.2565 81.4572 13.6155Z" fill="white"/>
<path fill-rule="evenodd" clip-rule="evenodd" d="M70.8764 26.1228C70.8358 26.637 70.8764 27.1184 70.9084 27.6248C71.0158 27.7914 71.2092 27.9851 71.4006 27.9987L71.4354 27.6583C71.5144 27.1839 71.2619 26.6811 71.5286 26.2816C71.7149 26.3414 71.8998 26.4347 72.0613 26.5216C72.1395 26.0815 72.0279 25.5687 71.6082 25.3024L70.8764 26.1228Z" fill="white"/>
<path fill-rule="evenodd" clip-rule="evenodd" d="M72.5202 25.4042C72.2606 26.1833 72.0671 27.1461 72.3815 27.9659C72.56 27.8469 72.7471 27.733 72.9057 27.5663C72.8737 26.9389 72.7869 26.2695 73.1589 25.7496C73.4846 25.85 73.7058 26.1633 73.831 26.4703C74.0515 26.189 74.1247 25.803 74.0379 25.4291C74.0515 25.1371 73.7172 25.204 73.5579 25.083C73.6119 24.8365 73.6041 24.551 73.8644 24.4114L73.0657 24.4911C72.8602 24.7831 72.634 25.0709 72.5202 25.4042Z" fill="white"/>
<path fill-rule="evenodd" clip-rule="evenodd" d="M74.165 27.7053C74.1992 27.7665 74.165 27.872 74.2319 27.8855C74.3322 27.3264 74.7847 26.9632 75.0316 26.4704C75.1504 26.3037 75.1432 26.0701 75.3368 25.9434C75.5971 25.9434 75.7835 26.1307 76.0368 26.1506C76.1165 26.2104 75.9955 26.2631 75.9898 26.3294C75.9372 26.7837 75.7636 27.1598 75.7971 27.6255H75.8426C76.1954 27.2538 76.4352 26.8493 76.6949 26.4227L76.7404 26.0438C76.8002 25.5901 76.3079 25.2974 75.9884 25.1108L76.2744 24.7441L75.8753 24.6038C75.4086 24.6508 74.9889 24.8438 74.663 25.2112C74.2582 25.9569 74.1921 26.7994 74.165 27.7053Z" fill="white"/>
<path fill-rule="evenodd" clip-rule="evenodd" d="M75.9561 23.7498C76.109 23.7968 76.2485 23.67 76.4007 23.737C77.0139 23.9627 77.6535 24.1963 78.1124 24.7098L78.6588 26.1021L78.9319 25.2432L78.752 24.776C78.599 24.4427 78.1793 24.4698 77.8926 24.4563C77.7737 24.3231 77.8997 24.1693 77.9402 24.0432C78.0789 23.5703 77.4998 23.596 77.2672 23.4044C77.2814 23.1174 76.9343 23.2171 76.7408 23.19L76.6746 23.1103C76.6355 23.0504 76.5359 23.0504 76.4818 23.0967C76.4676 23.0775 76.442 23.064 76.4562 23.0298L76.3082 23.064C76.1026 23.2442 75.9625 23.477 75.9561 23.7498Z" fill="white"/>
<path fill-rule="evenodd" clip-rule="evenodd" d="M76.3418 22.218C76.3617 22.3041 76.4151 22.391 76.4812 22.4437C76.7815 22.364 77.0667 22.1581 77.4132 22.2835C77.86 22.6766 78.3252 23.0897 78.8659 23.304L79.058 23.2699C79.1782 23.3112 79.3106 23.3169 79.391 23.45C79.4649 23.6302 79.2793 23.737 79.2181 23.883C79.5183 24.1031 79.3981 24.4969 79.5852 24.7626L80.0647 24.123C79.9523 23.8424 80.0711 23.3631 79.6314 23.3368C79.4856 23.2627 79.3853 23.116 79.3917 22.9494C79.1064 22.6894 78.7535 22.5769 78.4661 22.3105C78.2335 22.1232 78.094 21.8362 77.7938 21.77C77.5882 21.6575 77.3627 21.5969 77.1229 21.5442C76.6747 21.478 76.6356 22.01 76.3418 22.218Z" fill="white"/>
<path fill-rule="evenodd" clip-rule="evenodd" d="M76.9805 20.9047L77.0609 21.0314C77.3931 21.0108 77.694 20.8648 78.0206 20.8712C78.2397 21.0051 78.5264 20.9987 78.7519 21.1112C78.9319 21.3576 79.1254 21.6375 79.3901 21.8049C79.9307 21.8839 80.2295 22.4644 80.4159 22.8902V22.6837C80.4956 22.3981 80.4088 22.0641 80.3021 21.8049C80.1691 21.671 79.9763 21.5834 79.8368 21.4637C79.8098 21.3776 79.8297 21.337 79.8568 21.2572C79.6497 21.0371 79.3438 20.9168 79.0913 20.7444C78.7384 20.231 78.059 20.3713 77.5197 20.231L76.9805 20.9047Z" fill="white"/>
<path fill-rule="evenodd" clip-rule="evenodd" d="M76.9697 16.0148C77.0288 16.2221 77.1013 16.482 77.1404 16.7014C77.3268 16.2883 77.6945 16.1032 78.0202 15.7627C77.8332 15.6352 77.6013 15.5754 77.395 15.5355V15.5234C77.2485 15.6694 77.0224 15.8161 76.9697 16.0148Z" fill="white"/>
<path fill-rule="evenodd" clip-rule="evenodd" d="M78.1797 18.2077L78.4791 17.9015C78.7792 17.5952 79.0253 17.2413 79.0716 16.8481C78.8589 16.7214 78.5794 16.8075 78.3731 16.8809C78.2985 17.3153 78.1868 17.7419 78.1797 18.2077Z" fill="white"/>
<path fill-rule="evenodd" clip-rule="evenodd" d="M78.3984 19.1478C78.8586 19.1748 79.3038 19.2667 79.6772 19.0089L80.0492 17.8082C79.9304 17.801 79.8095 17.7483 79.6971 17.7882C79.4518 18.3352 78.9575 18.8743 78.3984 19.1478Z" fill="white"/>
<path fill-rule="evenodd" clip-rule="evenodd" d="M78.5338 14.8953C78.8332 15.3361 79.3325 15.8289 79.8453 15.9678C79.7855 15.4088 79.3069 15.0213 79.0601 14.542L79.0458 14.3818C78.8531 14.1945 78.6198 14.0691 78.42 13.968C78.388 14.2892 78.4747 14.5962 78.5338 14.8953Z" fill="white"/>
<path fill-rule="evenodd" clip-rule="evenodd" d="M80.1572 19.2011C80.51 19.2624 80.8891 19.2011 81.2148 19.1C81.6885 18.9882 81.9481 18.4676 82.1074 18.0616H81.5149L80.8756 18.6877C80.6238 18.8215 80.3827 19.0224 80.1572 19.2011Z" fill="white"/>
<path fill-rule="evenodd" clip-rule="evenodd" d="M80.085 14.2892C80.1852 14.8091 80.4036 15.282 80.7044 15.7292L80.7841 14.7357L80.085 14.2892Z" fill="white"/>
<path fill-rule="evenodd" clip-rule="evenodd" d="M82.2679 16.8815C82.3078 16.5482 82.1691 16.1622 82.1307 15.8225C81.9301 15.6886 81.6499 15.7022 81.4443 15.5697C81.4571 16.096 81.8689 16.5418 82.2679 16.8815Z" fill="white"/>
<path fill-rule="evenodd" clip-rule="evenodd" d="M81.6621 20.2687C82.0817 20.1348 82.4871 19.9881 82.8726 19.7744C83.1187 19.4226 83.4921 19.1007 83.5447 18.6884C83.2389 18.7745 82.9722 18.6755 82.687 18.8158C82.5142 19.1285 82.4068 19.4824 82.0746 19.7082C82.022 19.934 81.7752 20.0885 81.6621 20.2687Z" fill="white"/>
<path fill-rule="evenodd" clip-rule="evenodd" d="M82.3135 21.0884L82.8128 21.7407C83.0795 21.8276 83.4123 21.8006 83.6449 21.6474L83.4649 21.0542C83.1129 21.1888 82.694 21.1475 82.3135 21.0884Z" fill="white"/>
<path fill-rule="evenodd" clip-rule="evenodd" d="M83.1465 16.3681L83.3392 17.2483C83.8044 16.868 83.899 16.3146 83.8876 15.7285C83.6209 16.0348 83.4651 16.2221 83.1465 16.3681Z" fill="white"/>
<path fill-rule="evenodd" clip-rule="evenodd" d="M84.458 17.922C84.4651 18.0481 84.4986 18.1684 84.5718 18.2688C85.0903 18.4547 85.1436 19.0878 85.6237 19.3278C85.9359 19.4674 86.2944 19.2937 86.5682 19.1676C86.3619 18.9347 86.128 18.7731 85.9295 18.5273C85.7894 18.4675 85.6493 18.3806 85.6564 18.2076L84.458 17.922Z" fill="white"/>
<path fill-rule="evenodd" clip-rule="evenodd" d="M84.8705 21.0678C85.0974 21.3277 85.4032 21.4609 85.7226 21.5335C85.6699 21.4602 85.7567 21.5335 85.7695 21.4872L85.3691 20.6091C85.1699 20.6141 84.9637 20.6547 84.7773 20.6419C84.7901 20.7872 84.8243 20.9332 84.8705 21.0678Z" fill="white"/>
<path fill-rule="evenodd" clip-rule="evenodd" d="M85.5769 16.9613C85.3898 16.5283 85.3116 16.002 85.259 15.5227C85.0591 15.762 84.8529 15.9158 84.6665 16.1615C84.5798 16.6551 85.2832 16.7761 85.5769 16.9613Z" fill="white"/>
<path fill-rule="evenodd" clip-rule="evenodd" d="M86.3884 16.5091C86.628 16.8217 87.1536 16.7149 87.4481 16.6216C87.3073 16.3816 86.8563 16.242 86.7767 15.9821C86.7297 15.5227 86.638 15.0762 86.4901 14.656C86.2568 15.2222 85.9759 15.8959 86.3884 16.5091Z" fill="white"/>
<path fill-rule="evenodd" clip-rule="evenodd" d="M86.8076 17.922C87.4742 18.4092 88.1259 18.9746 89.0579 18.7681C89.1247 18.7211 89.2379 18.7275 89.2514 18.6413C88.9775 18.4676 88.6858 18.3344 88.4055 18.1756L88.0868 17.7084H87.9402C87.5802 17.8287 87.1932 17.8743 86.8076 17.922Z" fill="white"/>
<path fill-rule="evenodd" clip-rule="evenodd" d="M86.8223 23.3275H86.8678C87.2683 23.0077 87.7407 22.9009 88.2131 22.767C88.3404 22.8133 88.2601 22.9536 88.3732 23.0077C88.6599 22.8873 89.0063 22.9144 89.2987 22.814C89.6523 22.8282 89.939 22.8346 90.2243 22.9878C90.4498 23.2869 90.8767 23.2548 91.1705 23.4535L91.1235 22.9878C90.5046 22.2606 89.5385 22.2072 88.6478 22.2214L88.6272 22.1274C88.4144 22.1274 88.1754 22.1744 87.9755 22.2685C87.6895 22.2806 87.4163 22.4216 87.1424 22.5077C87.0151 22.7613 86.9155 23.0668 86.8223 23.3275Z" fill="white"/>
<path fill-rule="evenodd" clip-rule="evenodd" d="M87.3565 15.136C87.616 15.4765 88.0015 15.7357 88.4411 15.6495C88.2156 15.4295 87.9553 15.1951 87.9418 14.8825C88.0086 14.2893 87.3564 14.243 87.0371 13.9353C87.1424 14.3363 87.1303 14.7821 87.3565 15.136Z" fill="white"/>
<path fill-rule="evenodd" clip-rule="evenodd" d="M87.2881 24.5076H87.3656C87.7192 24.2861 88.2321 24.4535 88.5786 24.2199C88.7714 24.1195 88.7842 24.3865 88.9187 24.4599C89.2445 24.66 89.2843 25.259 89.7439 25.1201C90.296 25.4064 90.1565 26.0808 90.1765 26.5736L90.6894 26.2539C90.6424 25.9939 90.7883 25.6791 90.6218 25.4534C90.4959 25.1678 90.1501 25.1407 89.9837 24.9071C90.1836 24.5667 89.7311 24.4079 89.6372 24.1608L89.6642 24.1266L90.3686 24.2199C90.6097 24.3666 90.6951 24.6337 90.7691 24.8801C91.3219 24.9734 91.4549 25.5994 91.6484 25.9996C91.7615 25.7262 91.8078 25.4327 91.9216 25.1671C91.928 24.9463 91.6349 24.9463 91.489 24.8473C91.4478 24.5076 91.2955 24.1864 90.9967 23.9806C90.3835 23.8275 89.8449 23.4871 89.1727 23.4871L88.6128 23.6608C88.3061 23.7342 87.9803 23.6409 87.7477 23.8531C87.3998 23.8795 87.3735 24.2605 87.2881 24.5076Z" fill="white"/>
<path fill-rule="evenodd" clip-rule="evenodd" d="M87.6396 21.7607L87.767 21.8205C88.0388 21.693 88.3127 21.547 88.5994 21.4402C89.0447 21.3134 89.3912 21.8205 89.7647 21.5007C89.9041 21.4003 90.0229 21.547 90.1303 21.6275C90.2904 21.9209 90.6632 21.901 90.9428 21.9807C90.8033 21.6011 90.6305 21.0805 90.1439 21.0193C89.9511 20.9331 89.7241 20.9417 89.5377 20.827C89.0255 20.2608 88.6926 21.2928 88.1327 21.0399C87.9335 21.2614 87.6873 21.4672 87.6396 21.7607Z" fill="white"/>
<path fill-rule="evenodd" clip-rule="evenodd" d="M87.7676 25.0068C87.9802 25.1856 88.1993 25.4932 88.5314 25.4527C88.9461 25.6464 88.7725 26.1919 88.9987 26.4789L89.2377 26.2652L89.2177 26.2524L89.2519 26.219L89.2661 26.2389C89.3323 26.0381 89.2384 25.6848 89.1253 25.4519C88.9724 25.3465 88.7924 25.4591 88.6466 25.3586C88.626 25.1457 88.493 25.0389 88.3401 24.9057C88.2334 24.8259 88.0933 24.9328 87.9738 24.9256L87.7676 25.0068Z" fill="white"/>
<path fill-rule="evenodd" clip-rule="evenodd" d="M88.5996 16.8815C88.8194 17.249 89.2447 17.4755 89.5846 17.7283C89.8634 17.8558 90.2297 17.8878 90.5299 17.8216C90.2439 17.5887 89.9836 17.3224 89.7447 17.0411C89.6515 16.9079 89.6309 16.7419 89.505 16.6216C89.1906 16.6821 88.8393 16.6757 88.5996 16.8815Z" fill="white"/>
<path fill-rule="evenodd" clip-rule="evenodd" d="M88.9668 14.4965C89.274 14.8754 89.7463 14.723 90.1787 14.7358V14.6902L89.513 14.129C89.326 14.1896 89.1275 14.3555 88.9668 14.4965Z" fill="white"/>
<path fill-rule="evenodd" clip-rule="evenodd" d="M76.71 8.21074L77.0954 9.41076C77.0883 8.73063 77.4013 8.16445 77.3351 7.4715L77.6217 7.04419L77.0151 7.23078C76.8558 7.53702 76.7235 7.84468 76.71 8.21074Z" fill="white"/>
<path fill-rule="evenodd" clip-rule="evenodd" d="M76.9697 6.13122L77.4946 5.82427V5.04443C77.2748 5.17832 77.1539 5.4048 76.9825 5.58498L76.9697 6.13122Z" fill="white"/>
<path fill-rule="evenodd" clip-rule="evenodd" d="M87.769 7.34476C87.6417 7.51141 87.4496 7.55129 87.2902 7.58476C87.5691 7.07128 87.7029 6.35696 87.4823 5.77725C87.6296 5.72455 87.7897 5.69891 87.9291 5.61772L87.9149 5.6049L88.282 5.28371C88.7679 4.95041 88.5815 4.318 88.7615 3.84511C88.5217 3.47121 88.4491 3.01827 88.102 2.7042L88.1226 2.69209C87.8487 2.34526 87.3564 2.38443 86.9822 2.21137C86.4899 2.04472 86.1107 2.38443 85.7578 2.61233C85.6049 2.63796 85.6981 2.83809 85.5316 2.83168C85.4384 3.0788 85.3246 3.34516 85.2584 3.61792C84.5989 3.52392 83.8875 3.59869 83.361 3.97116C83.0807 3.76534 82.7414 3.72475 82.4148 3.63145C82.1758 3.58516 81.9026 3.67205 81.7305 3.53745C81.4779 3.25186 81.4231 2.73126 80.9899 2.65862C80.8376 2.6052 80.8049 2.43927 80.8049 2.29185C80.5182 2.24555 80.2642 2.11309 79.9846 2.05184C79.5599 1.85813 79.2206 2.16579 78.9004 2.37161C78.761 2.43215 78.6009 2.45137 78.4686 2.53256C78.2288 2.90503 78.0019 3.28534 77.8489 3.69769C77.8959 4.0374 78.0417 4.33794 78.216 4.62423C78.369 5.05795 78.8478 5.39766 79.254 5.57143C79.0612 6.23091 79.0612 7.01787 79.254 7.68447C79.254 7.68447 79.2426 7.6923 79.2426 7.69087C79.2426 7.6923 79.2213 7.70939 79.2213 7.70939C79.1572 7.70939 79.0896 7.72221 79.037 7.69087H79.0285C79.1217 8.32756 79.4212 8.88449 79.9049 9.36236C80.0785 9.42361 80.0387 9.62943 80.1127 9.76332C80.1582 9.82243 80.1646 9.9492 80.1447 10.0026C79.1074 9.96914 78.1812 10.2291 77.3488 10.702C77.1361 10.8088 77.23 11.1029 77.2101 11.3087C77.7956 10.9227 78.428 10.6357 79.1266 10.5097C79.4262 10.4897 79.7655 10.4164 80.0522 10.4961L80.0856 11.0695C79.2938 11.4825 78.428 11.7225 77.7486 12.4027C77.7621 12.6085 77.723 12.8492 77.7828 13.023L78.3889 12.5287C78.9737 12.0836 79.5862 11.7026 80.2592 11.4562C80.4392 11.6698 80.6263 11.8963 80.8661 12.0288C81.2716 11.7688 81.7112 11.5765 82.1772 11.4562C82.4241 11.3095 82.8154 11.4426 82.9755 11.1499L83.0893 10.5432C83.0686 10.5296 83.0566 10.504 83.0224 10.5111C82.7101 10.3309 82.5038 10.0183 82.5301 9.65079C82.4241 9.70349 82.3046 9.73768 82.1772 9.74409C82.0705 9.71702 81.9716 9.69139 81.9247 9.58385C81.9176 9.44996 81.8507 9.25055 81.9837 9.15084C82.4163 8.88377 82.9762 8.87024 83.5225 8.91155C83.928 8.96425 84.515 8.9436 84.6537 9.42503C84.6352 9.56462 84.6473 9.71774 84.5079 9.81103C84.3613 9.8908 84.1955 9.80391 84.0611 9.7448C83.9558 10.071 83.7758 10.4385 83.4087 10.5439L83.4564 10.9313C83.5019 11.1051 83.5154 11.3906 83.7893 11.3308C84.4218 11.4839 84.9802 11.8108 85.533 12.1641C85.7194 11.9768 85.866 11.7631 85.9983 11.5708C86.9836 11.9034 87.8366 12.6434 88.6483 13.3299L88.6825 12.7701C87.9099 12.0836 87.0505 11.5972 86.1584 11.2169C86.1925 11.0367 86.2324 10.8629 86.238 10.6706C87.2974 10.7297 88.3012 11.0566 89.1748 11.5708L89.1606 11.0908C88.2421 10.598 87.2369 10.2711 86.1377 10.2576C86.0979 10.1963 86.0851 10.1109 86.0922 10.0503C86.6251 9.96344 87.0035 9.41079 87.1316 8.93007C87.4034 8.61742 87.7975 8.277 87.7043 7.81123C87.7164 7.77349 87.7299 7.73218 87.7434 7.6923C87.779 7.57479 87.8089 7.45301 87.769 7.34476Z" fill="white"/>
<path fill-rule="evenodd" clip-rule="evenodd" d="M88.6953 9.05752L89.2408 8.88375L89.2999 8.57751C89.4542 8.13098 89.1284 7.79768 88.967 7.44373L88.6953 9.05752Z" fill="white"/>
<path fill-rule="evenodd" clip-rule="evenodd" d="M90.0721 11.1706C90.3317 11.4562 90.5849 11.917 91.045 11.776C91.0109 11.5837 90.9042 11.4241 90.8381 11.2504C90.7172 11.1094 90.6781 10.7098 90.4384 10.8508C90.2584 10.7305 90.2129 10.5296 90.0984 10.3701C90.0465 10.6165 90.0792 10.9235 90.0721 11.1706Z" fill="white"/>
<path fill-rule="evenodd" clip-rule="evenodd" d="M90.165 13.122C90.2653 13.263 90.2923 13.4432 90.3905 13.5692C90.5704 13.6881 90.8371 13.6696 91.0562 13.649C91.2561 13.6027 91.3826 13.822 91.569 13.6946C91.3371 13.5486 91.1977 13.2815 90.9765 13.0892C90.7162 12.8827 90.4381 13.0629 90.165 13.122Z" fill="white"/>
<path fill-rule="evenodd" clip-rule="evenodd" d="M90.5184 16.2221C90.9771 16.4955 91.5617 16.7626 92.1741 16.6693C92.2402 16.6351 92.354 16.6422 92.3668 16.5618C91.9877 16.4279 91.5895 16.0483 91.1912 15.9685C90.9707 15.6288 90.6848 16.0554 90.4053 16.0283C90.4117 16.1088 90.4913 16.1694 90.5184 16.2221Z" fill="white"/>
<path fill-rule="evenodd" clip-rule="evenodd" d="M91.9023 22.1068L92.0026 22.3212C92.1029 23.0148 92.541 23.6537 92.3013 24.4136C92.5012 24.5531 92.5616 24.786 92.6875 24.9726H92.721C92.8739 24.3936 92.7679 23.7933 92.6875 23.2128C92.7473 22.6865 92.2146 22.3796 91.9023 22.1068Z" fill="white"/>
<path fill-rule="evenodd" clip-rule="evenodd" d="M92.0166 15.282C92.363 15.5491 92.9156 15.5755 93.3139 15.4423C93.0614 15.3027 92.7826 15.1496 92.5749 14.9623L92.0166 15.282Z" fill="white"/>
<path fill-rule="evenodd" clip-rule="evenodd" d="M93.6596 17.3288C93.6255 17.6094 93.8125 17.8422 94.0124 17.9818C94.0856 17.8152 94.2051 17.6756 94.2179 17.489C94.1589 17.202 93.9989 16.9428 93.7393 16.7498C93.6923 16.9356 93.6397 17.1144 93.6596 17.3288Z" fill="white"/>
<path fill-rule="evenodd" clip-rule="evenodd" d="M93.6801 20.367C93.6332 20.6797 93.9788 20.721 94.1254 20.894C94.2456 21.04 94.0457 21.1404 94.0457 21.28C94.2982 21.6062 94.4447 21.9801 94.4447 22.4138C94.545 22.0079 94.6979 21.6197 94.7527 21.2003C94.7256 20.9076 94.2605 20.9674 94.333 20.6412C94.4653 20.3079 94.306 19.981 94.2192 19.6819C94.1922 19.6342 94.1325 19.5409 94.0805 19.5679C93.9582 19.8414 93.6595 20.0337 93.6801 20.367Z" fill="white"/>
<path fill-rule="evenodd" clip-rule="evenodd" d="M94.5918 18.7809L94.9375 19.4539C95.0911 19.4354 95.1892 19.2873 95.3094 19.1819C95.4033 18.9013 95.1565 18.7211 95.084 18.4946C95.0228 18.3344 95.084 18.1214 94.9702 17.9811C94.8841 17.9284 94.7831 17.8415 94.6836 17.8672L94.5918 18.7809Z" fill="white"/>
<path fill-rule="evenodd" clip-rule="evenodd" d="M95.0371 17.009C95.3103 17.175 95.6226 17.415 95.7685 17.7077C96.0025 18.3878 96.3753 19.001 96.6478 19.6605C96.7481 20.1205 96.8278 20.5308 96.9544 20.9844C97.0013 21.1026 96.9743 21.3362 97.1614 21.317C97.2141 20.8106 97.3144 20.3242 97.3208 19.7972C97.155 19.5779 96.9338 19.4846 96.7282 19.35V19.3044C96.7552 19.1904 96.8484 19.0573 96.9885 19.0786C97.0476 19.0103 97.2276 18.9447 97.1486 18.8251C96.8022 18.479 96.8221 17.8815 96.2686 17.7739C96.0765 17.6941 96.0288 17.4947 96.0103 17.3081C95.75 17.0895 95.3629 17.014 95.0371 17.009Z" fill="white"/>
<path fill-rule="evenodd" clip-rule="evenodd" d="M95.3565 20.6212C95.6964 20.9331 95.5777 21.3868 95.5499 21.807C95.4973 22.0605 95.8166 21.9138 95.9169 22.047C96.1225 22.3539 96.003 22.8004 95.929 23.1337C96.1097 22.8596 96.3159 22.6195 96.4553 22.3204C96.4482 22.2065 96.594 22.1538 96.589 22.0142C96.6481 21.8205 96.4226 21.9074 96.3294 21.886C96.2498 21.8661 96.163 21.8127 96.1886 21.7065C96.3621 21.3725 96.2028 20.973 96.136 20.6404C96.0563 20.3662 96.1701 20.0009 96.0428 19.7609C95.8302 20.0543 95.1972 20.1212 95.3565 20.6212Z" fill="white"/>
<path fill-rule="evenodd" clip-rule="evenodd" d="M95.9756 15.888C96.5687 16.4884 97.0012 17.0909 97.6398 17.6713C97.6541 17.4128 97.6199 17.1714 97.6064 16.9178C97.5125 16.7391 97.3397 16.6052 97.1932 16.472C96.7217 16.425 96.4749 15.7883 95.9756 15.888Z" fill="white"/>
<path fill-rule="evenodd" clip-rule="evenodd" d="M97.5273 19.0651C97.5409 19.125 97.5679 19.1777 97.5935 19.2382C97.8531 19.6655 98.0992 20.1042 98.2798 20.5643C98.2265 20.0722 98.56 19.4576 98.1198 19.0787C98.06 18.9184 97.8602 18.9718 97.7336 18.9847L97.5273 19.0651Z" fill="white"/>
<path fill-rule="evenodd" clip-rule="evenodd" d="M99.125 23.9343C99.3121 24.019 99.5511 23.8659 99.7311 23.7605C99.8976 23.7199 100.038 23.8132 100.164 23.9001C100.217 24.0062 100.164 24.1059 100.183 24.2063C100.583 24.3196 100.975 24.4663 101.329 24.6992L101.441 24.5866C101.468 24.2996 101.242 24.0945 101.029 23.9343C100.889 23.8524 100.682 23.9001 100.583 23.7726C100.65 23.6672 100.65 23.507 100.642 23.3866C100.422 23.3866 100.282 23.3197 100.102 23.2128C99.9908 23.1801 99.8898 23.0868 99.7966 23.2128C99.4643 23.44 99.4444 23.7726 99.125 23.9343Z" fill="white"/>
<path fill-rule="evenodd" clip-rule="evenodd" d="M99.592 15.5462C99.7577 15.5007 99.9319 15.4522 100.071 15.3333C100.516 14.9266 101.162 15.1994 101.681 15.193C101.582 15.0128 101.441 14.8341 101.315 14.6795C101.129 14.6062 100.955 14.5193 100.743 14.5193C100.29 14.2536 99.9846 14.6995 99.6375 14.9188C99.545 15.1004 99.4988 15.366 99.592 15.5462Z" fill="white"/>
<path fill-rule="evenodd" clip-rule="evenodd" d="M99.6047 16.9178C99.6047 16.8993 99.6047 16.878 99.6246 16.8723C99.6843 16.9257 99.6175 17.0517 99.7178 17.0781C99.8907 16.9926 100.051 16.8723 100.21 16.7597C100.657 16.7597 100.923 16.3267 101.361 16.3267C102.093 16.4592 102.82 16.6059 103.458 16.9656C103.413 16.5326 103.039 16.1394 102.661 15.945C102.447 15.8716 102.28 15.9863 102.127 16.1052C101.681 16.3866 101.915 15.6993 101.602 15.6851C101.195 15.8133 100.776 15.9521 100.324 15.913C100.057 16.0119 99.87 16.2577 99.5712 16.232C99.5577 16.4521 99.5243 16.7191 99.6047 16.9178Z" fill="white"/>
<path fill-rule="evenodd" clip-rule="evenodd" d="M99.9116 18.4056C100.05 18.5516 100.283 18.5246 100.484 18.5516L101.063 18.3259C101.07 18.219 100.89 18.1913 100.929 18.073C101.089 17.8929 101.31 18.0189 101.508 17.9449C101.789 17.9057 102.075 17.6258 102.353 17.8323C102.347 17.8651 102.367 17.9128 102.341 17.9449C102.253 18.1521 102.401 18.2782 102.56 18.3579C102.887 18.4192 103.193 18.719 103.519 18.5844C103.486 18.3116 103.413 18.0588 103.346 17.7981C103.073 17.7511 102.88 17.5247 102.627 17.4307C102.513 17.5375 102.367 17.618 102.227 17.6044C101.714 17.4848 101.102 17.165 100.583 17.4919C100.396 17.7177 100.063 17.6514 99.8105 17.7504C99.8248 17.979 99.8504 18.1984 99.9116 18.4056Z" fill="white"/>
<path fill-rule="evenodd" clip-rule="evenodd" d="M100.131 22.3667C100.09 22.48 99.9778 22.6673 100.183 22.72C100.61 22.7342 101.156 22.5141 101.489 22.8467C101.602 22.9343 101.548 23.1131 101.542 23.227L102.1 23.6942C102.154 23.4136 102.253 23.1601 102.26 22.8596C102.215 22.6466 102.107 22.4394 101.922 22.2998C101.555 22.2998 101.341 21.8703 100.949 21.9252C100.743 21.8775 100.564 22.0605 100.356 22.0605C100.263 22.1538 100.21 22.2677 100.131 22.3667Z" fill="white"/>
<path fill-rule="evenodd" clip-rule="evenodd" d="M100.29 19.2253C100.377 19.4041 100.478 19.6982 100.643 19.7181C101.036 19.5451 101.608 19.4375 102.048 19.6248C102.195 19.6512 102.195 19.8178 102.162 19.9254C102.388 20.0586 102.662 20.164 102.901 20.3114L102.835 19.9119C102.82 19.4781 102.275 19.4375 102.241 19.0102C101.795 18.8642 101.296 18.818 100.823 18.9312C100.669 19.0715 100.451 19.0515 100.263 19.0921C100.251 19.1448 100.283 19.1776 100.29 19.2253Z" fill="white"/>
<path fill-rule="evenodd" clip-rule="evenodd" d="M100.405 21.3847C100.664 21.3113 100.829 21.0243 101.11 20.9987C101.536 21.0058 101.915 21.1774 102.181 21.5449C102.342 21.651 102.308 21.9252 102.514 21.9252C102.454 21.5976 102.56 21.2978 102.548 20.9645C102.267 20.4987 101.577 20.8576 101.317 20.3114L100.824 20.3442C100.472 20.431 100.565 20.8448 100.517 21.1247C100.477 21.2116 100.398 21.2778 100.405 21.3847Z" fill="white"/>
<path fill-rule="evenodd" clip-rule="evenodd" d="M102.846 24.2997C103.053 24.7127 103.506 25.0268 103.552 25.5004C103.659 25.3729 103.732 25.2269 103.805 25.0873C103.798 24.9534 103.644 24.9534 103.584 24.8473C103.524 24.6743 103.618 24.5211 103.644 24.3666C103.558 24.1195 103.351 23.8866 103.119 23.7406L102.846 24.2997Z" fill="white"/>
<path fill-rule="evenodd" clip-rule="evenodd" d="M103.667 23.247L104.146 23.9C104.351 23.5731 104.351 23.0938 104.272 22.6993C104.226 22.6259 104.139 22.5063 104.019 22.5597C103.838 22.747 103.813 23.0326 103.667 23.247Z" fill="white"/>
<path fill-rule="evenodd" clip-rule="evenodd" d="M101.715 5.00308C101.888 5.08996 102.055 5.16973 102.26 5.18254C102.401 5.1099 102.581 5.05649 102.754 5.10278C103 5.26302 103.299 5.06931 103.585 5.08284C103.333 4.84355 103.046 4.69684 102.754 4.55725C102.381 4.6363 102.082 4.90195 101.715 5.00308Z" fill="white"/>
<path fill-rule="evenodd" clip-rule="evenodd" d="M104.319 5.62985C104.671 5.66261 104.924 5.97525 105.164 6.23734C105.464 6.28291 105.69 6.49586 105.869 6.71663L105.756 6.36268C105.676 6.00873 105.457 5.73525 105.231 5.45679C104.912 5.47673 104.597 5.50308 104.319 5.62985Z" fill="white"/>
<path fill-rule="evenodd" clip-rule="evenodd" d="M79.472 2.70496L79.6648 2.7249C80.1848 2.98484 81.0236 3.11802 81.0698 3.87079C80.5455 4.07804 80.039 4.35864 79.62 4.78381C79.3005 4.45692 78.6539 4.6371 78.5479 4.06451C78.6482 3.52467 78.8402 2.84597 79.472 2.70496Z" fill="#FF6600"/>
<path fill-rule="evenodd" clip-rule="evenodd" d="M79.9726 6.08488C80.5774 6.03218 81.1636 6.11693 81.7903 6.06494C81.9433 6.13117 82.1027 6.26506 82.1759 6.41818C82.156 7.13748 81.9362 7.82474 81.9027 8.56398C81.6303 8.67864 81.3635 8.9044 81.2973 9.20423C81.0505 9.27687 80.8306 9.425 80.5909 9.53681C80.4842 9.31105 80.5041 8.97063 80.6919 8.78475C80.9509 8.41727 81.6239 8.50415 81.5691 7.92444C81.7427 7.64384 81.5762 7.28419 81.5833 6.99077C81.5164 6.77142 81.4503 7.06413 81.3436 7.05701C81.1308 7.10259 80.911 7.11683 80.7253 7.01143C80.5845 6.86329 80.4116 6.74436 80.3718 6.54424C80.1854 6.45094 79.9662 6.30423 79.873 6.11052L79.9726 6.08488Z" fill="#FF6600"/>
<path fill-rule="evenodd" clip-rule="evenodd" d="M80.7049 10.4306C80.9893 10.4698 81.2902 10.3438 81.5363 10.4833C81.4829 10.5766 81.3435 10.6165 81.2305 10.6436L80.7845 10.8508C80.6181 10.8095 80.7113 10.5432 80.7049 10.4306Z" fill="#FF6600"/>
<path fill-rule="evenodd" clip-rule="evenodd" d="M81.8707 4.86428C82.1559 4.77098 82.4631 4.57869 82.7689 4.67199C82.5492 4.89205 82.3763 5.17835 82.2106 5.44399L81.2988 5.42476C81.397 5.18547 81.6495 4.98535 81.8707 4.86428Z" fill="#FF6600"/>
<path fill-rule="evenodd" clip-rule="evenodd" d="M84.5404 4.64488C84.9188 4.57865 84.8989 5.07148 85.2452 5.09213C85.3057 5.1719 85.3925 5.24454 85.3583 5.36419C85.1585 5.44395 84.8661 5.40478 84.6386 5.45748C84.3391 5.29083 84.5333 4.77094 84.0596 4.80441C84.034 4.76524 83.98 4.68477 84.0468 4.6577C84.194 4.60571 84.3854 4.62494 84.5404 4.64488Z" fill="#FF6600"/>
<path fill-rule="evenodd" clip-rule="evenodd" d="M84.3006 6.43177C84.4664 6.19746 84.7204 6.17894 84.9594 6.13123L86.6839 6.1647C86.7572 6.23093 86.6178 6.29075 86.6178 6.37123C86.511 6.47093 86.3574 6.498 86.2642 6.59201C86.0387 6.59913 86.0572 6.86406 85.8978 6.97801C85.6509 7.22442 85.2924 7.1119 85.0057 7.0713C84.9054 6.99795 84.793 6.89753 84.746 6.78429L84.6663 6.86406C84.7666 7.23795 84.7396 7.65173 84.8122 8.03061L85.2248 8.3048C85.2319 8.91798 85.9512 8.75133 86.2642 9.09175C86.1909 9.3111 86.0444 9.4977 85.8857 9.685C85.6324 9.43787 85.3457 9.27692 85.0398 9.17152C85.0135 8.81116 84.6208 8.59893 84.4002 8.41803C84.3405 7.76496 84.327 7.09836 84.2217 6.46524L84.3006 6.43177Z" fill="#FF6600"/>
<path fill-rule="evenodd" clip-rule="evenodd" d="M84.9255 10.5431H85.7249L85.6247 10.9633L84.8252 10.6229C84.8068 10.5567 84.8786 10.5367 84.9255 10.5431Z" fill="#FF6600"/>
<path fill-rule="evenodd" clip-rule="evenodd" d="M86.3635 2.9926L86.9561 2.8053C87.2962 2.96483 87.6156 3.16566 87.9279 3.39142C88.1748 3.84579 88.1335 4.45755 88.0211 4.96391C87.8411 5.16475 87.4484 4.96391 87.3026 5.28368H87.2756C87.055 4.65768 86.4304 4.09862 85.8506 3.81089C85.9438 3.49184 86.0441 3.17919 86.3635 2.9926Z" fill="#FF6600"/>
<path fill-rule="evenodd" clip-rule="evenodd" d="M100.251 28.3854H103.803C104.329 28.3056 104.888 28.3184 105.307 27.931C107.085 28.2052 108.889 27.7651 110.287 26.7858C111.025 26.189 111.688 25.4996 112.223 24.7469C112.696 24.0831 113.069 23.4628 113.31 22.72C113.49 22.2606 113.632 21.7842 113.739 21.2935C114.247 18.9839 113.981 16.4008 113.231 14.2016C113.091 13.7935 112.936 13.4004 112.764 13.023C111.826 11.083 110.552 8.99062 108.585 7.76282C107.477 7.07129 106.459 6.0016 105.834 4.8963C105.494 4.58864 105.167 4.18269 104.729 4.10934C104.849 4.30946 104.981 4.50246 105.015 4.73535L104.988 4.76882C104.523 4.78235 104.156 4.53594 103.836 4.23468L104.19 3.91563C104.056 3.84939 103.903 3.82162 103.757 3.78957C102.411 3.63645 101.307 4.25534 100.116 4.55588L100.096 4.62211C100.827 4.94829 100.98 5.75447 101.407 6.30214C101.514 6.17466 101.694 6.26796 101.839 6.25442C102.052 6.26796 102.252 6.42107 102.458 6.36766C102.465 6.18819 102.366 6.0486 102.332 5.88908C102.458 5.82783 102.612 5.88195 102.751 5.88908C103.137 6.11484 103.757 5.84777 103.996 6.36766C103.557 6.39543 103.144 6.48731 102.732 6.58772C102.758 6.75437 102.924 6.88826 102.912 7.05491C102.558 6.90678 102.186 6.81562 101.792 6.7679L101.774 6.82702C102.273 7.41385 102.958 7.76068 103.657 7.96793C104.662 8.20081 105.547 7.72151 106.518 7.88816C108.904 8.98136 110.94 11.4818 111.826 13.8548C111.87 13.9687 111.911 14.0841 111.951 14.2002C112.693 16.3674 112.833 19.033 112.09 21.2921C111.695 22.2336 111.259 23.1195 110.562 23.8851C110.298 24.2092 110.005 24.499 109.688 24.7454C108.688 25.5246 107.456 25.8671 106.187 25.5174C106.108 25.4655 105.946 25.4512 105.973 25.3116C106.018 25.1265 106.059 24.937 106.095 24.7454C106.306 23.6608 106.403 22.5213 106.347 21.3832C106.344 21.3341 106.343 21.285 106.341 21.2365C106.272 19.5829 105.942 18.0951 105.335 16.6651C104.946 15.8439 104.483 14.9487 103.9 14.1447C103.205 13.1861 102.342 12.3578 101.233 11.9447C100.554 11.7646 99.7144 11.7318 99.2029 12.2987C98.8358 12.6185 98.6836 13.0515 98.7362 13.5243C98.1635 13.889 97.5197 14.0855 96.8189 14.1447C96.6475 14.1596 96.471 14.2216 96.2939 14.2209C96.1239 14.2287 95.9581 14.2209 95.798 14.2002C94.9529 14.0962 94.1006 13.6426 93.4525 13.1205C93.4389 12.7758 93.4183 12.4475 93.4055 12.0822C93.0334 11.8885 92.7275 11.521 92.7005 11.0887L92.7346 11.0552C92.9473 11.1215 93.1337 11.2283 93.3258 11.3422C93.239 10.8223 93.1401 10.3089 92.8805 9.85591C92.6407 9.75549 92.3996 9.67644 92.174 9.55537C91.9144 9.38231 91.7479 9.06895 91.7095 8.78195C91.9414 9.00984 92.3476 8.92937 92.5276 9.16937C92.2153 8.24283 92.2082 7.1831 91.6952 6.33632C91.4356 5.70961 90.7562 5.42331 90.2902 4.96253C90.1102 4.74318 90.0376 4.43694 89.7111 4.40276C89.445 4.33653 89.4244 4.03599 89.3781 3.8437C89.5446 3.86293 89.684 3.97688 89.8249 4.00323C89.4379 2.97626 89.0985 1.83749 88.0535 1.18442L87.8735 1.29695C87.468 1.35819 87.0347 1.38383 86.6285 1.39736C86.8085 1.1303 87.1279 1.01777 87.3812 0.896701C87.0874 0.67735 86.8469 0.623937 86.4798 0.563401C86.2671 0.777767 85.8829 0.88317 85.6097 0.942993L85.577 0.917354C85.5699 0.678062 85.5144 0.38322 85.8744 0.324109C85.5286 0.157459 84.9559 0.223692 84.6023 0.324109C84.502 0.584055 84.2182 0.816937 84.2367 1.12317C84.0318 1.33754 83.8852 1.62312 83.6711 1.77695C83.6654 1.26347 83.8824 0.789874 83.9763 0.357582C83.6768 0.470106 83.3723 0.629634 83.0799 0.770645C82.6068 0.497169 82.1088 0.223692 81.6037 0.0178722C81.5567 -0.00278096 81.4564 -0.0227219 81.4763 0.0634518C81.9089 0.376811 81.7417 0.962934 81.788 1.41018L81.5148 1.18442C81.3817 0.844 80.9968 0.597586 80.9314 0.223692C80.4782 0.310578 80.1887 0.430936 79.7689 0.611117L79.7106 0.643878C80.0229 0.643878 80.289 0.890291 80.4426 1.13671C79.9703 1.16377 79.5505 0.976465 79.0852 0.930886C79.0383 0.883882 78.9992 0.830468 78.9245 0.83759C78.6911 0.924476 78.4926 1.09113 78.2856 1.25137C77.8267 1.7036 77.36 2.20497 77.1409 2.80392C77.2946 2.83098 77.4874 2.82457 77.6005 2.91786C77.3487 3.07098 77.1281 3.33093 76.8813 3.47764C76.7952 3.82447 76.808 4.21759 76.7881 4.5979C76.5953 4.8906 76.3356 5.15055 76.209 5.47672C75.7963 6.81633 75.6896 8.30265 75.7501 9.82244C75.6163 9.9485 75.4428 10.0304 75.3175 10.1294L75.3311 11.4889H75.3638C75.425 11.2019 75.7643 11.0424 75.9699 10.8494H76.0368C76.0041 11.1556 75.9635 11.4619 75.9571 11.7759L75.5708 12.0957C75.1859 12.4354 75.5118 12.9475 75.4776 13.3741C75.5054 13.488 75.5239 13.6547 75.6057 13.6817C75.6512 13.5151 75.7978 13.3947 75.8902 13.2487C76.0567 13.2074 76.2026 13.075 76.3555 13.055C76.2709 13.3876 76.157 13.7145 76.0226 14.0343C75.9592 14.0763 75.8838 14.134 75.8198 14.2009C75.7522 14.2743 75.6982 14.3583 75.6854 14.4488C75.9841 16.0284 76.4551 17.5873 76.9951 19.0736C76.628 19.6925 76.421 20.4232 76.1158 21.0635C76.0724 21.1532 76.0332 21.2437 75.9962 21.3369C75.6903 22.1125 75.5971 22.9778 75.2165 23.7235C75.0636 23.6159 74.8978 23.5362 74.7249 23.4628C74.0043 23.2235 73.1726 23.3766 72.6476 23.9293C72.1809 23.8424 71.7014 23.9222 71.3343 24.1686C71.0725 24.3666 70.869 24.6044 70.753 24.8829C70.6748 25.0759 70.6371 25.286 70.6499 25.516C70.3497 25.7225 70.1896 26.0423 70.0907 26.3621C69.9506 27.0828 70.2031 27.8313 70.6157 28.3847L100.251 28.3854Z" fill="white"/>
<path fill-rule="evenodd" clip-rule="evenodd" d="M113.231 14.2024C113.091 13.7943 112.936 13.4012 112.764 13.0237C111.826 11.0837 110.552 8.99135 108.585 7.76355C107.477 7.07203 106.459 6.00233 105.834 4.89703C105.494 4.58937 105.167 4.18343 104.729 4.11007C104.849 4.3102 104.981 4.5032 105.015 4.73608L104.988 4.76955C104.523 4.78308 104.156 4.53667 103.836 4.23542L104.19 3.91636C104.056 3.85013 103.903 3.82235 103.757 3.7903C102.411 3.63719 101.307 4.25607 100.116 4.55661L100.096 4.62284C100.827 4.94902 100.98 5.75521 101.407 6.30287C101.514 6.17539 101.694 6.26869 101.839 6.25516C102.052 6.26869 102.252 6.42181 102.458 6.36839C102.465 6.18892 102.366 6.04934 102.332 5.88981C102.458 5.82856 102.612 5.88269 102.751 5.88981C103.137 6.11557 103.757 5.8485 103.996 6.36839C103.557 6.39617 103.144 6.48804 102.732 6.58846C102.758 6.75511 102.924 6.889 102.912 7.05565C102.558 6.90751 102.186 6.81635 101.792 6.76864L101.774 6.82775C102.273 7.41458 102.958 7.76141 103.657 7.96866C104.662 8.20154 105.547 7.72225 106.518 7.8889C108.904 8.98209 110.94 11.4826 111.826 13.8555C111.87 13.9695 111.911 14.0849 111.951 14.2009C112.693 16.3681 112.833 19.0338 112.09 21.2928C111.695 22.2343 111.259 23.1203 110.562 23.8859C110.298 24.2099 110.005 24.4998 109.688 24.7462C108.688 25.5253 107.456 25.8679 106.187 25.5182C106.108 25.4662 105.946 25.4519 105.973 25.3124C106.018 25.1272 106.059 24.9377 106.095 24.7462C106.306 23.6615 106.403 22.522 106.347 21.384C106.344 21.3348 106.343 21.2857 106.341 21.2373C106.272 19.5836 105.942 18.0958 105.335 16.6658C104.946 15.8446 104.483 14.9494 103.9 14.1454C103.205 13.1868 102.342 12.3585 101.233 11.9455C100.554 11.7653 99.7144 11.7325 99.2029 12.2994C98.8358 12.6192 98.6836 13.0522 98.7362 13.5251C98.1635 13.8897 97.5197 14.0863 96.8189 14.1454C96.6475 14.1603 96.471 14.2223 96.2939 14.2216C96.1239 14.2294 95.9581 14.2216 95.798 14.2009C94.9529 14.097 94.1006 13.6433 93.4525 13.1213C93.4389 12.7766 93.4183 12.4483 93.4055 12.0829C93.0334 11.8892 92.7275 11.5217 92.7005 11.0894L92.7346 11.056C92.9473 11.1222 93.1337 11.229 93.3258 11.343C93.239 10.8231 93.1401 10.3096 92.8805 9.85665C92.6407 9.75623 92.3996 9.67718 92.174 9.55611C91.9144 9.38305 91.7479 9.06969 91.7095 8.78268C91.9414 9.01058 92.3476 8.9301 92.5276 9.17011C92.2153 8.24356 92.2082 7.18384 91.6952 6.33706C91.4356 5.71034 90.7562 5.42404 90.2902 4.96326C90.1102 4.74391 90.0376 4.43768 89.7111 4.40349C89.445 4.33726 89.4244 4.03672 89.3781 3.84443C89.5446 3.86366 89.684 3.97761 89.8249 4.00396C89.4379 2.977 89.0985 1.83822 88.0535 1.18515L87.8735 1.29768C87.468 1.35893 87.0347 1.38456 86.6285 1.3981C86.8085 1.13103 87.1279 1.0185 87.3812 0.897434C87.0873 0.678082 86.8469 0.624669 86.4798 0.564134C86.2671 0.7785 85.8829 0.883902 85.6097 0.943725L85.577 0.918087C85.5699 0.678795 85.5144 0.383952 85.8744 0.324842C85.5286 0.158192 84.9559 0.224424 84.6023 0.324842C84.502 0.584787 84.2182 0.81767 84.2367 1.12391C84.0318 1.33827 83.8852 1.62386 83.6711 1.77769C83.6654 1.26421 83.8824 0.790607 83.9763 0.358314C83.6768 0.470838 83.3723 0.630366 83.0799 0.771378C82.6068 0.497901 82.1088 0.224424 81.6037 0.0186047C81.5567 -0.00204846 81.4564 -0.0219896 81.4763 0.0641841C81.9089 0.377543 81.7417 0.963666 81.788 1.41091L81.5148 1.18515C81.3817 0.844732 80.9968 0.598318 80.9314 0.224424C80.4782 0.31131 80.1887 0.431669 79.7689 0.61185L79.7106 0.64461C80.0229 0.64461 80.289 0.891024 80.4426 1.13744C79.9703 1.1645 79.5505 0.977198 79.0852 0.931618C79.0383 0.884614 78.9992 0.831201 78.9245 0.838323C78.6911 0.925209 78.4926 1.09186 78.2856 1.2521C77.8267 1.70433 77.36 2.20571 77.1409 2.80465C77.2946 2.83171 77.4874 2.8253 77.6005 2.9186C77.3487 3.07172 77.1281 3.33166 76.8813 3.47837C76.7952 3.8252 76.808 4.21832 76.7881 4.59863C76.5953 4.89133 76.3356 5.15128 76.209 5.47746C75.7963 6.81707 75.6896 8.30338 75.7501 9.82317C75.6163 9.94923 75.4428 10.0311 75.3175 10.1301L75.3311 11.4897H75.3638C75.425 11.2027 75.7643 11.0431 75.9699 10.8501H76.0368C76.0041 11.1564 75.9635 11.4626 75.9571 11.7767L75.5708 12.0964C75.1859 12.4362 75.5118 12.9482 75.4776 13.3748C75.5054 13.4888 75.5239 13.6554 75.6057 13.6825C75.6512 13.5158 75.7978 13.3955 75.8902 13.2495C76.0567 13.2082 76.2026 13.0757 76.3555 13.0558C76.2709 13.3883 76.157 13.7152 76.0226 14.035C75.9592 14.077 75.8838 14.1347 75.8198 14.2017C75.7522 14.275 75.6982 14.359 75.6854 14.4495C75.9841 16.0291 76.4551 17.5881 76.9951 19.0744C76.628 19.6933 76.421 20.424 76.1158 21.0642C76.0724 21.1539 76.0332 21.2444 75.9962 21.3377C75.6903 22.1132 75.5971 22.9785 75.2165 23.7242C75.0636 23.6167 74.8978 23.5369 74.7249 23.4635C74.0043 23.2242 73.1726 23.3774 72.6476 23.93C72.1809 23.8431 71.7014 23.9229 71.3343 24.1693C71.0725 24.3673 70.869 24.6052 70.753 24.8836C70.6748 25.0766 70.6371 25.2867 70.6499 25.5168C70.3497 25.7233 70.1896 26.0431 70.0907 26.3628C69.9506 27.0835 70.2031 27.832 70.6157 28.3854H82.3806C82.2077 28.1796 82.0476 27.8926 81.9267 27.6462C81.6748 27.2651 81.8477 26.726 81.8207 26.2859C82.0604 25.8016 82.3037 25.3145 82.5776 24.8409C82.6331 24.7455 82.6886 24.6522 82.7455 24.5596L83.2855 24.353C83.5715 24.353 83.812 24.1465 84.0844 24.2192C84.4508 24.5866 84.4508 23.8531 84.8044 23.8196C85.6296 23.7128 86.4485 23.7926 86.9138 24.4926C86.9138 24.5859 87.0617 24.5859 87.0276 24.6728C86.9209 24.7049 86.8206 24.6386 86.7082 24.6386C86.2023 24.5126 85.609 24.1914 85.1103 24.4784C85.0911 24.598 85.0655 24.7198 85.0413 24.8395C85.0164 24.9669 84.9936 25.0916 84.983 25.2112C85.3088 25.3045 85.582 25.5381 85.8281 25.7909C85.9946 25.4648 86.3475 25.3181 86.6605 25.2112C86.9337 25.271 87.2332 25.2782 87.4601 25.4512C87.8799 25.8387 87.6728 26.4981 87.6337 26.991C88.0122 27.2039 88.4319 27.325 88.8175 27.5308C88.6375 27.6925 88.3992 27.758 88.1794 27.8385L87.5405 27.711C87.4672 27.6583 87.3399 27.6583 87.3136 27.565C87.1009 27.7907 86.8412 28.0913 86.7082 28.384H95.8286C95.7084 28.1105 95.5689 27.8976 95.4025 27.6447C95.2154 27.2445 95.2901 26.6975 95.2694 26.2709L96.1217 24.9712C96.587 24.9648 97.1142 24.791 97.6193 24.8779C97.6449 24.8665 97.6691 24.8537 97.6926 24.8388C97.9024 24.6935 97.9664 24.3559 98.2788 24.3979C98.8372 24.2455 99.2641 24.499 99.6838 24.7519C99.6696 24.7853 99.6561 24.8145 99.6411 24.8388C99.4654 25.1201 99.1367 24.806 98.897 24.8907C98.7967 24.9976 98.9439 25.1236 98.9632 25.2447C99.0499 25.3636 98.8764 25.3501 98.8173 25.3708C98.6779 25.3907 98.5249 25.3572 98.4175 25.2447C98.3912 25.2105 98.4111 25.1713 98.3584 25.1649C98.2375 25.3636 98.0646 25.5445 98.0184 25.771C98.1706 25.9184 98.3769 26.0644 98.4509 26.2517C98.6039 26.4718 98.3307 26.6377 98.2781 26.8314C98.2581 26.8706 98.1969 26.8706 98.1777 26.8314C98.0369 26.7517 97.9181 26.5508 97.7644 26.6035C97.6307 27.1975 97.8107 27.7907 97.731 28.384C97.9906 28.4452 98.2965 28.3705 98.5761 28.384L98.69 27.1305C98.8088 26.318 99.2897 25.6378 99.8553 25.0168C100.466 24.5988 100.861 25.4249 101.312 25.7112C101.386 25.7247 101.36 25.8045 101.392 25.8508C101.386 25.9847 101.246 26.0374 101.153 26.0779C100.873 26.1769 100.666 25.8707 100.493 25.6905C100.328 25.8707 100.254 26.11 100.061 26.251L100.127 26.2702C100.348 26.491 100.56 26.7239 100.608 27.0173C100.581 27.283 100.448 27.5429 100.207 27.6775C100.029 27.3698 99.8816 27.0301 99.7628 26.7168C99.7692 26.731 99.755 26.7367 99.7422 26.751C99.3751 26.8499 99.2776 27.263 99.2164 27.597C99.2363 27.9239 98.9902 28.0571 99.0556 28.3833H103.804C104.329 28.3035 104.889 28.3163 105.308 27.9289C107.086 28.2031 108.89 27.763 110.288 26.7837C111.025 26.1869 111.688 25.4975 112.224 24.7448C112.696 24.081 113.07 23.4607 113.311 22.7179C113.49 22.2585 113.633 21.7821 113.74 21.2914C114.247 18.9839 113.981 16.4009 113.231 14.2024Z" fill="#FF6600"/>
<path fill-rule="evenodd" clip-rule="evenodd" d="M82.6769 26.5729C82.9365 26.4062 83.3561 26.3656 83.4152 25.9796C83.3099 25.8992 83.216 25.7988 83.0958 25.7724L82.8227 25.8522C82.8426 25.6919 82.9294 25.5125 82.9842 25.3394L83.8618 25.0531C83.7409 25.4526 83.6954 25.9526 83.6548 26.4127C83.7345 27.0928 83.8348 27.8192 84.1811 28.3854H83.2352C83.1293 27.7594 82.4756 27.305 82.6769 26.5729Z" fill="#FF6600"/>
<path fill-rule="evenodd" clip-rule="evenodd" d="M84.7213 25.7723H84.7739L85.4119 26.3528L85.5051 26.3328C85.4532 27.013 85.419 27.6796 85.4119 28.3853H84.7206C84.5798 27.7258 84.3472 27.0322 84.3742 26.32C84.4937 26.1398 84.5734 25.9126 84.7213 25.7723Z" fill="#FF6600"/>
<path fill-rule="evenodd" clip-rule="evenodd" d="M86.1452 26.4134C86.2725 26.2474 86.3252 25.9661 86.5776 25.9341C86.7576 25.9391 86.924 25.9661 87.0584 26.0936C87.291 26.3863 87.0634 26.7609 86.9788 27.0536C86.8849 27.5002 86.7242 27.9659 86.5784 28.3861H85.9062L86.1452 26.4134Z" fill="#FF6600"/>
<path fill-rule="evenodd" clip-rule="evenodd" d="M96.2456 26.2061C96.3921 26.3934 96.4384 26.6462 96.6581 26.8129C96.8516 26.5465 96.8978 26.1327 96.8046 25.793L96.6119 25.5993C96.8587 25.5402 97.1176 25.5196 97.3644 25.4733C97.2577 25.8265 97.0564 26.1463 97.0913 26.5593C97.0977 27.1597 97.1972 27.7601 97.2506 28.3854H96.5187C96.2527 27.7985 95.986 27.2395 96.0059 26.5593C96.0856 26.439 96.1389 26.2987 96.2456 26.2061Z" fill="#FF6600"/>
<path fill-rule="evenodd" clip-rule="evenodd" d="M99.3952 13.4004C99.3881 13.5735 99.2622 13.7657 99.3746 13.9139C99.5361 13.7337 99.8015 13.7401 100.015 13.6603C100.608 13.6062 101.173 13.7935 101.725 13.9274C101.586 13.7066 101.493 13.4602 101.339 13.2608C101.032 13.1803 100.566 13.394 100.514 12.9396C100.327 12.7801 100.035 12.894 99.8413 12.9069C99.6542 13.04 99.5019 13.2067 99.3952 13.4004Z" fill="white"/>
<path fill-rule="evenodd" clip-rule="evenodd" d="M79.0472 7.64534C79.044 7.64376 79.0409 7.64061 79.0361 7.63745C79.0361 7.64061 79.0377 7.64218 79.0377 7.64534H79.0472Z" fill="white"/>
<path fill-rule="evenodd" clip-rule="evenodd" d="M81.467 13.5699L81.8668 13.1839C81.901 13.1839 81.9273 13.1903 81.9465 13.216L81.9138 13.9559C82.1066 14.1361 82.3449 14.1952 82.5981 14.2095C82.6188 14.0101 82.7717 13.869 82.8585 13.696C82.9318 13.5564 82.8856 13.3499 83.0314 13.2509L83.0784 13.2964C83.1239 13.5172 83.1111 13.7636 83.2249 13.9559C83.2384 14.0628 83.2569 14.1952 83.2697 14.2892C83.5636 14.3028 83.8303 14.223 84.0559 14.1155C84.0423 13.8626 84.1298 13.6561 84.1683 13.4239C84.2294 13.3435 84.095 13.196 84.2615 13.2032C84.3554 13.4033 84.5211 13.6091 84.615 13.8235C85.0006 13.4303 85.1621 12.9176 85.2532 12.3834C85.1408 12.231 84.9679 12.231 84.8334 12.1306C83.7023 11.7646 82.2517 11.6912 81.1596 12.2574C81.0864 12.7089 81.1796 13.2089 81.467 13.5699Z" fill="white"/>
<path fill-rule="evenodd" clip-rule="evenodd" d="M70.8852 26.0772C70.8446 26.5907 70.8852 27.0721 70.9179 27.5792C71.0246 27.7458 71.2187 27.9396 71.4115 27.9517L71.4442 27.6112C71.5238 27.1384 71.2714 26.6363 71.5381 26.236C71.7244 26.2951 71.9107 26.3891 72.0708 26.4753C72.1504 26.0359 72.0366 25.5217 71.617 25.2546L70.8852 26.0772Z" fill="white"/>
<path fill-rule="evenodd" clip-rule="evenodd" d="M72.5298 25.3565C72.2702 26.1371 72.0775 27.0978 72.3904 27.9197C72.5704 27.7986 72.756 27.6854 72.9153 27.5194C72.8826 26.892 72.7958 26.224 73.1685 25.7027C73.4942 25.8031 73.7147 26.1164 73.8399 26.422C74.0611 26.1428 74.1336 25.7554 74.0476 25.3836C74.0611 25.0895 73.7282 25.1571 73.5682 25.0368C73.6208 24.7897 73.6137 24.5048 73.874 24.3638L73.076 24.4435C72.8698 24.7377 72.6436 25.0225 72.5298 25.3565Z" fill="white"/>
<path fill-rule="evenodd" clip-rule="evenodd" d="M74.1748 27.6596C74.2082 27.7187 74.1748 27.8263 74.2424 27.8398C74.3413 27.2793 74.7937 26.9168 75.0413 26.4226C75.1601 26.2581 75.1544 26.023 75.3472 25.897C75.6062 25.897 75.7933 26.0836 76.0466 26.1035C76.1262 26.164 76.0053 26.2175 75.9989 26.2837C75.9463 26.7381 75.7734 27.1127 75.8061 27.5799H75.8523C76.2052 27.206 76.445 26.8036 76.7046 26.377L76.7502 25.9981C76.8113 25.5445 76.319 25.2517 75.9975 25.0644L76.2842 24.697L75.8844 24.5574C75.4184 24.6037 74.9986 24.7974 74.6728 25.1649C74.2673 25.9098 74.2011 26.753 74.1748 27.6596Z" fill="white"/>
<path fill-rule="evenodd" clip-rule="evenodd" d="M75.9658 23.7043C76.1181 23.7498 76.2582 23.6245 76.4105 23.69C77.0237 23.9172 77.6626 24.1501 78.1221 24.6629L78.6685 26.0566L78.9417 25.1956L78.7617 24.7305C78.6081 24.3972 78.189 24.4243 77.9023 24.4107C77.7828 24.2769 77.9087 24.1237 77.9493 23.9977C78.0887 23.5241 77.5096 23.5504 77.277 23.3574C77.2905 23.0718 76.944 23.1701 76.7505 23.1445L76.6844 23.0647C76.6445 23.0035 76.5449 23.0035 76.4909 23.0505C76.4788 23.0305 76.4517 23.017 76.4652 22.9843L76.3194 23.017C76.1117 23.1972 75.9722 23.4301 75.9658 23.7043Z" fill="white"/>
<path fill-rule="evenodd" clip-rule="evenodd" d="M76.3516 22.1709C76.3722 22.2563 76.4248 22.3432 76.491 22.3973C76.7912 22.3176 77.0786 22.1096 77.4237 22.2371C77.8705 22.6302 78.3357 23.0433 78.8757 23.2562L79.0692 23.2235C79.188 23.2626 79.321 23.269 79.4007 23.4036C79.4747 23.5838 79.2883 23.6892 79.2293 23.8359C79.5281 24.0567 79.4093 24.4491 79.5949 24.7155L80.0737 24.0767C79.962 23.7961 80.0808 23.3168 79.6426 23.2897C79.4946 23.2163 79.3957 23.0703 79.4014 22.9037C79.1162 22.6437 78.7633 22.5305 78.4773 22.2634C78.2425 22.0776 78.1038 21.7913 77.805 21.7243C77.598 21.6104 77.3717 21.5506 77.1327 21.4986C76.6852 21.4302 76.6454 21.9636 76.3516 22.1709Z" fill="white"/>
<path fill-rule="evenodd" clip-rule="evenodd" d="M76.9912 20.8577L77.0709 20.9859C77.4038 20.9652 77.7026 20.8192 78.0292 20.8249C78.2483 20.9581 78.535 20.951 78.7612 21.0649C78.9412 21.3121 79.1347 21.5905 79.3994 21.7572C79.9394 21.8369 80.2382 22.4188 80.4245 22.8439V22.6381C80.5042 22.3511 80.4174 22.0171 80.3129 21.7572C80.1791 21.624 79.9849 21.5378 79.8462 21.4189C79.8191 21.332 79.839 21.2907 79.8661 21.2116C79.6591 20.9916 79.3531 20.8712 79.0999 20.6974C78.747 20.184 78.069 20.3257 77.5291 20.184L76.9912 20.8577Z" fill="white"/>
<path fill-rule="evenodd" clip-rule="evenodd" d="M76.9805 15.9686C77.0395 16.1758 77.1113 16.435 77.1519 16.6558C77.3375 16.2427 77.7052 16.0554 78.0309 15.7164C77.8439 15.5897 77.6113 15.5291 77.4058 15.49V15.4764C77.2586 15.6217 77.0324 15.7691 76.9805 15.9686Z" fill="white"/>
<path fill-rule="evenodd" clip-rule="evenodd" d="M78.1895 18.162L78.4882 17.8558C78.7883 17.5481 79.0358 17.1941 79.0806 16.8017C78.868 16.6757 78.5884 16.7626 78.3829 16.8359C78.3096 17.2675 78.1959 17.6941 78.1895 18.162Z" fill="white"/>
<path fill-rule="evenodd" clip-rule="evenodd" d="M78.4082 19.1021C78.8677 19.1277 79.3143 19.221 79.687 18.9611L80.0604 17.7618C79.9395 17.7547 79.8193 17.7005 79.7069 17.7418C79.4608 18.2874 78.9686 18.8279 78.4082 19.1021Z" fill="white"/>
<path fill-rule="evenodd" clip-rule="evenodd" d="M78.5435 14.8498C78.843 15.2892 79.3429 15.7813 79.8543 15.9223C79.7953 15.3618 79.3159 14.9751 79.0691 14.4965L79.0556 14.3363C78.8629 14.1497 78.6296 14.0222 78.4297 13.9232C78.3977 14.243 78.4845 14.5485 78.5435 14.8498Z" fill="white"/>
<path fill-rule="evenodd" clip-rule="evenodd" d="M80.166 19.1549C80.5188 19.2147 80.8986 19.1549 81.2243 19.0544C81.6966 18.9405 81.9569 18.4213 82.1162 18.0154H81.5237L80.8858 18.6414C80.6333 18.7739 80.3936 18.974 80.166 19.1549Z" fill="white"/>
<path fill-rule="evenodd" clip-rule="evenodd" d="M80.0947 14.2429C80.195 14.7635 80.4155 15.2364 80.7149 15.6829L80.7939 14.6895L80.0947 14.2429Z" fill="white"/>
<path fill-rule="evenodd" clip-rule="evenodd" d="M82.2767 16.8353C82.3173 16.502 82.1779 16.1145 82.1387 15.7763C81.9389 15.6424 81.6601 15.6552 81.4531 15.5234C81.4666 16.0483 81.8777 16.4956 82.2767 16.8353Z" fill="white"/>
<path fill-rule="evenodd" clip-rule="evenodd" d="M81.6719 20.221C82.0908 20.0878 82.4969 19.9411 82.8838 19.7282C83.1299 19.3742 83.5018 19.0552 83.5559 18.6421C83.2479 18.7283 82.9834 18.6278 82.6967 18.7689C82.5239 19.0815 82.4165 19.4362 82.0844 19.6619C82.031 19.887 81.785 20.0408 81.6719 20.221Z" fill="white"/>
<path fill-rule="evenodd" clip-rule="evenodd" d="M82.3232 21.0407L82.8225 21.6938C83.0892 21.78 83.4221 21.7543 83.6546 21.6012L83.4761 21.0087C83.1227 21.1404 82.703 21.102 82.3232 21.0407Z" fill="white"/>
<path fill-rule="evenodd" clip-rule="evenodd" d="M83.1562 16.3225L83.349 17.2013C83.8148 16.8225 83.9109 16.2691 83.8973 15.683C83.6313 15.9892 83.477 16.1758 83.1562 16.3225Z" fill="white"/>
<path fill-rule="evenodd" clip-rule="evenodd" d="M84.4688 17.8744C84.4752 18.0019 84.5079 18.1215 84.5804 18.2212C85.0996 18.4085 85.153 19.0402 85.633 19.2802C85.9445 19.4212 86.3051 19.2475 86.5768 19.12C86.3713 18.8871 86.1387 18.7269 85.9388 18.4812C85.7994 18.4213 85.6579 18.3345 85.6657 18.1614L84.4688 17.8744Z" fill="white"/>
<path fill-rule="evenodd" clip-rule="evenodd" d="M84.8807 21.0214C85.1062 21.28 85.412 21.4146 85.7313 21.4865C85.6787 21.4139 85.7655 21.4865 85.7783 21.4409L85.3786 20.5607C85.1787 20.5678 84.9718 20.6084 84.7861 20.5949C84.8011 20.7416 84.8331 20.8876 84.8807 21.0214Z" fill="white"/>
<path fill-rule="evenodd" clip-rule="evenodd" d="M85.5864 16.9158C85.3993 16.4827 85.3225 15.955 85.2678 15.4764C85.0693 15.7164 84.8624 15.8703 84.6753 16.1153C84.5885 16.6081 85.2934 16.7285 85.5864 16.9158Z" fill="white"/>
<path fill-rule="evenodd" clip-rule="evenodd" d="M86.3979 16.4614C86.639 16.7762 87.1639 16.6694 87.457 16.5754C87.3168 16.3354 86.8659 16.1944 86.7863 15.9366C86.7407 15.4765 86.6469 15.0285 86.4996 14.6105C86.2671 15.1759 85.9854 15.8497 86.3979 16.4614Z" fill="white"/>
<path fill-rule="evenodd" clip-rule="evenodd" d="M86.8174 17.8743C87.4833 18.3607 88.1364 18.9276 89.0669 18.7204C89.1338 18.6748 89.2476 18.6798 89.2604 18.5943C88.9872 18.4213 88.6948 18.2867 88.4152 18.1271L88.0965 17.6614H87.95C87.59 17.7803 87.2044 17.8287 86.8174 17.8743Z" fill="white"/>
<path fill-rule="evenodd" clip-rule="evenodd" d="M86.8311 23.2798H86.8787C87.2778 22.96 87.7502 22.8524 88.2226 22.72C88.35 22.767 88.2696 22.9073 88.3834 22.96C88.6694 22.8411 89.0158 22.8667 89.3082 22.767C89.6611 22.7798 89.9478 22.7862 90.2338 22.9393C90.4615 23.2399 90.8862 23.2057 91.18 23.4065L91.1323 22.9393C90.5141 22.2129 89.5487 22.1602 88.6566 22.1737L88.6367 22.0804C88.4239 22.0804 88.1842 22.126 87.9843 22.22C87.699 22.2336 87.4251 22.3731 87.1519 22.4593C87.0246 22.7129 86.9243 23.0212 86.8311 23.2798Z" fill="white"/>
<path fill-rule="evenodd" clip-rule="evenodd" d="M87.3662 15.0891C87.6251 15.4295 88.0113 15.6901 88.4508 15.6033C88.2254 15.3818 87.9643 15.1489 87.9515 14.8362C88.0184 14.243 87.3662 14.1953 87.0469 13.889C87.1536 14.2893 87.1393 14.7358 87.3662 15.0891Z" fill="white"/>
<path fill-rule="evenodd" clip-rule="evenodd" d="M87.2979 24.4591H87.3775C87.7297 24.2397 88.2426 24.4071 88.5891 24.1735C88.7819 24.0731 88.7954 24.3402 88.9284 24.4135C89.255 24.6122 89.2955 25.2126 89.7544 25.073C90.3058 25.3593 90.167 26.0323 90.1869 26.5251L90.6999 26.2061C90.6529 25.9461 90.8002 25.6328 90.633 25.4063C90.5064 25.12 90.1599 25.0936 89.9934 24.8608C90.1941 24.5203 89.7409 24.3594 89.647 24.113L89.6747 24.0802L90.3804 24.1735C90.6202 24.3195 90.707 24.5866 90.7803 24.8337C91.3316 24.927 91.4647 25.553 91.6582 25.9525C91.772 25.6798 91.8182 25.3856 91.9314 25.1193C91.9385 24.8992 91.6454 24.8992 91.4988 24.7995C91.4597 24.4591 91.306 24.14 91.0065 23.9342C90.394 23.779 89.8554 23.4407 89.1831 23.4407L88.6239 23.613C88.3166 23.6871 87.9908 23.5938 87.7574 23.806C87.4103 23.8331 87.3846 24.2134 87.2979 24.4591Z" fill="white"/>
<path fill-rule="evenodd" clip-rule="evenodd" d="M87.6504 21.7138L87.7777 21.7743C88.0509 21.6475 88.3234 21.5008 88.6101 21.394C89.0547 21.2679 89.4012 21.7743 89.7754 21.4538C89.9141 21.3548 90.0351 21.5008 90.1404 21.5813C90.3026 21.874 90.6739 21.8541 90.9542 21.9331C90.8141 21.5542 90.6405 21.0343 90.1546 20.9738C89.9618 20.8876 89.7349 20.8947 89.5492 20.7808C89.0362 20.2146 88.704 21.248 88.1427 20.9952C87.9442 21.2138 87.6973 21.4218 87.6504 21.7138Z" fill="white"/>
<path fill-rule="evenodd" clip-rule="evenodd" d="M87.7773 24.9598C87.99 25.1399 88.2098 25.4469 88.5433 25.4063C88.9551 25.5993 88.7823 26.1462 89.0078 26.4333L89.2474 26.2196L89.2275 26.2054L89.2609 26.1726L89.2752 26.1911C89.3413 25.9924 89.2482 25.6392 89.1344 25.4049C88.9822 25.2988 88.8029 25.412 88.6557 25.3116C88.6358 25.0972 88.5028 24.9918 88.3499 24.8593C88.2432 24.7782 88.1031 24.885 87.9829 24.8779L87.7773 24.9598Z" fill="white"/>
<path fill-rule="evenodd" clip-rule="evenodd" d="M88.6094 16.8352C88.8284 17.2013 89.2545 17.4285 89.5944 17.6813C89.8746 17.8081 90.2395 17.8416 90.5396 17.7739C90.253 17.541 89.9927 17.2739 89.7544 16.9948C89.6606 16.8609 89.6406 16.6935 89.5148 16.5746C89.2018 16.6351 88.8483 16.628 88.6094 16.8352Z" fill="white"/>
<path fill-rule="evenodd" clip-rule="evenodd" d="M88.9766 14.4501C89.2824 14.8297 89.7554 14.6766 90.1878 14.6902V14.6431L89.5221 14.0834C89.3357 14.1425 89.1366 14.3091 88.9766 14.4501Z" fill="white"/>
<path fill-rule="evenodd" clip-rule="evenodd" d="M76.7207 8.16445L77.1062 9.36448C77.0991 8.68434 77.4134 8.11674 77.3466 7.4245L77.6318 6.99719L77.0258 7.1845C76.8665 7.49073 76.7335 7.79768 76.7207 8.16445Z" fill="white"/>
<path fill-rule="evenodd" clip-rule="evenodd" d="M76.9805 6.08495L77.5061 5.77872V4.99817C77.2849 5.13135 77.1661 5.35924 76.9933 5.53729L76.9805 6.08495Z" fill="white"/>
<path fill-rule="evenodd" clip-rule="evenodd" d="M87.779 7.29776C87.6523 7.4637 87.4595 7.505 87.2995 7.53705C87.5798 7.02499 87.7128 6.31139 87.493 5.73096C87.6388 5.67826 87.7989 5.6512 87.9383 5.57144L87.9248 5.55719L88.2912 5.23742C88.7771 4.90412 88.59 4.27171 88.77 3.79811C88.5309 3.42564 88.4577 2.97198 88.1112 2.65862L88.1311 2.64509C87.8579 2.29826 87.3656 2.33886 86.9928 2.1658C86.4991 1.99915 86.1199 2.33886 85.7663 2.56533C85.6134 2.59239 85.7073 2.7918 85.5408 2.78468C85.4476 3.03109 85.3338 3.29816 85.2669 3.57164C84.6081 3.47834 83.896 3.5517 83.3703 3.92488C83.0893 3.71763 82.7513 3.67847 82.4248 3.58517C82.185 3.53745 81.9126 3.62434 81.7397 3.49116C81.4871 3.20558 81.4323 2.68498 80.9991 2.61233C80.8461 2.55821 80.8141 2.39156 80.8141 2.24485C80.5274 2.19713 80.2734 2.06467 79.9953 2.00484C79.5691 1.81113 79.2298 2.11879 78.9103 2.32461C78.7695 2.38372 78.6101 2.40438 78.4771 2.48414C78.238 2.85803 78.0125 3.23763 77.8574 3.65069C77.9051 3.9904 78.0509 4.28951 78.2245 4.57723C78.3775 5.01024 78.857 5.35066 79.2625 5.52443C79.0697 6.18391 79.0697 6.96944 79.2625 7.63604C79.2625 7.63604 79.2518 7.6453 79.2518 7.64317C79.2518 7.6453 79.2305 7.66311 79.2305 7.66311C79.1679 7.66311 79.0982 7.67521 79.0462 7.64317H79.0377C79.133 8.27985 79.4318 8.8382 79.9156 9.31607C80.0892 9.3759 80.0486 9.58314 80.1212 9.71561C80.1681 9.77614 80.1753 9.9022 80.1553 9.95561C79.1159 9.92285 78.1904 10.1828 77.358 10.6557C77.1453 10.7625 77.2385 11.0552 77.2186 11.2625C77.8048 10.875 78.4365 10.5894 79.1359 10.462C79.4354 10.4435 79.774 10.3687 80.0614 10.4484L80.0942 11.0232C79.303 11.4369 78.4365 11.6762 77.7585 12.3564C77.7714 12.5622 77.7315 12.8015 77.7913 12.9752L78.3981 12.4824C78.9836 12.0352 79.5962 11.6556 80.2677 11.4092C80.4484 11.6221 80.6348 11.85 80.8746 11.9825C81.2801 11.7218 81.7205 11.5288 82.1865 11.4092C82.4326 11.2625 82.826 11.3956 82.9854 11.1029L83.0978 10.4962C83.0793 10.4826 83.0651 10.4556 83.0316 10.462C82.7193 10.2818 82.5123 9.96914 82.5393 9.60308C82.4326 9.65578 82.3138 9.68997 82.1865 9.69495C82.0812 9.66931 81.9801 9.64225 81.9339 9.53471C81.9275 9.40225 81.8599 9.20213 81.9944 9.10313C82.4262 8.83607 82.9861 8.82253 83.5318 8.86242C83.9373 8.91654 84.5235 8.89589 84.6643 9.3759C84.6444 9.5162 84.6572 9.67003 84.5171 9.76261C84.3705 9.84237 84.2048 9.75549 84.071 9.69495C83.965 10.0226 83.785 10.3886 83.4194 10.4954L83.4649 10.8814C83.5104 11.0552 83.5246 11.3415 83.7978 11.281C84.4303 11.4355 84.9902 11.7617 85.5422 12.1142C85.7293 11.9283 85.8752 11.7147 86.0075 11.521C86.9943 11.8557 87.8451 12.5949 88.659 13.2822L88.691 12.7217C87.9184 12.0345 87.0604 11.5488 86.1676 11.1692C86.2017 10.989 86.2416 10.8152 86.2487 10.6215C87.3066 10.682 88.3118 11.0089 89.1833 11.521L89.1698 11.0417C88.2513 10.5481 87.2461 10.222 86.1484 10.2091C86.1071 10.1493 86.0943 10.0624 86.1014 10.0026C86.6343 9.91644 87.0128 9.36379 87.1401 8.88236C87.414 8.56971 87.8067 8.22929 87.7135 7.76352C87.7249 7.72435 87.7384 7.68376 87.7526 7.64317C87.7875 7.5285 87.8174 7.40601 87.779 7.29776Z" fill="white"/>
<path fill-rule="evenodd" clip-rule="evenodd" d="M88.7031 9.01128L89.2486 8.83751L89.3098 8.53198C89.4627 8.08473 89.1363 7.75143 88.9762 7.39819L88.7031 9.01128Z" fill="white"/>
<path fill-rule="evenodd" clip-rule="evenodd" d="M90.0818 11.1229C90.3414 11.4099 90.5946 11.8693 91.0541 11.7297C91.02 11.536 90.9133 11.3757 90.8478 11.2027C90.7283 11.0631 90.6871 10.6628 90.4481 10.8031C90.2682 10.6835 90.2227 10.4834 90.1082 10.3231C90.0562 10.5702 90.089 10.8765 90.0818 11.1229Z" fill="white"/>
<path fill-rule="evenodd" clip-rule="evenodd" d="M90.1748 13.0757C90.2751 13.2153 90.3028 13.3962 90.401 13.523C90.5809 13.6419 90.8476 13.622 91.0681 13.6027C91.2665 13.5557 91.3938 13.7751 91.5795 13.649C91.3469 13.5023 91.2075 13.236 90.9885 13.0415C90.7281 12.8364 90.4486 13.0166 90.1748 13.0757Z" fill="white"/>
<path fill-rule="evenodd" clip-rule="evenodd" d="M90.5279 16.1758C90.9873 16.4486 91.5705 16.7156 92.1836 16.6223C92.2497 16.5896 92.3635 16.596 92.3763 16.5162C91.9965 16.3823 91.5982 16.0028 91.2 15.923C90.9802 15.5833 90.6936 16.0099 90.4141 15.9828C90.4205 16.0619 90.5001 16.1217 90.5279 16.1758Z" fill="white"/>
<path fill-rule="evenodd" clip-rule="evenodd" d="M91.9111 22.0605L92.0114 22.2735C92.1124 22.9672 92.5498 23.606 92.3108 24.3659C92.5107 24.5069 92.5704 24.7398 92.6977 24.9264H92.7305C92.8834 24.3474 92.7774 23.747 92.6977 23.1666C92.7575 22.6403 92.2241 22.334 91.9111 22.0605Z" fill="white"/>
<path fill-rule="evenodd" clip-rule="evenodd" d="M92.0264 15.2357C92.372 15.5027 92.9246 15.5284 93.3236 15.3959C93.0712 15.2563 92.7916 15.1018 92.5847 14.9159L92.0264 15.2357Z" fill="white"/>
<path fill-rule="evenodd" clip-rule="evenodd" d="M93.6696 17.2811C93.6368 17.5617 93.8225 17.7946 94.0223 17.9356C94.0956 17.7697 94.2144 17.628 94.2279 17.4421C94.1681 17.1558 94.0081 16.8951 93.7485 16.7014C93.703 16.888 93.6489 17.0682 93.6696 17.2811Z" fill="white"/>
<path fill-rule="evenodd" clip-rule="evenodd" d="M93.689 20.3214C93.6414 20.6341 93.9877 20.6747 94.1335 20.8477C94.2537 20.9944 94.0539 21.0949 94.0539 21.2345C94.3071 21.5606 94.4543 21.9324 94.4543 22.3668C94.5532 21.9609 94.7061 21.5742 94.7601 21.1547C94.7331 20.8606 94.268 20.9218 94.3405 20.5949C94.4742 20.2616 94.3142 19.9354 94.2274 19.6342C94.2018 19.5886 94.1407 19.4946 94.0887 19.5224C93.9678 19.7944 93.6691 19.9881 93.689 20.3214Z" fill="white"/>
<path fill-rule="evenodd" clip-rule="evenodd" d="M94.6016 18.7346L94.9472 19.4076C95.1001 19.3877 95.1997 19.241 95.3192 19.1342C95.4124 18.8543 95.1656 18.6741 95.0937 18.4469C95.0333 18.2867 95.0937 18.0744 94.9799 17.9348C94.8932 17.8807 94.7943 17.7938 94.6947 17.8209L94.6016 18.7346Z" fill="white"/>
<path fill-rule="evenodd" clip-rule="evenodd" d="M95.0459 16.9613C95.3198 17.128 95.6321 17.3672 95.7794 17.6614C96.012 18.3415 96.3848 18.9533 96.6573 19.6135C96.7576 20.0735 96.8373 20.4845 96.9632 20.9367C97.0109 21.057 96.9838 21.2899 97.1709 21.27C97.2229 20.7636 97.3232 20.2765 97.3303 19.7502C97.1638 19.5301 96.9447 19.4375 96.7377 19.3044V19.2574C96.7647 19.1448 96.8586 19.0102 96.9973 19.0316C97.0564 18.9647 97.2371 18.8984 97.1574 18.7781C96.8109 18.432 96.8309 17.8359 96.2795 17.7283C96.086 17.6486 96.0398 17.4477 96.0198 17.2626C95.7595 17.0411 95.3739 16.9684 95.0459 16.9613Z" fill="white"/>
<path fill-rule="evenodd" clip-rule="evenodd" d="M95.3679 20.5742C95.7064 20.8868 95.5876 21.3405 95.5606 21.7606C95.508 22.0142 95.8266 21.8661 95.9269 22.0007C96.1338 22.3069 96.0136 22.7541 95.9411 23.0867C96.121 22.8125 96.3266 22.5732 96.466 22.2727C96.4603 22.1602 96.6061 22.1061 96.5997 21.9658C96.6587 21.7728 96.4333 21.8596 96.3394 21.8397C96.2597 21.8198 96.1737 21.7663 96.2007 21.6595C96.3721 21.3262 96.2135 20.9267 96.1466 20.5934C96.067 20.3199 96.1808 19.9531 96.0528 19.7131C95.8394 20.008 95.2064 20.0742 95.3679 20.5742Z" fill="white"/>
<path fill-rule="evenodd" clip-rule="evenodd" d="M95.9854 15.8425C96.5785 16.4429 97.0109 17.0454 97.6496 17.6258C97.6631 17.3651 97.6297 17.1258 97.6169 16.8723C97.5237 16.6921 97.3502 16.5597 97.203 16.4251C96.7307 16.3795 96.4846 15.7421 95.9854 15.8425Z" fill="white"/>
<path fill-rule="evenodd" clip-rule="evenodd" d="M97.5361 19.0181C97.5504 19.0794 97.5774 19.1321 97.6044 19.1912C97.8633 19.6185 98.1101 20.0586 98.29 20.518C98.236 20.0244 98.5688 19.412 98.1286 19.0317C98.0696 18.8707 97.8711 18.9248 97.7431 18.9377L97.5361 19.0181Z" fill="white"/>
<path fill-rule="evenodd" clip-rule="evenodd" d="M99.1348 23.8866C99.3212 23.9735 99.5609 23.8203 99.7409 23.7135C99.9074 23.6736 100.047 23.7676 100.174 23.8538C100.227 23.9599 100.174 24.0603 100.194 24.1608C100.593 24.2733 100.985 24.4207 101.338 24.6536L101.45 24.5404C101.477 24.2541 101.252 24.0468 101.038 23.8866C100.899 23.8068 100.691 23.8538 100.592 23.727C100.659 23.6202 100.659 23.46 100.652 23.3403C100.432 23.3403 100.292 23.2727 100.114 23.1673C99.9999 23.1338 99.8995 23.0398 99.8064 23.1673C99.4741 23.393 99.4542 23.727 99.1348 23.8866Z" fill="white"/>
<path fill-rule="evenodd" clip-rule="evenodd" d="M99.6014 15.4999C99.7672 15.4522 99.9407 15.4059 100.08 15.2856C100.527 14.8789 101.172 15.1524 101.692 15.146C101.591 14.9658 101.451 14.7856 101.325 14.6325C101.138 14.5591 100.965 14.473 100.752 14.473C100.299 14.2059 99.994 14.6531 99.647 14.8725C99.5531 15.0527 99.5076 15.319 99.6014 15.4999Z" fill="white"/>
<path fill-rule="evenodd" clip-rule="evenodd" d="M99.6131 16.8723C99.6131 16.8517 99.6131 16.831 99.633 16.826C99.6942 16.8787 99.6266 17.0069 99.7269 17.0325C99.8998 16.9457 100.06 16.826 100.219 16.7128C100.665 16.7128 100.932 16.2791 101.37 16.2791C102.104 16.413 102.829 16.5604 103.468 16.9186C103.422 16.487 103.048 16.0925 102.669 15.8995C102.455 15.8261 102.289 15.9394 102.137 16.0597C101.691 16.3403 101.924 15.6531 101.611 15.6395C101.205 15.7656 100.785 15.9066 100.332 15.8653C100.066 15.9664 99.8792 16.2121 99.5797 16.1851C99.5676 16.4065 99.5348 16.6736 99.6131 16.8723Z" fill="white"/>
<path fill-rule="evenodd" clip-rule="evenodd" d="M99.9211 18.3579C100.061 18.506 100.293 18.479 100.494 18.506L101.073 18.2781C101.079 18.1734 100.9 18.145 100.94 18.0253C101.1 17.8451 101.318 17.9726 101.519 17.8993C101.798 17.8587 102.085 17.5802 102.364 17.7853C102.356 17.8195 102.376 17.8651 102.35 17.8993C102.264 18.1058 102.41 18.2326 102.57 18.3123C102.896 18.3721 103.201 18.6727 103.528 18.5381C103.495 18.2646 103.423 18.0132 103.356 17.7518C103.083 17.7055 102.889 17.4791 102.637 17.3851C102.524 17.4919 102.376 17.5717 102.237 17.5581C101.724 17.4378 101.111 17.118 100.592 17.4449C100.406 17.6721 100.073 17.6051 99.8193 17.7048C99.8343 17.9313 99.8606 18.1521 99.9211 18.3579Z" fill="white"/>
<path fill-rule="evenodd" clip-rule="evenodd" d="M100.14 22.3205C100.1 22.4337 99.9871 22.6196 100.194 22.6737C100.619 22.6865 101.166 22.4665 101.498 22.7998C101.612 22.8867 101.557 23.0668 101.55 23.1801L102.109 23.6466C102.163 23.3653 102.264 23.1124 102.271 22.8126C102.224 22.5989 102.117 22.3931 101.931 22.2535C101.564 22.2535 101.352 21.8241 100.958 21.8768C100.752 21.8312 100.572 22.0142 100.365 22.0142C100.274 22.1068 100.22 22.2208 100.14 22.3205Z" fill="white"/>
<path fill-rule="evenodd" clip-rule="evenodd" d="M100.299 19.1776C100.386 19.3577 100.487 19.6512 100.652 19.6704C101.045 19.4988 101.618 19.3912 102.057 19.5785C102.203 19.6042 102.203 19.7708 102.171 19.8776C102.397 20.0108 102.67 20.1176 102.91 20.2636L102.843 19.8634C102.829 19.4304 102.284 19.3912 102.25 18.9639C101.804 18.8179 101.305 18.7702 100.832 18.8841C100.679 19.0237 100.459 19.0052 100.274 19.0444C100.26 19.0978 100.292 19.132 100.299 19.1776Z" fill="white"/>
<path fill-rule="evenodd" clip-rule="evenodd" d="M100.412 21.3377C100.672 21.2636 100.839 20.978 101.119 20.9509C101.544 20.9581 101.924 21.1318 102.19 21.4993C102.35 21.604 102.316 21.8775 102.523 21.8775C102.462 21.5513 102.569 21.2522 102.555 20.9175C102.277 20.4517 101.584 20.8121 101.325 20.2644L100.833 20.2979C100.479 20.3855 100.573 20.7985 100.527 21.0791C100.486 21.1646 100.407 21.2315 100.412 21.3377Z" fill="white"/>
<path fill-rule="evenodd" clip-rule="evenodd" d="M102.857 24.2534C103.063 24.6664 103.517 24.9798 103.562 25.4527C103.668 25.3266 103.742 25.1799 103.815 25.0396C103.808 24.9064 103.655 24.9064 103.596 24.7996C103.535 24.6265 103.628 24.4734 103.655 24.3196C103.568 24.0732 103.361 23.8403 103.129 23.6929L102.857 24.2534Z" fill="white"/>
<path fill-rule="evenodd" clip-rule="evenodd" d="M103.676 23.2001L104.154 23.8538C104.36 23.5277 104.36 23.0469 104.28 22.6538C104.235 22.5798 104.147 22.4601 104.029 22.5142C103.849 22.7001 103.822 22.9871 103.676 23.2001Z" fill="white"/>
<path fill-rule="evenodd" clip-rule="evenodd" d="M101.725 4.95679C101.897 5.04368 102.064 5.12344 102.272 5.13697C102.41 5.06362 102.591 5.00949 102.764 5.05721C103.01 5.21745 103.309 5.02373 103.596 5.03727C103.343 4.79726 103.055 4.64984 102.764 4.51025C102.39 4.58931 102.092 4.85637 101.725 4.95679Z" fill="white"/>
<path fill-rule="evenodd" clip-rule="evenodd" d="M104.328 5.5821C104.681 5.61557 104.935 5.92893 105.173 6.18887C105.472 6.23445 105.699 6.44882 105.878 6.66817L105.766 6.31564C105.687 5.96169 105.465 5.68821 105.24 5.40833C104.921 5.42898 104.607 5.45675 104.328 5.5821Z" fill="white"/>
<path fill-rule="evenodd" clip-rule="evenodd" d="M79.4829 2.6593L79.6764 2.67995C80.1943 2.9399 81.0331 3.07308 81.0815 3.82585C80.5543 4.0331 80.0485 4.31227 79.6288 4.73886C79.31 4.41269 78.6641 4.59216 78.5566 4.01956C78.6577 3.47831 78.8497 2.79818 79.4829 2.6593Z" fill="#FF6600"/>
<path fill-rule="evenodd" clip-rule="evenodd" d="M79.9831 6.03933C80.5893 5.9852 81.1748 6.07138 81.8008 6.01868C81.9531 6.08491 82.1124 6.21737 82.1864 6.37121C82.1658 7.09122 81.9467 7.77847 81.9139 8.51771C81.6407 8.63024 81.374 8.85813 81.3071 9.15725C81.0609 9.2306 80.8404 9.3766 80.6006 9.48984C80.4961 9.26408 80.5146 8.92366 80.7017 8.73635C80.9613 8.37029 81.6343 8.45575 81.581 7.87604C81.7539 7.59687 81.5881 7.2365 81.5931 6.9438C81.5269 6.72302 81.46 7.01715 81.354 7.01003C81.1413 7.05561 80.9222 7.06914 80.7351 6.96231C80.5949 6.8156 80.4235 6.69525 80.3822 6.49655C80.1951 6.40325 79.9767 6.25726 79.8828 6.06354L79.9831 6.03933Z" fill="#FF6600"/>
<path fill-rule="evenodd" clip-rule="evenodd" d="M80.7147 10.383C80.9992 10.4243 81.3001 10.2961 81.5461 10.4371C81.4942 10.5311 81.3534 10.5703 81.2403 10.5973L80.7937 10.8032C80.628 10.764 80.7211 10.4969 80.7147 10.383Z" fill="#FF6600"/>
<path fill-rule="evenodd" clip-rule="evenodd" d="M81.8794 4.81866C82.1646 4.72536 82.4719 4.53308 82.7777 4.62495C82.5587 4.84572 82.3858 5.13131 82.2194 5.39837L81.3076 5.37843C81.4079 5.13772 81.6604 4.93902 81.8794 4.81866Z" fill="#FF6600"/>
<path fill-rule="evenodd" clip-rule="evenodd" d="M84.5498 4.59929C84.9289 4.53306 84.9082 5.02589 85.2546 5.0444C85.3158 5.12417 85.4025 5.19752 85.3684 5.31788C85.1678 5.39764 84.8755 5.35919 84.6493 5.41117C84.3492 5.24452 84.5434 4.72463 84.0704 4.75811C84.0441 4.71751 83.9915 4.63775 84.0569 4.6114C84.2034 4.5587 84.3976 4.57864 84.5498 4.59929Z" fill="#FF6600"/>
<path fill-rule="evenodd" clip-rule="evenodd" d="M84.3097 6.38408C84.4762 6.15048 84.7294 6.13125 84.9692 6.08496L86.6937 6.11701C86.767 6.18467 86.6268 6.24449 86.6268 6.32425C86.5208 6.42467 86.3671 6.45173 86.2739 6.54432C86.0477 6.55073 86.0676 6.81779 85.9083 6.93174C85.6614 7.17816 85.3014 7.06421 85.0154 7.02504C84.9158 6.95097 84.8027 6.85127 84.7551 6.73803L84.6754 6.81779C84.7757 7.19169 84.7494 7.60475 84.8234 7.98434L85.236 8.25782C85.2424 8.87029 85.9616 8.70364 86.2739 9.04406C86.2007 9.26484 86.0541 9.45072 85.8948 9.63731C85.6422 9.3909 85.3548 9.23137 85.0496 9.12383C85.0226 8.7656 84.6298 8.55124 84.4114 8.37177C84.3503 7.71799 84.3374 7.05139 84.2314 6.41826L84.3097 6.38408Z" fill="#FF6600"/>
<path fill-rule="evenodd" clip-rule="evenodd" d="M84.936 10.4969H85.7354L85.6351 10.9163L84.835 10.5766C84.8165 10.5104 84.889 10.4905 84.936 10.4969Z" fill="#FF6600"/>
<path fill-rule="evenodd" clip-rule="evenodd" d="M86.3733 2.94636L86.9659 2.75977C87.306 2.91929 87.6247 3.1187 87.9377 3.34589C88.1839 3.79884 88.1447 4.41202 88.0309 4.91838C87.8509 5.11779 87.4582 4.91838 87.3124 5.23815H87.2846C87.0655 4.61214 86.4395 4.05095 85.8604 3.76607C85.9535 3.44559 86.0539 3.13224 86.3733 2.94636Z" fill="#FF6600"/>
</g>
<defs>
<clipPath id="clip0_795_387">
<rect width="114" height="29" fill="white"/>
</clipPath>
</defs>
</svg>
