<svg width="119" height="34" viewBox="0 0 119 34" fill="none" xmlns="http://www.w3.org/2000/svg">
<g clip-path="url(#clip0_763_1589)">
<path d="M117.087 15.2228C116.129 14.4633 114.927 14.0856 113.71 14.1616C112.951 14.1601 112.196 14.2619 111.463 14.4639C110.795 14.6489 110.162 14.9477 109.593 15.3473L110.587 17.2981C110.961 17.0075 111.383 16.7867 111.834 16.6459C112.318 16.4863 112.824 16.4043 113.334 16.4028C113.926 16.3583 114.514 16.5332 114.987 16.8949C115.176 17.0738 115.323 17.2924 115.419 17.5352C115.514 17.7782 115.556 18.0393 115.54 18.3001H113.334C112.247 18.2155 111.163 18.4858 110.24 19.0708C109.914 19.3133 109.652 19.6323 109.477 20.0002C109.302 20.3682 109.218 20.7737 109.234 21.1816C109.225 21.7137 109.374 22.2365 109.664 22.6816C109.965 23.1404 110.392 23.501 110.893 23.7193C111.495 23.9859 112.147 24.1154 112.805 24.0987C114.222 24.0987 115.193 23.648 115.745 22.7586C115.745 23.0731 115.869 23.3749 116.09 23.5972C116.311 23.8196 116.61 23.9445 116.922 23.9445H118.334V18.4304C118.372 17.8363 118.28 17.241 118.065 16.6865C117.849 16.1322 117.515 15.6325 117.087 15.2228ZM115.51 20.8851C115.372 21.2956 115.095 21.6441 114.728 21.8694C114.346 22.0931 113.911 22.2078 113.469 22.2013C113.053 22.2308 112.64 22.1203 112.293 21.8871C112.16 21.7911 112.052 21.6636 111.979 21.5157C111.906 21.3679 111.871 21.2043 111.875 21.0392C111.875 20.2863 112.463 19.9127 113.581 19.9127H115.481L115.51 20.8851Z" fill="black"/>
<path d="M104.17 15.5668V24.0037H106.94V14.3809H105.346C105.034 14.3809 104.735 14.5058 104.514 14.7282C104.294 14.9506 104.17 15.2523 104.17 15.5668Z" fill="black"/>
<path d="M107.523 10.5685C107.298 10.5643 107.075 10.6124 106.871 10.709C106.667 10.8057 106.487 10.9483 106.347 11.1258L104.735 13.1476H106.67C106.869 13.1474 107.066 13.1068 107.249 13.0284C107.432 12.95 107.597 12.8353 107.735 12.6911L109.77 10.5685H107.523Z" fill="black"/>
<path d="M97.3941 20.8496L95.1649 15.3474C95.041 15.0454 94.8315 14.787 94.5626 14.6045C94.2937 14.4222 93.9774 14.3238 93.6533 14.3216H91.8887L95.9001 23.9504H98.0646C98.2693 23.9438 98.4675 23.8768 98.6348 23.7578C98.8021 23.6386 98.9311 23.4727 99.0057 23.2805L102.764 14.298H100.106L97.3941 20.8496Z" fill="black"/>
<path d="M87.9951 10.6515V23.9266H90.7714V11.8373C90.7714 11.5228 90.6474 11.2212 90.4268 10.9988C90.2061 10.7764 89.9069 10.6515 89.595 10.6515H87.9951Z" fill="black"/>
<path d="M81.0953 14.1616C80.3362 14.1601 79.5804 14.2618 78.8485 14.464C78.1805 14.6514 77.5482 14.9499 76.978 15.3474L77.972 17.298L78.1543 17.1617C78.4838 16.9372 78.8446 16.7634 79.2249 16.6458C79.7089 16.4854 80.2151 16.4034 80.7247 16.4027C81.315 16.358 81.9009 16.5331 82.3717 16.8948C82.5605 17.0737 82.708 17.2925 82.8035 17.5353C82.8991 17.7781 82.9405 18.0392 82.9245 18.3H80.7247C79.6363 18.2154 78.5495 18.4857 77.625 19.0708C77.3007 19.3142 77.0402 19.6337 76.866 20.0014C76.6917 20.3692 76.609 20.7744 76.625 21.1815C76.6162 21.7128 76.7637 22.2347 77.0486 22.6816C77.3505 23.142 77.78 23.5029 78.2838 23.7192C78.8834 23.9859 79.5343 24.1154 80.1895 24.0987C81.6129 24.0987 82.5834 23.6481 83.1305 22.7587C83.1305 23.0732 83.2543 23.3748 83.475 23.5972C83.6956 23.8196 83.9948 23.9444 84.3067 23.9444H85.7244V18.4305C85.7703 17.8419 85.6888 17.2503 85.4857 16.6963C85.2827 16.1426 84.9626 15.6398 84.548 15.2229C83.5696 14.4454 82.3374 14.0667 81.0953 14.1616ZM82.9245 20.8911C82.7906 21.3022 82.5124 21.65 82.1422 21.8693C81.7607 22.0938 81.3254 22.2087 80.8835 22.2014C80.4778 22.2225 80.0759 22.1124 79.7366 21.8872C79.6034 21.7911 79.4957 21.6635 79.4229 21.5157C79.3501 21.3678 79.3144 21.2042 79.3189 21.0393C79.3189 20.2863 79.9071 19.9127 81.0247 19.9127H82.9245V20.8911Z" fill="black"/>
<path d="M72.1019 15.5667V14.298H69.4609V23.9268H72.2312V19.3791C72.2032 19.0159 72.2482 18.6507 72.3634 18.3053C72.4786 17.9599 72.6618 17.6416 72.9017 17.3692C73.1519 17.1368 73.446 16.9578 73.7663 16.8427C74.0868 16.7276 74.4268 16.6787 74.7664 16.6992C74.8722 16.6992 75.0782 16.6992 75.3898 16.7348V14.1616C74.7239 14.1488 74.0621 14.2698 73.4429 14.5173C72.9097 14.738 72.4461 15.1008 72.1019 15.5667Z" fill="black"/>
<path d="M64.303 19.059C64.3614 19.7574 64.1507 20.4517 63.7148 20.9978C63.5112 21.2157 63.2635 21.3867 62.9885 21.4992C62.7134 21.6118 62.4174 21.6632 62.1209 21.65C60.8268 21.65 60.1857 20.8792 60.1857 19.3259V14.298H57.4153V19.7408C57.3718 20.3274 57.4469 20.9168 57.6359 21.4732C57.825 22.0297 58.1241 22.5416 58.5152 22.9782C58.9161 23.3498 59.386 23.6375 59.8979 23.8248C60.4097 24.0121 60.9534 24.0951 61.4973 24.069C62.065 24.0731 62.6274 23.9601 63.1501 23.7371C63.6522 23.5208 64.1003 23.1948 64.4618 22.7824C64.4618 23.086 64.5814 23.377 64.7943 23.5916C65.0072 23.8062 65.296 23.9268 65.597 23.9268H67.091V14.298H64.303V19.059Z" fill="black"/>
<path d="M54.2509 17.9799C54.7456 17.2029 54.9976 16.2941 54.9744 15.3712C55.0111 14.453 54.7674 13.5457 54.2761 12.7716C53.7849 11.9976 53.0698 11.3942 52.2275 11.0429C51.2464 10.623 50.1873 10.4208 49.1218 10.45H43.293V24.0276H46.4103V20.239H48.4219C48.6927 20.2394 48.9594 20.306 49.199 20.4329C49.4388 20.56 49.6443 20.7436 49.7983 20.9681L51.8981 24.0216H55.245L52.2275 19.6578C53.0486 19.3072 53.7512 18.7244 54.2509 17.9799ZM51.0865 17.1261C50.4661 17.5708 49.71 17.7808 48.9513 17.719H46.4103V12.9758H48.9513C49.7098 12.9166 50.465 13.1263 51.0865 13.5687C51.3173 13.7967 51.5007 14.0688 51.6258 14.3691C51.751 14.6695 51.8155 14.9921 51.8155 15.3177C51.8155 15.6436 51.751 15.966 51.6258 16.2663C51.5007 16.5667 51.3173 16.8388 51.0865 17.0669V17.1261Z" fill="black"/>
<path d="M19.0126 16.4323V5.62359C19.0136 5.35621 18.9622 5.09125 18.8612 4.84398C18.7603 4.59672 18.6119 4.37202 18.4244 4.18282L14.9717 0.696533V11.5111C14.9698 11.7787 15.0208 12.0439 15.1218 12.2913C15.2228 12.5387 15.3717 12.7633 15.5599 12.9519L19.0126 16.4323Z" fill="#B6FF00"/>
<path d="M16.8946 22.4624C19.412 24.9999 20.9353 29.4882 20.9353 32.7788V33.3303H24.9762V31.5516C24.7953 27.05 22.8642 22.8008 19.6001 19.7231L7.4835 7.49146V12.1458C7.48082 12.4081 7.53165 12.6682 7.63283 12.9099C7.73401 13.1516 7.88338 13.3698 8.07169 13.5509L16.8946 22.4624Z" fill="#B6FF00"/>
<path d="M0.719727 14.2802H5.33112C5.58344 14.2838 5.83252 14.3381 6.06377 14.44C6.29504 14.5418 6.50387 14.689 6.67807 14.873L15.5009 23.8259C17.6456 26.0449 18.9023 28.9837 19.03 32.0792V33.3183H14.9656C14.9103 30.2492 13.667 27.3237 11.5012 25.1658L0.719727 14.2802Z" fill="#B6FF00"/>
<path d="M25.4823 13.7701C25.4403 13.8122 25.387 13.8409 25.3289 13.8525C25.2707 13.8641 25.2105 13.8582 25.1558 13.8353C25.1011 13.8125 25.0544 13.7739 25.0214 13.7243C24.9884 13.6747 24.9706 13.6164 24.9705 13.5567V0.696533L21.5238 4.18282C21.3366 4.37222 21.1883 4.59694 21.0874 4.84417C20.9864 5.09139 20.9348 5.35625 20.9356 5.62359V18.3118C21.8751 19.207 22.717 20.2008 23.4472 21.2763L31.1524 13.5092C31.335 13.3336 31.4811 13.1231 31.5821 12.89C31.683 12.6569 31.7369 12.4058 31.7406 12.1515V7.49124L25.4823 13.7701Z" fill="#B6FF00"/>
<path d="M26.1049 26.7311L38.4569 14.2802H33.8455C33.3271 14.2875 32.8327 14.5006 32.469 14.873L24.4814 22.9306C25.1493 24.1386 25.6931 25.412 26.1049 26.7311Z" fill="#B6FF00"/>
</g>
<defs>
<clipPath id="clip0_763_1589">
<rect width="119" height="34" fill="white"/>
</clipPath>
</defs>
</svg>
