<svg width="115" height="24" viewBox="0 0 115 24" fill="none" xmlns="http://www.w3.org/2000/svg">
<g clip-path="url(#clip0_761_1341)">
<mask id="mask0_761_1341" style="mask-type:luminance" maskUnits="userSpaceOnUse" x="0" y="1" width="115" height="24">
<path d="M115 1H0V24.7249H115V1Z" fill="white"/>
</mask>
<g mask="url(#mask0_761_1341)">
<path fill-rule="evenodd" clip-rule="evenodd" d="M14.9772 8.76298C14.9772 13.0486 11.6267 16.5206 7.49119 16.5206C3.35564 16.5206 0 13.0486 0 8.76298C0 4.47207 3.35564 1 7.49119 1C11.6216 1 14.9772 4.47207 14.9772 8.76298ZM7.58355 9.33189H6.29568H6.29055V11.1982H7.50145C7.52984 11.1982 7.55892 11.1983 7.58854 11.1986C7.89084 11.2003 8.24917 11.2024 8.49682 11.028C8.7483 10.858 8.89198 10.5442 8.89198 10.2252C8.89198 9.93272 8.71748 9.62966 8.46608 9.48077C8.21467 9.33189 7.86575 9.33189 7.58355 9.33189ZM7.35265 6.25862H6.29568H6.29055V7.95478H7.48093C7.50742 7.95478 7.53428 7.95494 7.56143 7.95509C7.84987 7.95678 8.17043 7.95867 8.40961 7.774C8.61997 7.61448 8.72778 7.33267 8.72778 7.07214C8.72778 6.79033 8.59944 6.51916 8.35834 6.37028C8.1436 6.24765 7.77529 6.25305 7.49019 6.25723C7.44153 6.25795 7.39529 6.25862 7.35265 6.25862ZM4.55116 12.6338V4.87617V4.87085H7.90167C8.49171 4.87085 9.10233 4.87085 9.61544 5.21115C10.2158 5.60462 10.5338 6.17355 10.5338 6.90731C10.5338 7.78995 9.96427 8.37483 9.17924 8.5822V8.60347C10.1079 8.79489 10.7391 9.53399 10.7391 10.5389C10.7391 11.2194 10.344 11.8203 9.82068 12.2138C9.27675 12.6338 8.54306 12.6338 7.90167 12.6338H4.55116Z" fill="#006DFF"/>
<path d="M110.956 23.4378H115V3.87611H110.956V23.4378ZM104.902 23.4378H108.945V3.87611H104.902V23.4378ZM94.1166 14.4253C94.2548 12.7717 94.9424 11.4052 96.7281 11.4052C98.4882 11.4052 98.9858 12.8567 99.068 14.4253H94.1166ZM103.116 16.9084C103.142 14.941 102.839 12.8886 101.685 11.235C100.53 9.58141 98.5186 8.66684 96.5644 8.66684C92.2183 8.66684 89.7658 12.1176 89.7658 16.3926C89.7658 20.6994 92.4899 23.7196 96.6714 23.7196C101.402 23.7196 103.029 19.4446 103.029 18.7268L99.2884 18.4396C99.2884 19.7796 98.0522 20.7207 96.8103 20.7207C95.0502 20.7207 94.111 19.3223 94.111 17.6102L94.1374 16.8977H103.116V16.9084ZM84.2091 17.3922C84.2091 18.1047 84.1827 18.8757 83.8497 19.5297C83.5215 20.1837 82.8338 20.6994 82.0895 20.6994C80.0786 20.6994 79.863 18.0462 79.863 16.4777C79.863 14.739 79.9445 11.6019 82.2589 11.6019C84.1012 11.6019 84.2138 13.9946 84.2138 15.393V17.3922H84.2091ZM88.2572 23.4378V3.87611H84.2138V10.4906C83.3362 9.15065 82.29 8.66684 80.7199 8.66684C76.6456 8.66684 75.5989 12.9152 75.5989 16.366C75.5989 19.7318 76.7021 23.7249 80.6321 23.7249C82.4234 23.7249 83.5774 22.7253 84.3472 21.1886H84.4039V23.4431H88.2572V23.4378ZM69.9549 17.0785C69.9549 18.1047 69.9805 18.9608 69.4059 19.8753C68.939 20.6144 68.195 21.0716 67.3689 21.0716C66.2401 21.0716 65.5782 20.3006 65.5782 19.1628C65.5782 17.0519 68.4105 16.685 69.9549 16.5095V17.0785ZM74.3572 23.4378C74.1367 22.7253 74.0802 22.0127 74.0802 21.2684V14.5103C74.0802 12.7717 74.2188 11.1765 72.7872 9.97484C71.6584 9.00177 69.7907 8.66155 68.3541 8.66155C65.4089 8.66155 62.1096 9.68775 61.6941 13.197L65.5217 13.5692C65.5217 12.1442 66.6506 11.4583 67.9436 11.4583C68.549 11.4583 69.2365 11.655 69.5958 12.1442C70.0062 12.6866 69.9549 13.4256 69.9549 14.053V14.3933C68.2514 14.5635 66.0195 14.6805 64.4237 15.3026C62.5817 16.0151 61.2888 17.4719 61.2888 19.6094C61.2888 22.3478 63.2129 23.7143 65.6911 23.7143C67.7845 23.7143 68.9954 22.8901 70.1499 21.178C70.1242 21.9171 70.1755 22.6881 70.3449 23.4325H74.3572V23.4378ZM47.6968 23.4378H49.898C50.1443 22.6668 50.3085 21.8426 50.8062 21.2152C51.8221 22.9539 52.7867 23.7249 54.798 23.7249C59.0055 23.7249 60.4678 19.987 60.4678 16.1959C60.4678 12.7717 59.2569 8.66684 55.265 8.66684C53.6949 8.66684 52.5405 9.35275 51.8529 10.7777H51.7452V3.87611H47.702V23.4378H47.6968ZM51.7965 15.2813C51.7965 13.7394 52.0735 11.5487 54.0284 11.5487C56.2553 11.5487 56.2553 14.5689 56.2553 16.1959C56.2553 17.7644 56.2553 20.7845 53.972 20.7845C53.228 20.7845 52.6482 20.4124 52.2634 19.7849C51.8221 19.0724 51.7965 18.1579 51.7965 17.3603V15.2813ZM41.3396 17.0785C41.3396 18.1047 41.3652 18.9608 40.7906 19.8753C40.3236 20.6144 39.5796 21.0716 38.7536 21.0716C37.6248 21.0716 36.9629 20.3006 36.9629 19.1628C36.9629 17.0519 39.8003 16.685 41.3396 16.5095V17.0785ZM45.742 23.4378C45.5213 22.7253 45.4648 22.0127 45.4648 21.2684V14.5103C45.4648 12.7717 45.6034 11.1765 44.1719 9.97484C43.0431 9.00177 41.1754 8.66155 39.7387 8.66155C36.7936 8.66155 33.4944 9.68775 33.0788 13.197L36.9064 13.5692C36.9064 12.1442 38.0353 11.4583 39.3282 11.4583C39.9337 11.4583 40.6213 11.655 40.9804 12.1442C41.3909 12.6866 41.3396 13.4256 41.3396 14.053V14.3933C39.6361 14.5635 37.4041 14.6805 35.8084 15.3026C33.9612 16.0151 32.6683 17.4719 32.6683 19.6094C32.6683 22.3478 34.5924 23.7143 37.0706 23.7143C39.164 23.7143 40.375 22.8901 41.5294 21.178C41.5038 21.9171 41.5551 22.6881 41.7244 23.4325H45.742V23.4378ZM31.1547 8.18297C30.0002 4.79066 27.3013 3.58899 24.0021 3.58899C22.2678 3.58899 20.6465 3.98777 19.2714 5.18412C17.9219 6.35389 17.2344 7.94902 17.2344 9.77813C17.2344 14.053 20.5388 15.0792 23.8944 15.7918C25.0488 16.047 27.1987 16.3607 27.1987 17.9877C27.1987 19.6147 25.5209 20.0986 24.2535 20.0986C22.2986 20.0986 20.8671 19.3862 20.3181 17.3337L16.2441 18.3014C17.0959 22.1245 20.3181 23.7196 23.8687 23.7196C25.7672 23.7196 27.8298 23.3474 29.3434 22.1245C30.8006 20.9547 31.6831 19.1309 31.6831 17.2221C31.6831 15.2813 30.7442 13.6596 29.2049 12.6015C27.8862 11.687 25.8184 11.2881 24.2792 10.9478C23.2068 10.7458 21.5547 10.4055 21.5547 8.9805C21.5547 7.47048 22.9862 7.15677 24.1714 7.15677C25.8493 7.15677 26.8703 7.81077 27.4193 9.46968L31.1547 8.18297Z" fill="black"/>
</g>
</g>
<defs>
<clipPath id="clip0_761_1341">
<rect width="115" height="24" fill="white"/>
</clipPath>
</defs>
</svg>
