<svg width="137" height="26" viewBox="0 0 137 26" fill="none" xmlns="http://www.w3.org/2000/svg">
<path d="M17.9439 11.1428C17.8869 10.2857 17.659 9.42852 17.2033 8.68566L13.3297 1.88566C13.0449 1.37137 12.817 0.799944 12.7031 0.228516L12.5322 0.51423C11.5638 2.17137 11.5638 4.28566 12.5322 5.9428L15.6653 11.3714C16.6337 13.0285 16.6337 15.1428 15.6653 16.7999L15.4944 17.0857C15.3805 16.5142 15.1526 15.9428 14.8678 15.4285L12.0195 10.4571L10.1967 7.25709C9.91185 6.7428 9.68399 6.17137 9.57006 5.59994L9.39917 5.88566C8.43077 7.5428 8.43077 9.59994 9.39917 11.3142L12.5322 16.7428C13.5006 18.3999 13.5006 20.5142 12.5322 22.1714L12.3613 22.4571C12.2474 21.8857 12.0195 21.3142 11.7347 20.7999L7.80416 13.9999C7.29148 13.0857 7.06362 12.0571 7.06362 11.0285C2.9052 12.1142 0 14.4571 0 17.1428C0 20.9142 5.58254 23.9428 12.4753 23.9428C19.368 23.9428 24.9505 20.9142 24.9505 17.1428C25.0075 14.5714 22.1593 12.2285 17.9439 11.1428ZM29.7356 22.7428C29.7925 21.7714 29.9064 21.1428 30.1913 20.3428C31.5015 20.9714 33.2104 21.2571 34.4636 21.2571C36.6283 21.2571 37.8815 20.5714 37.8815 19.1428C37.8815 17.7714 36.9701 17.1428 34.8054 16.1714L33.6091 15.7142C31.3875 14.7428 29.9064 13.4857 29.9064 11.0285C29.9064 8.3428 31.7863 6.62852 35.5459 6.62852C37.084 6.62852 38.5081 6.85709 39.8183 7.31423C39.7613 8.22852 39.5904 8.97137 39.3626 9.65709C38.1094 9.19994 36.5713 8.97137 35.489 8.97137C33.4383 8.97137 32.5268 9.77137 32.5268 11.0285C32.5268 12.2285 33.4383 12.9714 35.0902 13.6571L36.3435 14.1714C39.3056 15.4285 40.5588 16.7999 40.5588 19.0857C40.5588 21.7714 38.5081 23.6571 34.5206 23.6571C32.6408 23.6571 31.0457 23.3714 29.7356 22.7428ZM53.148 11.4857V23.2571H50.7555L50.6416 21.8285C49.958 22.8571 48.9896 23.5428 47.3376 23.5428C44.2615 23.5428 42.1538 21.2571 42.1538 17.3142C42.1538 13.1999 44.3755 10.7999 48.7048 10.7999C50.4137 10.8571 51.8378 11.0285 53.148 11.4857ZM50.5846 20.5714V13.1999C50.0719 13.0857 49.4453 13.0857 48.7048 13.0857C46.0274 13.0857 44.7742 14.7428 44.7742 17.3714C44.7742 19.7714 45.7426 21.4857 48.0212 21.4857C49.1035 21.4285 49.901 21.0857 50.5846 20.5714ZM66.3638 15.3714V23.2571H63.8004V15.8285C63.8004 13.9428 63.1738 13.0857 60.6104 13.0857C59.9838 13.0857 59.3002 13.1428 58.5597 13.2571V23.2571H55.9963V11.4857C57.6482 11.0857 59.4711 10.7999 60.6674 10.7999C64.9967 10.8571 66.3638 12.5142 66.3638 15.3714ZM73.5414 21.3714C74.2819 21.3714 75.0225 21.2571 75.5351 21.0285C75.4782 21.7142 75.3643 22.5142 75.2503 23.1999C74.5667 23.4857 73.7692 23.5999 73.0857 23.5999C70.5792 23.5999 68.9842 22.4571 68.9842 19.5999V7.19994C69.7817 6.91423 70.7501 6.79994 71.5476 6.79994V11.2571H75.6491C75.5921 12.0571 75.5351 12.7999 75.4212 13.4857H71.5476V19.2571C71.5476 20.7428 72.2882 21.3714 73.5414 21.3714ZM87.3838 11.4857V23.2571H84.9913L84.8773 21.8285C84.1938 22.8571 83.2254 23.5428 81.5734 23.5428C78.4973 23.5428 76.3896 21.2571 76.3896 17.3142C76.3896 13.1999 78.6112 10.7999 82.9406 10.7999C84.6495 10.8571 86.0166 11.0285 87.3838 11.4857ZM84.7634 20.5714V13.1999C84.2507 13.0857 83.6241 13.0857 82.8836 13.0857C80.2062 13.0857 78.953 14.7428 78.953 17.3714C78.953 19.7714 79.9214 21.4857 82.2 21.4857C83.2823 21.4285 84.1368 21.0857 84.7634 20.5714ZM100.6 15.3714V23.2571H97.9792V15.8285C97.9792 13.9428 97.3526 13.0857 94.7892 13.0857C94.1626 13.0857 93.479 13.1428 92.7385 13.2571V23.2571H90.1751V11.4857C91.827 11.0857 93.6499 10.7999 94.8462 10.7999C99.1755 10.8571 100.6 12.5142 100.6 15.3714ZM113.644 6.79994V23.2571H111.252L111.138 21.7714C110.454 22.8571 109.486 23.5428 107.777 23.5428C104.701 23.5428 102.593 21.2571 102.593 17.3142C102.593 13.1999 104.815 10.7999 109.144 10.7999C109.828 10.7999 110.454 10.8571 111.081 10.9714V7.08566C111.879 6.85709 112.79 6.79994 113.644 6.79994ZM111.081 20.5714V13.3142C110.398 13.1999 109.714 13.0857 109.03 13.0857C106.467 13.0857 105.271 14.6857 105.271 17.3714C105.271 19.7714 106.239 21.4857 108.518 21.4857C109.543 21.4285 110.398 21.0857 111.081 20.5714ZM126.632 18.2285H118.373C118.714 20.3428 119.911 21.3142 122.246 21.3142C123.67 21.3142 125.094 21.0285 126.348 20.3999C126.234 21.0857 126.12 21.9999 125.949 22.7428C124.753 23.2571 123.556 23.4857 122.132 23.4857C117.803 23.4857 115.752 21.0857 115.752 17.0857C115.752 13.5999 117.347 10.7999 121.449 10.7999C125.151 10.7999 126.746 13.1999 126.746 16.1714C126.746 16.9714 126.746 17.5428 126.632 18.2285ZM118.373 16.0571H124.183C124.183 14.1142 123.158 12.9714 121.392 12.9714C119.512 13.0285 118.543 14.0571 118.373 16.0571ZM135.69 10.9714C135.69 11.7714 135.576 12.6857 135.462 13.1999C134.835 13.1428 134.266 13.0857 133.525 13.0857C132.899 13.0857 132.272 13.1428 131.645 13.1999V23.2571H129.082V11.4857C130.164 11.0857 132.044 10.7999 133.468 10.7999C134.209 10.8571 135.12 10.8571 135.69 10.9714Z" fill="#EC0000"/>
</svg>
