<?xml version="1.0" encoding="UTF-8" standalone="no"?><svg xmlns="http://www.w3.org/2000/svg" fill="none" height="24" viewBox="0 0 25 24" width="25">
<g id="ico214">
<g id="Color_base">
<path clip-rule="evenodd" d="M8.41675 2C8.83096 2 9.16675 2.33579 9.16675 2.75V5.25C9.16675 5.66421 8.83096 6 8.41675 6C8.00253 6 7.66675 5.66421 7.66675 5.25V2.75C7.66675 2.33579 8.00253 2 8.41675 2Z" fill="#007EAE" fill-rule="evenodd"/>
<path clip-rule="evenodd" d="M17.4167 2C17.831 2 18.1667 2.33579 18.1667 2.75V5.25C18.1667 5.66421 17.831 6 17.4167 6C17.0025 6 16.6667 5.66421 16.6667 5.25V2.75C16.6667 2.33579 17.0025 2 17.4167 2Z" fill="#007EAE" fill-rule="evenodd"/>
<path clip-rule="evenodd" d="M2.91675 5.9C2.91675 4.43644 4.10319 3.25 5.56675 3.25H19.7667C21.2303 3.25 22.4167 4.43645 22.4167 5.9V10C22.4167 10.4142 22.081 10.75 21.6667 10.75C21.2525 10.75 20.9167 10.4142 20.9167 10V9H4.41675V17.2C4.41675 18.8845 5.78228 20.25 7.46675 20.25H10.6667C11.081 20.25 11.4167 20.5858 11.4167 21C11.4167 21.4142 11.081 21.75 10.6667 21.75H7.46675C4.95385 21.75 2.91675 19.7129 2.91675 17.2V5.9ZM4.41675 7.5H20.9167V5.9C20.9167 5.26487 20.4019 4.75 19.7667 4.75H5.56675C4.93162 4.75 4.41675 5.26487 4.41675 5.9V7.5Z" fill="#007EAE" fill-rule="evenodd"/>
<path clip-rule="evenodd" d="M20.6713 14.945C20.9777 15.2237 21.0003 15.698 20.7217 16.0045L17.5399 19.5045C17.3977 19.6609 17.1962 19.75 16.9849 19.75C16.7736 19.75 16.5721 19.6609 16.43 19.5045L14.6118 17.5045C14.3332 17.198 14.3558 16.7237 14.6622 16.445C14.9687 16.1664 15.4431 16.189 15.7217 16.4955L16.9849 17.885L19.6118 14.9955C19.8904 14.689 20.3648 14.6664 20.6713 14.945Z" fill="#007EAE" fill-rule="evenodd"/>
<path clip-rule="evenodd" d="M17.6667 21.5C20.152 21.5 22.1667 19.4853 22.1667 17C22.1667 14.5147 20.152 12.5 17.6667 12.5C15.1815 12.5 13.1667 14.5147 13.1667 17C13.1667 19.4853 15.1815 21.5 17.6667 21.5ZM17.6667 23C20.9805 23 23.6667 20.3137 23.6667 17C23.6667 13.6863 20.9805 11 17.6667 11C14.353 11 11.6667 13.6863 11.6667 17C11.6667 20.3137 14.353 23 17.6667 23Z" fill="#007EAE" fill-rule="evenodd"/>
</g>
</g>
</svg>