<?xml version="1.0" encoding="UTF-8" standalone="no"?><svg xmlns="http://www.w3.org/2000/svg" fill="none" height="48" viewBox="0 0 48 48" width="48">
<path d="M41 16.9724C41 20.7735 39.5833 25.2818 36.75 30.4972C33.9167 35.6243 31.0833 39.8232 28.25 43.0939L24 48C22.7604 46.674 21.1667 44.8619 19.2188 42.5635C17.3594 40.2652 14.8359 36.3757 11.6484 30.895C8.54948 25.4144 7 20.7735 7 16.9724C7 12.2873 8.63802 8.30939 11.9141 5.03867C15.2786 1.67956 19.3073 0 24 0C28.6927 0 32.6771 1.67956 35.9531 5.03867C39.3177 8.30939 41 12.2873 41 16.9724Z" fill="#383838"/>
<path d="M32.114 8.18031C32.0375 9.51743 30.9385 10.4189 30.3601 11.5475C30.1132 12.2207 29.5256 12.6198 29.1085 13.2262C28.7286 13.6151 28.3587 14.0414 28.0459 14.4781C28.1029 14.7909 28.4348 14.8764 28.6241 15.104C29.0514 15.3601 29.0984 15.8437 29.468 16.1375C29.6869 16.1375 29.6869 16.4598 29.9234 16.4223C30.4273 16.9633 30.8342 17.5229 31.2515 18.1103C31.3176 18.3194 31.4226 18.5272 31.6024 18.6792C31.9342 19.1626 32.2088 19.6763 32.5501 20.1676C32.5984 20.7178 33.0623 21.0884 33.2053 21.6013C33.4136 21.8759 33.4984 22.1969 33.6895 22.472C33.9831 23.1169 34.1816 23.7909 34.5324 24.4081C34.599 24.5504 34.5137 24.6911 34.4377 24.7956C34.3049 24.9004 34.2014 24.7109 34.0486 24.7391C33.2706 24.4556 32.5314 24.0467 31.8109 23.6108C31.071 23.0126 30.2555 22.5865 29.5256 21.9604C29.2407 21.8846 29.127 21.5522 28.8614 21.4195C28.1594 20.9844 27.5998 20.3574 26.8886 19.9496C26.5665 19.703 26.2434 19.4659 25.9211 19.2098C25.6753 19.1824 25.5895 18.897 25.3524 18.812C24.8218 18.4897 24.3387 18.0428 23.7972 17.7402C23.7495 17.8167 23.7972 17.9298 23.7495 18.0055C23.3886 18.3564 23.4847 18.897 23.2283 19.2869C23.2188 19.8458 22.83 20.2539 22.6684 20.747C22.2228 21.5435 21.8347 22.359 21.3688 23.147C20.7532 23.9624 20.4213 24.9474 19.5481 25.6026C19.3585 25.8392 19.1399 25.9632 18.9042 26.1143C18.7994 26.0857 18.6473 26.1055 18.6188 25.9727C18.515 25.7737 18.6473 25.4698 18.5055 25.2901C18.6288 25.0142 18.5528 24.7021 18.6093 24.3986L18.5623 24.2655C18.5718 23.8479 18.7801 23.497 18.6946 23.0702C18.8086 22.8049 18.8559 22.5108 18.8849 22.2167C19.0172 21.8561 19.1312 21.4677 19.169 21.0784C19.2925 20.8508 19.3403 20.557 19.3115 20.2917C19.406 20.0443 19.4253 19.7505 19.6814 19.5702C19.7189 19.4094 19.6814 19.2491 19.7099 19.0773C19.9654 18.3001 20.279 17.5504 20.4778 16.7539C20.4778 16.6969 20.4213 16.6782 20.383 16.6687C19.8231 16.6402 19.3012 16.7539 18.7801 16.6124C17.9271 16.6021 17.0641 16.4884 16.2489 16.3178C15.9166 16.2513 15.5177 16.2893 15.2149 16.1C15.0158 16.1098 14.7878 16.147 14.5982 16.042C14.2094 15.8529 13.7357 15.8822 13.3471 15.6724C13.0528 15.7109 12.8437 15.5219 12.5784 15.4931C12.3218 15.5108 12.18 15.2935 12 15.1518V15.066C12.4739 14.421 13.2331 14.241 13.9163 13.9937C14.5887 13.7859 15.3374 13.7669 16.0399 13.6253C16.4857 13.5488 16.9689 13.6721 17.4158 13.5958C18.2215 13.6151 18.9987 13.7471 19.7946 13.7669C20.0602 13.8049 20.3075 13.9282 20.5726 13.9187L20.5636 13.8049L19.8136 12.7803C19.5288 12.1164 19.0084 11.5562 18.8279 10.8553C18.6571 10.6473 18.8179 10.3337 18.6853 10.1061C18.6758 10.0018 18.7611 9.9258 18.8086 9.84053C18.9704 9.77452 19.1502 9.8883 19.3115 9.783C19.7946 9.89755 20.2413 10.0689 20.7244 10.1639C21.2265 10.3617 21.7387 10.561 22.184 10.8931C22.7442 11.2914 23.4184 11.5475 23.8543 12.1639C23.9688 12.2682 24.1473 12.2872 24.3001 12.25C24.4322 12.2302 24.4607 12.0691 24.5847 12.0216C25.1716 11.651 25.836 11.4432 26.4145 11.0361C26.652 10.7983 27.0304 10.7698 27.1739 10.448C27.354 10.3617 27.5145 10.2484 27.7046 10.2001C28.0364 9.96458 28.368 9.70697 28.7286 9.51743C28.9184 9.49919 29.0705 9.39517 29.2215 9.29063C29.8094 8.96778 30.4273 8.70272 30.986 8.33287C31.1098 8.00001 31.4791 8.07629 31.7442 8.00001C31.877 8.0298 32.0575 8.01028 32.114 8.18031Z" fill="#007EAE"/>
<path d="M18.0503 17.3513C18.2398 17.4841 18.2303 17.7505 18.4011 17.8833L18.4861 18.4712L18.0593 19.0961C17.5189 19.3807 16.7137 19.5039 16.2098 19.0488C15.9265 18.7935 15.8507 18.4229 15.9265 18.053L16.1258 17.5121C16.2385 17.4366 16.3903 17.4176 16.4671 17.2851C16.7322 17.1143 17.0733 17.1523 17.3771 17.0873C17.6054 17.1618 17.946 17.0388 18.0503 17.3513Z" fill="#F4C00F"/>
<path d="M16.6464 20.8133C16.8172 20.8133 16.9407 20.9366 17.102 20.9078C17.3291 20.9934 17.3011 21.2684 17.5386 21.3352C17.7184 21.6956 17.8322 22.0831 17.9275 22.472C17.861 22.7003 18.0505 22.8329 17.9838 23.0417L18.0505 23.0797C18.0593 23.2977 18.0305 23.5443 17.946 23.7529C17.9838 24.1512 17.7855 24.4828 17.6139 24.8247C17.4909 24.9004 17.4339 25.1185 17.2623 25.0805C16.9592 25.1752 16.9312 25.6314 16.5619 25.5744C16.3243 25.7531 16.0012 25.6496 15.7179 25.6586C15.5556 25.5744 15.329 25.5934 15.215 25.4503C14.9304 25.3363 14.6738 25.1272 14.427 24.9194C14.3317 24.7106 14.1142 24.6158 14.0857 24.3788C14.1717 24.0945 13.9917 23.8386 14.0674 23.5538L14.0102 23.0797L14.1905 22.2637C14.4943 22.1029 14.4093 21.7331 14.7124 21.6193C14.9019 21.1826 15.357 21.0884 15.7071 20.8701C15.8399 20.8426 16.0012 20.9176 16.1055 20.7943C16.2968 20.7655 16.4753 20.9651 16.6464 20.8133Z" fill="#E51029"/>
</svg>