<?xml version="1.0" encoding="UTF-8" standalone="no"?><svg xmlns="http://www.w3.org/2000/svg" fill="none" height="24" viewBox="0 0 25 24" width="25">
<g id="ico128">
<g id="Color_base">
<path clip-rule="evenodd" d="M7.16675 11.75C6.47639 11.75 5.91675 12.3096 5.91675 13V15C5.91675 15.6904 6.47639 16.25 7.16675 16.25C7.8571 16.25 8.41675 15.6904 8.41675 15V13C8.41675 12.3096 7.8571 11.75 7.16675 11.75ZM4.41675 13C4.41675 11.4812 5.64796 10.25 7.16675 10.25C8.68553 10.25 9.91675 11.4812 9.91675 13V15C9.91675 16.5188 8.68553 17.75 7.16675 17.75C5.64796 17.75 4.41675 16.5188 4.41675 15V13Z" fill="#007EAE" fill-rule="evenodd"/>
<path clip-rule="evenodd" d="M19.1667 11.75C18.4764 11.75 17.9167 12.3096 17.9167 13V15C17.9167 15.6904 18.4764 16.25 19.1667 16.25C19.8571 16.25 20.4167 15.6904 20.4167 15V13C20.4167 12.3096 19.8571 11.75 19.1667 11.75ZM16.4167 13C16.4167 11.4812 17.648 10.25 19.1667 10.25C20.6855 10.25 21.9167 11.4812 21.9167 13V15C21.9167 16.5188 20.6855 17.75 19.1667 17.75C17.648 17.75 16.4167 16.5188 16.4167 15V13Z" fill="#007EAE" fill-rule="evenodd"/>
<path clip-rule="evenodd" d="M13.1667 3.75C11.767 3.75 10.4291 4.2894 9.44622 5.24253C8.46408 6.1949 7.91675 7.48159 7.91675 8.81818V11C7.91675 11.4142 7.58096 11.75 7.16675 11.75C6.75253 11.75 6.41675 11.4142 6.41675 11V8.81818C6.41675 7.06861 7.1337 5.39555 8.402 4.16568C9.66952 2.93657 11.3839 2.25 13.1667 2.25C14.9496 2.25 16.664 2.93657 17.9315 4.16568C19.1998 5.39555 19.9167 7.06861 19.9167 8.81818V11C19.9167 11.4142 19.581 11.75 19.1667 11.75C18.7525 11.75 18.4167 11.4142 18.4167 11V8.81818C18.4167 7.48159 17.8694 6.1949 16.8873 5.24253C15.9044 4.2894 14.5665 3.75 13.1667 3.75Z" fill="#007EAE" fill-rule="evenodd"/>
<path clip-rule="evenodd" d="M19.1667 16.25C19.581 16.25 19.9167 16.5858 19.9167 17C19.9167 18.2598 19.4163 19.468 18.5255 20.3588C17.6347 21.2496 16.4265 21.75 15.1667 21.75C14.7525 21.75 14.4167 21.4142 14.4167 21C14.4167 20.5858 14.7525 20.25 15.1667 20.25C16.0287 20.25 16.8554 19.9076 17.4648 19.2981C18.0743 18.6886 18.4167 17.862 18.4167 17C18.4167 16.5858 18.7525 16.25 19.1667 16.25Z" fill="#007EAE" fill-rule="evenodd"/>
</g>
</g>
</svg>