<?xml version="1.0" encoding="UTF-8" standalone="no"?><svg xmlns="http://www.w3.org/2000/svg" fill="none" height="16" viewBox="0 0 16 16" width="16">
<path d="M5.19992 1.33334H10.7999C12.9333 1.33334 14.6666 3.06668 14.6666 5.20001V10.8C14.6666 11.8255 14.2592 12.809 13.5341 13.5342C12.8089 14.2593 11.8254 14.6667 10.7999 14.6667H5.19992C3.06659 14.6667 1.33325 12.9333 1.33325 10.8V5.20001C1.33325 4.17451 1.74063 3.191 2.46577 2.46586C3.19091 1.74072 4.17442 1.33334 5.19992 1.33334ZM5.06659 2.66668C4.43007 2.66668 3.81962 2.91953 3.36953 3.36962C2.91944 3.81971 2.66659 4.43016 2.66659 5.06668V10.9333C2.66659 12.26 3.73992 13.3333 5.06659 13.3333H10.9333C11.5698 13.3333 12.1802 13.0805 12.6303 12.6304C13.0804 12.1803 13.3333 11.5699 13.3333 10.9333V5.06668C13.3333 3.74001 12.2599 2.66668 10.9333 2.66668H5.06659ZM11.4999 3.66668C11.7209 3.66668 11.9329 3.75447 12.0892 3.91075C12.2455 4.06703 12.3333 4.279 12.3333 4.50001C12.3333 4.72102 12.2455 4.93299 12.0892 5.08927C11.9329 5.24555 11.7209 5.33334 11.4999 5.33334C11.2789 5.33334 11.0669 5.24555 10.9107 5.08927C10.7544 4.93299 10.6666 4.72102 10.6666 4.50001C10.6666 4.279 10.7544 4.06703 10.9107 3.91075C11.0669 3.75447 11.2789 3.66668 11.4999 3.66668ZM7.99992 4.66668C8.88397 4.66668 9.73182 5.01787 10.3569 5.64299C10.9821 6.26811 11.3333 7.11596 11.3333 8.00001C11.3333 8.88407 10.9821 9.73191 10.3569 10.357C9.73182 10.9822 8.88397 11.3333 7.99992 11.3333C7.11586 11.3333 6.26802 10.9822 5.6429 10.357C5.01777 9.73191 4.66659 8.88407 4.66659 8.00001C4.66659 7.11596 5.01777 6.26811 5.6429 5.64299C6.26802 5.01787 7.11586 4.66668 7.99992 4.66668ZM7.99992 6.00001C7.46949 6.00001 6.96078 6.21072 6.5857 6.5858C6.21063 6.96087 5.99992 7.46958 5.99992 8.00001C5.99992 8.53044 6.21063 9.03915 6.5857 9.41422C6.96078 9.7893 7.46949 10 7.99992 10C8.53035 10 9.03906 9.7893 9.41413 9.41422C9.78921 9.03915 9.99992 8.53044 9.99992 8.00001C9.99992 7.46958 9.78921 6.96087 9.41413 6.5858C9.03906 6.21072 8.53035 6.00001 7.99992 6.00001Z" fill="#007EAE"/>
</svg>