<?xml version="1.0" encoding="UTF-8" standalone="no"?><svg xmlns="http://www.w3.org/2000/svg" fill="none" height="16" viewBox="0 0 16 16" width="16">
<path clip-rule="evenodd" d="M4.54877 3.11329C4.53019 2.26947 3.92837 1.62744 2.95052 1.62744C1.97277 1.62744 1.3335 2.26947 1.3335 3.11329C1.3335 3.93853 1.95377 4.59888 2.91299 4.59888L3.05423 4.59548C3.97899 4.54357 4.54877 3.90415 4.54877 3.11329ZM11.3759 5.57112C13.2117 5.57112 14.5992 6.74238 14.6642 9.25533L14.6666 9.44161V14.3725H11.8086V9.77191C11.8086 8.61585 11.3948 7.82725 10.3605 7.82725C9.5709 7.82725 9.10059 8.35909 8.89396 8.87261C8.83107 9.02572 8.80768 9.22954 8.80164 9.44196L8.79991 9.57011V14.3725H5.94161L5.95818 8.77035L5.95276 6.41642L5.94339 5.81811L5.94161 5.77292H8.79999L8.79934 6.99131L8.82567 6.95118C9.19497 6.39132 9.8391 5.63453 11.2018 5.57488L11.3759 5.57112ZM4.36071 5.77298V14.3725H1.50239V5.77298H4.36071Z" fill="#007EAE" fill-rule="evenodd"/>
</svg>