<?xml version="1.0" encoding="UTF-8" standalone="no"?><svg xmlns="http://www.w3.org/2000/svg" fill="none" height="24" viewBox="0 0 25 24" width="25">
<g id="ico259">
<g id="Color_base">
<path clip-rule="evenodd" d="M3.41675 8C3.41675 5.37665 5.5434 3.25 8.16675 3.25H18.1667C20.7901 3.25 22.9167 5.37665 22.9167 8V14C22.9167 16.6234 20.7901 18.75 18.1667 18.75L8.41675 18.75L4.61675 21.6C4.38948 21.7704 4.08543 21.7979 3.83134 21.6708C3.57725 21.5438 3.41675 21.2841 3.41675 21V8ZM8.16675 4.75C6.37182 4.75 4.91675 6.20507 4.91675 8V19.5L7.71675 17.4C7.84657 17.3026 8.00447 17.25 8.16675 17.25L18.1667 17.25C19.9617 17.25 21.4167 15.7949 21.4167 14V8C21.4167 6.20507 19.9617 4.75 18.1667 4.75H8.16675Z" fill="#007EAE" fill-rule="evenodd"/>
<path clip-rule="evenodd" d="M7.16675 9.75C7.16675 9.33579 7.50253 9 7.91675 9H18.4167C18.831 9 19.1667 9.33579 19.1667 9.75C19.1667 10.1642 18.831 10.5 18.4167 10.5H7.91675C7.50253 10.5 7.16675 10.1642 7.16675 9.75Z" fill="#007EAE" fill-rule="evenodd"/>
<path clip-rule="evenodd" d="M7.16675 12.75C7.16675 12.3358 7.50253 12 7.91675 12H15.4167C15.831 12 16.1667 12.3358 16.1667 12.75C16.1667 13.1642 15.831 13.5 15.4167 13.5H7.91675C7.50253 13.5 7.16675 13.1642 7.16675 12.75Z" fill="#007EAE" fill-rule="evenodd"/>
</g>
</g>
</svg>