<?xml version="1.0" encoding="UTF-8" standalone="no"?><svg xmlns="http://www.w3.org/2000/svg" fill="none" height="24" viewBox="0 0 25 24" width="25">
<g id="ico121">
<path clip-rule="evenodd" d="M2.91675 4C2.91675 3.0335 3.70025 2.25 4.66675 2.25H18.6667C19.6332 2.25 20.4167 3.0335 20.4167 4V5.25C20.4167 5.66421 20.081 6 19.6667 6C19.2525 6 18.9167 5.66421 18.9167 5.25V4C18.9167 3.86193 18.8048 3.75 18.6667 3.75H4.66675C4.52868 3.75 4.41675 3.86193 4.41675 4V14C4.41675 14.1381 4.52868 14.25 4.66675 14.25H10.9167C11.331 14.25 11.6667 14.5858 11.6667 15C11.6667 15.4142 11.331 15.75 10.9167 15.75H10.4167V18.25H11.1667C11.581 18.25 11.9167 18.5858 11.9167 19C11.9167 19.4142 11.581 19.75 11.1667 19.75H7.16675C6.75253 19.75 6.41675 19.4142 6.41675 19C6.41675 18.5858 6.75253 18.25 7.16675 18.25H8.91675V15.75H4.66675C3.70025 15.75 2.91675 14.9665 2.91675 14V4ZM12.9167 9C12.9167 8.0335 13.7002 7.25 14.6667 7.25H20.4825C21.449 7.25 22.2325 8.0335 22.2325 9V20.5C22.2325 21.4665 21.449 22.25 20.4825 22.25H14.6667C13.7002 22.25 12.9167 21.4665 12.9167 20.5V9ZM19.6731 8.75H20.4825C20.6206 8.75 20.7325 8.86193 20.7325 9V20.5C20.7325 20.6381 20.6206 20.75 20.4825 20.75H14.6667C14.5287 20.75 14.4167 20.6381 14.4167 20.5V9C14.4167 8.86193 14.5287 8.75 14.6667 8.75H15.4762C15.6351 9.16548 16.0375 9.46053 16.5089 9.46053H18.6404C19.1118 9.46053 19.5142 9.16548 19.6731 8.75ZM16.8247 19.7236C16.8247 19.3094 17.1605 18.9736 17.5747 18.9736H17.5815C17.9957 18.9736 18.3315 19.3094 18.3315 19.7236C18.3315 20.1378 17.9957 20.4736 17.5815 20.4736H17.5747C17.1605 20.4736 16.8247 20.1378 16.8247 19.7236Z" fill="#007EAE" fill-rule="evenodd" id="Color_base"/>
</g>
</svg>