<?xml version="1.0" encoding="UTF-8" standalone="no"?><svg xmlns="http://www.w3.org/2000/svg" fill="none" height="16" viewBox="0 0 16 16" width="16">
<path d="M8.35412 0.0135C9.22662 0 10.0941 0.008 10.9606 0C11.0131 1.0205 11.3801 2.06 12.1271 2.7815C12.8726 3.521 13.9271 3.8595 14.9531 3.974V6.6585C13.9916 6.627 13.0256 6.427 12.1531 6.013C11.7731 5.841 11.4191 5.6195 11.0726 5.393C11.0681 7.341 11.0806 9.2865 11.0601 11.2265C11.0081 12.1585 10.7006 13.086 10.1586 13.854C9.28662 15.1325 7.77312 15.966 6.21862 15.992C5.26512 16.0465 4.31262 15.7865 3.50012 15.3075C2.15362 14.5135 1.20612 13.06 1.06812 11.5C1.05212 11.1665 1.04662 10.8335 1.06012 10.508C1.18012 9.2395 1.80762 8.026 2.78162 7.2005C3.88562 6.239 5.43212 5.781 6.88012 6.052C6.89362 7.0395 6.85412 8.026 6.85412 9.0135C6.19262 8.7995 5.41962 8.8595 4.84162 9.261C4.41962 9.5345 4.09912 9.9535 3.93212 10.4275C3.79412 10.7655 3.83362 11.141 3.84162 11.5C4.00012 12.594 5.05212 13.5135 6.17512 13.414C6.91962 13.406 7.63312 12.974 8.02112 12.3415C8.14662 12.12 8.28712 11.8935 8.29462 11.633C8.36012 10.4405 8.33412 9.253 8.34212 8.0605C8.34762 5.373 8.33412 2.693 8.35462 0.014L8.35412 0.0135Z" fill="#007EAE"/>
</svg>