<?xml version="1.0" encoding="UTF-8" standalone="no"?><svg xmlns="http://www.w3.org/2000/svg" fill="none" height="16" viewBox="0 0 16 16" width="16">
<path d="M8.16259 2.66666C8.51859 2.66866 9.40925 2.67732 10.3559 2.71532L10.6919 2.72999C11.6446 2.77466 12.5966 2.85199 13.0693 2.98332C13.6993 3.16066 14.1939 3.67666 14.3613 4.33132C14.6279 5.37132 14.6613 7.39932 14.6653 7.89066L14.6659 7.99199V8.10799C14.6613 8.59932 14.6279 10.628 14.3613 11.6673C14.1919 12.324 13.6966 12.8407 13.0693 13.0153C12.5966 13.1467 11.6446 13.224 10.6919 13.2687L10.3559 13.284C9.40925 13.3213 8.51859 13.3307 8.16259 13.332L8.00592 13.3327H7.83592C7.08259 13.328 3.93192 13.294 2.92925 13.0153C2.29992 12.838 1.80459 12.322 1.63725 11.6673C1.37059 10.6273 1.33725 8.59932 1.33325 8.10799V7.89066C1.33725 7.39932 1.37059 5.37066 1.63725 4.33132C1.80659 3.67466 2.30192 3.15799 2.92992 2.98399C3.93192 2.70466 7.08325 2.67066 7.83659 2.66666H8.16259ZM6.66592 5.66666V10.3333L10.6659 7.99999L6.66592 5.66666Z" fill="#007EAE"/>
</svg>